<?xml version="1.0" encoding="utf-8"?>
<!-- Generator: Adobe Illustrator 27.2.0, SVG Export Plug-In . SVG Version: 6.00 Build 0)  -->
<svg version="1.1" id="Layer_1" xmlns="http://www.w3.org/2000/svg" xmlns:xlink="http://www.w3.org/1999/xlink" x="0px" y="0px"
	 viewBox="0 0 16 16" style="enable-background:new 0 0 16 16;" xml:space="preserve">
<style type="text/css">
	.st0{fill-rule:evenodd;clip-rule:evenodd;fill:#E7EFFD;}
	.st1{fill-rule:evenodd;clip-rule:evenodd;fill:#3574F0;}
	.st2{fill:#3574F0;}
</style>
<path class="st0" d="M7.123,12.952h1.923c0.826,0,1.508-0.276,1.984-0.725c0.468-0.443,0.812-1.126,0.839-2.093
	c0.045-1.619,0.045-3.209,0-4.829c-0.051-1.852-1.707-3.306-3.256-3.306H7.411c-1.576,0-3.227,1.439-3.285,3.31
	c-0.049,1.58-0.049,3.184,0,4.764C4.181,11.886,5.487,12.952,7.123,12.952z"/>
<path class="st1" d="M6.206,6.303c0.884,0,1.6-0.716,1.6-1.6s-0.716-1.6-1.6-1.6s-1.6,0.716-1.6,1.6S5.322,6.303,6.206,6.303z
	 M6.601,4.553c0,0.414-0.336,0.75-0.75,0.75c-0.414,0-0.75-0.336-0.75-0.75s0.336-0.75,0.75-0.75
	C6.265,3.803,6.601,4.139,6.601,4.553z"/>
<path class="st1" d="M9.901,6.303c0.884,0,1.6-0.716,1.6-1.6s-0.716-1.6-1.6-1.6c-0.884,0-1.6,0.716-1.6,1.6
	S9.017,6.303,9.901,6.303z M11,4.557c0,0.414-0.336,0.75-0.75,0.75c-0.414,0-0.75-0.336-0.75-0.75s0.336-0.75,0.75-0.75
	C10.664,3.807,11,4.143,11,4.557z"/>
<path class="st2" d="M7.548,6.458C7.619,6.256,7.8,6.117,8.013,6.117c0.212,0,0.394,0.139,0.465,0.342
	C8.766,6.55,8.953,6.726,8.953,6.928c0,0.196-0.176,0.378-0.453,0.479V8H7.512V7.402C7.241,7.301,7.066,7.122,7.066,6.928
	C7.066,6.726,7.256,6.55,7.548,6.458z"/>
<path class="st1" d="M8.612,0.999H7.411c-1.042,0-2.082,0.454-2.877,1.206l-1.014-0.39c-0.248-0.096-0.53-0.02-0.697,0.187
	C2.645,2.221,2.64,2.533,2.81,2.758l0.686,0.907c-0.22,0.495-0.352,1.038-0.37,1.613C3.102,6.062,3.089,6.852,3.089,7.641
	l-1.28,1.328C1.542,9.245,1.551,9.685,1.827,9.952c0.271,0.26,0.699,0.258,0.968-0.004l0.318-0.312
	c0.004,0.156,0.008,0.312,0.013,0.468c0.037,1.188,0.494,2.14,1.202,2.8l-0.517,0.895c-0.221,0.383-0.09,0.872,0.293,1.093
	c0.383,0.221,0.872,0.09,1.093-0.293l0.507-0.878c0.444,0.152,0.923,0.231,1.419,0.231h1.923c0.483,0,0.941-0.074,1.362-0.217
	l0.499,0.864c0.221,0.383,0.71,0.514,1.093,0.293c0.383-0.221,0.514-0.71,0.293-1.093l-0.519-0.9
	c0.648-0.641,1.062-1.566,1.095-2.737c0.005-0.173,0.009-0.347,0.013-0.519l0.311,0.305c0.268,0.263,0.697,0.265,0.968,0.004
	c0.277-0.266,0.285-0.706,0.019-0.983l-1.276-1.324c-0.001-0.787-0.012-1.574-0.034-2.367C12.853,4.75,12.74,4.247,12.55,3.783
	l0.776-1.026c0.17-0.225,0.165-0.537-0.012-0.756c-0.167-0.207-0.449-0.282-0.697-0.187l-1.114,0.429
	C10.707,1.471,9.658,0.999,8.612,0.999z M7.411,1.999h1.202c1.549,0,3.205,1.454,3.256,3.306c0.045,1.619,0.045,3.209,0,4.829
	c-0.027,0.967-0.371,1.651-0.839,2.093c-0.475,0.449-1.158,0.725-1.984,0.725H7.123c-1.636,0-2.941-1.066-2.997-2.879
	c-0.049-1.58-0.049-3.184,0-4.764C4.183,3.438,5.835,1.999,7.411,1.999z"/>
</svg>
