<?xml version="1.0" encoding="utf-8"?>
<!-- Generator: Adobe Illustrator 24.1.0, SVG Export Plug-In . SVG Version: 6.00 Build 0)  -->
<svg version="1.1" id="Layer_1" xmlns="http://www.w3.org/2000/svg" xmlns:xlink="http://www.w3.org/1999/xlink" x="0px" y="0px"
	 width="16px" height="16px" viewBox="0 0 16 16" style="enable-background:new 0 0 16 16;" xml:space="preserve">
<style type="text/css">
	.st0{fill:none;}
	.st1{fill-rule:evenodd;clip-rule:evenodd;fill:#9AA7B0;}
	.st2{opacity:0.9;}
	.st3{fill:#40A0CF;}
	.st4{fill:#FFC900;fill-opacity:0.9;}
</style>
<rect id="frame" class="st0" width="16" height="16"/>
<g>
	<path class="st1" d="M3.1,2L2,2.44l0.16,0.78L3,3v4h1V2H3.1z"/>
	<path class="st1" d="M12.1,2L11,2.44l0.16,0.78L12,3v4h1V2H12.1z"/>
	<path class="st1" d="M8,3C7.29,3,7,3.54,7,4.5S7.28,6,8,6s1-0.55,1-1.5S8.71,3,8,3z M8,2c1.21,0,2,1.12,2,2.5S9.21,7,8,7
		S6,5.88,6,4.5C6,2.96,6.79,2,8,2z"/>
	<path class="st1" d="M4,10c-0.71,0-1,0.54-1,1.5S3.29,13,4,13s1-0.55,1-1.5S4.71,10,4,10z M4,9c1.21,0,2,1.12,2,2.5S5.21,14,4,14
		s-2-1.12-2-2.5C2,9.96,2.79,9,4,9z"/>
</g>
<g id="Layer_2">
	<g>
		<g class="st2">
			<path class="st3" d="M11.45,8c-0.31,0-0.62,0.03-0.92,0.08C9.71,8.22,9.57,8.52,9.57,9.07V9.8h1.93v0.24H8.84
				c-0.58-0.01-1.09,0.4-1.21,0.97c-0.18,0.63-0.18,1.31,0,1.94c0.05,0.53,0.49,0.95,1.03,0.97h0.66v-0.87
				c0.02-0.65,0.55-1.18,1.21-1.19h1.93c0.53,0,0.97-0.44,0.96-0.97c0,0,0,0,0,0V9.07c-0.04-0.52-0.44-0.94-0.96-0.99
				C12.13,8.02,11.79,8,11.45,8z M10.41,8.59c0.2,0,0.36,0.16,0.37,0.36s-0.16,0.36-0.36,0.37s-0.36-0.16-0.37-0.36
				S10.21,8.59,10.41,8.59z"/>
		</g>
	</g>
	<path class="st4" d="M13.66,10.04v0.85c-0.01,0.66-0.54,1.2-1.21,1.21h-1.93c-0.53,0.01-0.96,0.44-0.97,0.97v1.82
		c0.06,0.51,0.46,0.9,0.97,0.97c0.63,0.19,1.3,0.19,1.93,0c0.51-0.06,0.91-0.46,0.96-0.97v-0.73h-1.93v-0.24h2.89
		c0.56,0,0.77-0.39,0.97-0.97c0.2-0.63,0.2-1.31,0-1.94c-0.03-0.52-0.44-0.94-0.97-0.97C14.39,10.04,13.66,10.04,13.66,10.04z
		 M12.58,14.64c0.2,0,0.36,0.16,0.37,0.36c0,0.2-0.16,0.36-0.36,0.37c-0.2,0-0.36-0.16-0.37-0.36
		C12.22,14.81,12.38,14.64,12.58,14.64z"/>
</g>
</svg>
