<?xml version="1.0" encoding="utf-8"?>
<!-- Generator: Adobe Illustrator 24.1.0, SVG Export Plug-In . SVG Version: 6.00 Build 0)  -->
<svg version="1.1" id="Layer_1" xmlns="http://www.w3.org/2000/svg" xmlns:xlink="http://www.w3.org/1999/xlink" x="0px" y="0px"
	 width="16px" height="16px" viewBox="0 0 16 16" style="enable-background:new 0 0 16 16;" xml:space="preserve">
<style type="text/css">
	.st0{fill:none;}
	.st1{fill-rule:evenodd;clip-rule:evenodd;fill:#9AA7B0;fill-opacity:0.8;}
	.st2{fill:#40A0CF;fill-opacity:0.9;}
	.st3{fill:#FFC900;fill-opacity:0.9;}
</style>
<rect id="frame" class="st0" width="16" height="16"/>
<g>
	<path class="st1" d="M7.98,4L6.7,2.71C6.22,2.29,5.62,2.03,4.98,2H1.05C1.02,2,1,2.02,1,2.05V13h5.35
		c-0.33-0.75-0.38-1.71-0.15-2.51c0.24-1.13,1.23-1.95,2.38-1.97V8.3c-0.01-0.1,0-0.2,0.01-0.3H2V3h3c0.28,0,0.78,0.21,0.97,0.4
		l1.3,1.3L7.57,5H14v1.92c0.3,0.4,0.45,0.89,0.42,1.38v0.21c0.2,0,0.39,0.03,0.58,0.08V4H7.98z"/>
	<path class="st2" d="M11.49,6.88c-0.35,0-0.7,0.03-1.05,0.09c-0.93,0.16-1.1,0.5-1.1,1.13v0.83h2.19V9.2H8.52
		c-0.66-0.01-1.24,0.45-1.37,1.1c-0.21,0.72-0.21,1.48,0,2.2c0.06,0.61,0.56,1.07,1.17,1.1h0.75v-0.99
		c0.02-0.74,0.63-1.34,1.37-1.35h2.19c0.61,0,1.1-0.5,1.1-1.1c0,0,0,0,0,0V8.09c-0.04-0.59-0.5-1.07-1.1-1.13
		C12.26,6.91,11.87,6.88,11.49,6.88z M10.31,7.54c0.23,0,0.41,0.18,0.42,0.41c0,0.23-0.18,0.41-0.41,0.42S9.89,8.19,9.89,7.96
		C9.89,7.73,10.08,7.54,10.31,7.54z"/>
	<path class="st3" d="M14,9.2v0.96c-0.01,0.75-0.62,1.36-1.37,1.38h-2.19c-0.6,0.01-1.09,0.5-1.1,1.1v2.07
		c0.07,0.57,0.52,1.03,1.1,1.1c0.71,0.22,1.48,0.22,2.19,0c0.58-0.07,1.03-0.52,1.1-1.1v-0.83h-2.19V13.6h3.29
		c0.64,0,0.88-0.44,1.1-1.1c0.22-0.72,0.22-1.49,0-2.2c-0.03-0.59-0.51-1.06-1.1-1.1C14.83,9.2,14,9.2,14,9.2z M12.77,14.43
		c0.23,0,0.41,0.18,0.41,0.41s-0.18,0.41-0.41,0.41s-0.41-0.18-0.41-0.41S12.54,14.43,12.77,14.43z"/>
</g>
</svg>
