<?xml version="1.0" encoding="utf-8"?>
<!-- Generator: Adobe Illustrator 27.2.0, SVG Export Plug-In . SVG Version: 6.00 Build 0)  -->
<svg version="1.1" id="Layer_1" xmlns="http://www.w3.org/2000/svg" xmlns:xlink="http://www.w3.org/1999/xlink" x="0px" y="0px"
	 viewBox="0 0 16 16" style="enable-background:new 0 0 16 16;" xml:space="preserve">
<style type="text/css">
	.st0{fill-rule:evenodd;clip-rule:evenodd;fill:#FFFFFF;}
</style>
<path class="st0" d="M12.5,9C12.776,9,13,9.224,13,9.5V12h2.5c0.276,0,0.5,0.224,0.5,0.5S15.776,13,15.5,13H13v2.5
	c0,0.276-0.224,0.5-0.5,0.5S12,15.776,12,15.5V13H9.5C9.224,13,9,12.776,9,12.5S9.224,12,9.5,12H12V9.5C12,9.224,12.224,9,12.5,9z"
	/>
<path class="st0" d="M8,14H5c-0.552,0-1-0.448-1-1V6h2c1.105,0,2-0.895,2-2V2h3c0.552,0,1,0.448,1,1v5h1V3c0-1.105-0.895-2-2-2
	H7.828c-0.53,0-1.039,0.211-1.414,0.586L3.586,4.414C3.211,4.789,3,5.298,3,5.828V13c0,1.105,0.895,2,2,2h3V14z M7,2.414V4
	c0,0.552-0.448,1-1,1H4.414L7,2.414z"/>
</svg>
