<?xml version="1.0" encoding="utf-8"?>
<!-- Generator: Adobe Illustrator 27.2.0, SVG Export Plug-In . SVG Version: 6.00 Build 0)  -->
<svg version="1.1" id="Layer_1" xmlns="http://www.w3.org/2000/svg" xmlns:xlink="http://www.w3.org/1999/xlink" x="0px" y="0px"
	 viewBox="0 0 16 16" style="enable-background:new 0 0 16 16;" xml:space="preserve">
<style type="text/css">
	.st0{fill-rule:evenodd;clip-rule:evenodd;fill:#FFFFFF;}
</style>
<path class="st0" d="M7.914,1C7.516,1,7.135,1.158,6.854,1.439L3.439,4.854C3.158,5.135,3,5.516,3,5.914V13.5
	C3,14.328,3.672,15,4.5,15H11c1.105,0,2-0.895,2-2V2.5C13,1.672,12.328,1,11.5,1H7.914z M12,2.5C12,2.224,11.776,2,11.5,2H8v2.5
	C8,5.328,7.328,6,6.5,6H4v7.5C4,13.776,4.224,14,4.5,14H11c0.552,0,1-0.448,1-1V2.5z M7,2.707L4.707,5H6.5C6.776,5,7,4.776,7,4.5
	V2.707z"/>
</svg>
