<?xml version="1.0" encoding="utf-8"?>
<!-- Generator: Adobe Illustrator 27.2.0, SVG Export Plug-In . SVG Version: 6.00 Build 0)  -->
<svg version="1.1" id="Layer_1" xmlns="http://www.w3.org/2000/svg" xmlns:xlink="http://www.w3.org/1999/xlink" x="0px" y="0px"
	 viewBox="0 0 16 16" style="enable-background:new 0 0 16 16;" xml:space="preserve">
<style type="text/css">
	.st0{fill:none;stroke:#FFFFFF;}
	.st1{fill:#FFFFFF;}
</style>
<path class="st0" d="M4,2.5h8c0.828,0,1.5,0.672,1.5,1.5v8c0,0.828-0.672,1.5-1.5,1.5H4c-0.828,0-1.5-0.672-1.5-1.5V4
	C2.5,3.172,3.172,2.5,4,2.5z"/>
<path class="st1" d="M6.5,4h1C7.776,4,8,4.224,8,4.5v1C8,5.776,7.776,6,7.5,6h-1C6.224,6,6,5.776,6,5.5v-1C6,4.224,6.224,4,6.5,4z"
	/>
<path class="st1" d="M6.5,8h1C7.776,8,8,8.224,8,8.5v1C8,9.776,7.776,10,7.5,10h-1C6.224,10,6,9.776,6,9.5v-1C6,8.224,6.224,8,6.5,8
	z"/>
<path class="st1" d="M8.5,10h1c0.276,0,0.5,0.224,0.5,0.5v1c0,0.276-0.224,0.5-0.5,0.5h-1C8.224,12,8,11.776,8,11.5v-1
	C8,10.224,8.224,10,8.5,10z"/>
<path class="st1" d="M8.5,6h1C9.776,6,10,6.224,10,6.5v1C10,7.776,9.776,8,9.5,8h-1C8.224,8,8,7.776,8,7.5v-1C8,6.224,8.224,6,8.5,6
	z"/>
</svg>
