<?xml version="1.0" encoding="utf-8"?>
<!-- Generator: Adobe Illustrator 27.2.0, SVG Export Plug-In . SVG Version: 6.00 Build 0)  -->
<svg version="1.1" id="Layer_1" xmlns="http://www.w3.org/2000/svg" xmlns:xlink="http://www.w3.org/1999/xlink" x="0px" y="0px"
	 viewBox="0 0 16 16" style="enable-background:new 0 0 16 16;" xml:space="preserve">
<style type="text/css">
	.st0{fill:url(#SVGID_1_);}
	.st1{fill:none;}
	.st2{fill:#BE202E;}
	.st3{opacity:0.35;fill:#BE202E;enable-background:new    ;}
	.st4{fill:url(#SVGID_00000073711742426461791520000005763026570635540644_);}
	.st5{fill:url(#SVGID_00000016794465558753423450000008564829032415542412_);}
	.st6{fill:url(#SVGID_00000105420748692082778990000017571718302469503633_);}
	.st7{fill:url(#SVGID_00000168811868389646795530000002244504051666198668_);}
	.st8{fill:url(#SVGID_00000062898284739760013050000010230064455511116693_);}
	.st9{fill:url(#SVGID_00000054226373119907075390000010770360203820927922_);}
</style>
<g transform="rotate(5 -20.357 67.846)">
	
		<linearGradient id="SVGID_1_" gradientUnits="userSpaceOnUse" x1="161.25" y1="2246.8357" x2="162.7652" y2="2247.2986" gradientTransform="matrix(2.7481 -0.1907 -0.2404 -2.18 101.8776 4928.7925)">
		<stop  offset="0" style="stop-color:#F69923"/>
		<stop  offset="0.3123" style="stop-color:#F79A23"/>
		<stop  offset="0.8383" style="stop-color:#E97826"/>
	</linearGradient>
	<path class="st0" d="M5.769-1.485C5.454-1.321,4.939-0.867,4.312-0.204l0.573,0.939c0.398-0.5,0.807-0.949,1.217-1.332
		C6.132-0.628,6.15-0.643,6.15-0.643C6.132-0.628,6.121-0.612,6.103-0.597C5.968-0.469,5.565-0.061,4.962,0.755
		C5.547,0.73,6.448,0.628,7.18,0.515c0.216-1.066-0.217-1.556-0.217-1.556S6.413-1.816,5.769-1.485z"/>
	<path class="st1" d="M5.292,3.873c0.041,0,0.041,0,0.081,0l-0.57,0.114c-0.041,0-0.081,0.057-0.081,0.057
		C4.885,3.93,5.089,3.93,5.292,3.873z M4.73,5.557c-0.217,0.114-0.434,0.17-0.651,0.227C4.296,5.727,4.513,5.614,4.73,5.557z
		 M0.263,9.328c0.006-0.015,0.012-0.031,0.018-0.041c0.123-0.291,0.252-0.571,0.374-0.842c0.14-0.306,0.275-0.607,0.41-0.893
		c0.14-0.306,0.281-0.597,0.421-0.883c0.146-0.296,0.287-0.587,0.427-0.862C2.03,5.582,2.142,5.363,2.253,5.154
		c0.035-0.071,0.076-0.138,0.111-0.209c0.07-0.138,0.146-0.27,0.217-0.403c0.064-0.122,0.129-0.24,0.193-0.352
		c0.023-0.041,0.041-0.077,0.064-0.117c0.006-0.005,0.006-0.01,0.012-0.02l-0.07,0.005L2.727,3.96
		C2.721,3.97,2.715,3.98,2.709,3.985C2.61,4.159,2.51,4.332,2.411,4.511C2.352,4.613,2.3,4.715,2.241,4.817
		c-0.158,0.286-0.31,0.572-0.462,0.862C1.627,5.97,1.475,6.266,1.328,6.562C1.182,6.853,1.042,7.144,0.907,7.43
		C0.767,7.72,0.632,8.006,0.503,8.292C0.369,8.588,0.234,8.884,0.105,9.18C0.076,9.246,0.047,9.312,0.018,9.379
		c-0.105,0.235-0.205,0.469-0.304,0.699l0.088,0.153l0.076-0.005c0-0.005,0.006-0.015,0.006-0.02
		C0.012,9.91,0.135,9.614,0.263,9.328z"/>
	<path class="st2" d="M4.279,6.404C4.074,6.518,3.851,6.631,3.628,6.802l0,0c0.12-0.057,0.223-0.114,0.343-0.17
		C4.074,6.518,4.176,6.461,4.279,6.404z"/>
	<path class="st3" d="M4.279,6.404C4.074,6.518,3.851,6.631,3.628,6.802l0,0c0.12-0.057,0.223-0.114,0.343-0.17
		C4.074,6.518,4.176,6.461,4.279,6.404z"/>
	<path class="st2" d="M4.043,5.841L4.043,5.841L4.043,5.841c0.043,0,0.087,0,0.13-0.057c0.174-0.057,0.347-0.17,0.521-0.227
		C4.478,5.614,4.26,5.727,4.043,5.841z"/>
	<path class="st3" d="M4.043,5.841L4.043,5.841L4.043,5.841c0.043,0,0.087,0,0.13-0.057c0.174-0.057,0.347-0.17,0.521-0.227
		C4.478,5.614,4.26,5.727,4.043,5.841z"/>
	
		<linearGradient id="SVGID_00000138532850977621189290000002889247281493035175_" gradientUnits="userSpaceOnUse" x1="231.5074" y1="3062.1123" x2="234.61" y2="3066.1501" gradientTransform="matrix(2.7296 -0.3432 -0.2388 -3.9226 94.9961 12107.1152)">
		<stop  offset="0.3233" style="stop-color:#9E2064"/>
		<stop  offset="0.6302" style="stop-color:#C92037"/>
		<stop  offset="0.7514" style="stop-color:#CD2335"/>
		<stop  offset="1" style="stop-color:#E97826"/>
	</linearGradient>
	<path style="fill:url(#SVGID_00000138532850977621189290000002889247281493035175_);" d="M3.201,3.159
		c0.176-0.281,0.351-0.561,0.527-0.827c0.187-0.281,0.369-0.551,0.562-0.811C4.301,1.505,4.312,1.49,4.324,1.475
		C4.511,1.22,4.699,0.97,4.886,0.735L4.312-0.204C4.272-0.158,4.225-0.112,4.184-0.066C4.02,0.112,3.85,0.306,3.675,0.51
		C3.476,0.74,3.277,0.985,3.066,1.245C2.873,1.485,2.68,1.73,2.487,1.99C2.323,2.21,2.159,2.434,1.995,2.669
		C1.99,2.679,1.984,2.684,1.978,2.694l0.743,1.281C2.879,3.694,3.037,3.424,3.201,3.159z"/>
	
		<linearGradient id="SVGID_00000073003348900352428600000009920042119958125224_" gradientUnits="userSpaceOnUse" x1="126.0895" y1="2240.1687" x2="127.6391" y2="2243.6626" gradientTransform="matrix(3.2569 -0.1899 -0.2849 -2.1706 226.2093 4900.4321)">
		<stop  offset="0" style="stop-color:#282662"/>
		<stop  offset="0.0955" style="stop-color:#662E8D"/>
		<stop  offset="0.7882" style="stop-color:#9F2064"/>
		<stop  offset="0.9487" style="stop-color:#CD2032"/>
	</linearGradient>
	<path style="fill:url(#SVGID_00000073003348900352428600000009920042119958125224_);" d="M-0.181,10.364
		c-0.099,0.235-0.199,0.475-0.298,0.719c0,0.005,0,0.005-0.006,0.01c-0.012,0.036-0.029,0.071-0.041,0.102
		c-0.064,0.163-0.123,0.311-0.257,0.653c0.216,0.087,2.183-0.337,2.662-1.026c0.041-0.061,0.082-0.128,0.117-0.194
		c-0.216,0.24-0.492,0.342-1.001,0.321c0.749-0.291,1.123-0.572,1.457-1.041C2.528,9.797,2.61,9.68,2.686,9.547
		c-0.655,0.587-1.416,0.755-2.218,0.628l-0.603,0.056C-0.14,10.277-0.164,10.323-0.181,10.364z"/>
	
		<linearGradient id="SVGID_00000026859763845861484610000014397744647784500629_" gradientUnits="userSpaceOnUse" x1="222.8628" y1="3514.3577" x2="225.2647" y2="3516.6384" gradientTransform="matrix(3.526 -0.6076 -0.3085 -6.9448 294.2792 24557.0449)">
		<stop  offset="0.3233" style="stop-color:#9E2064"/>
		<stop  offset="0.6302" style="stop-color:#C92037"/>
		<stop  offset="0.7514" style="stop-color:#CD2335"/>
		<stop  offset="1" style="stop-color:#E97826"/>
	</linearGradient>
	<path style="fill:url(#SVGID_00000026859763845861484610000014397744647784500629_);" d="M0.1,9.195
		c0.129-0.291,0.263-0.587,0.398-0.888c0.129-0.286,0.263-0.572,0.404-0.862c0.14-0.291,0.281-0.577,0.421-0.867
		c0.146-0.296,0.298-0.592,0.451-0.883s0.304-0.577,0.462-0.862c0.059-0.102,0.111-0.204,0.17-0.306
		c0.099-0.179,0.199-0.352,0.298-0.526c0.006-0.01,0.012-0.02,0.018-0.026L1.978,2.689C1.966,2.705,1.954,2.725,1.943,2.74
		c-0.176,0.245-0.345,0.5-0.515,0.755c-0.17,0.26-0.339,0.526-0.503,0.791C0.784,4.511,0.65,4.74,0.521,4.97
		C0.492,5.016,0.468,5.062,0.445,5.108C0.281,5.399,0.135,5.679,0.006,5.95c-0.152,0.306-0.281,0.597-0.398,0.873
		C-0.468,7.006-0.538,7.18-0.603,7.348c-0.053,0.143-0.099,0.291-0.146,0.434C-0.86,8.118-0.954,8.46-1.036,8.797l0.743,1.291
		c0.099-0.23,0.199-0.464,0.304-0.699C0.041,9.328,0.07,9.261,0.1,9.195z"/>
	
		<linearGradient id="SVGID_00000134234818418920475720000014454335402680388253_" gradientUnits="userSpaceOnUse" x1="449.2596" y1="3091.0371" x2="451.2029" y2="3092.2964" gradientTransform="matrix(1.3853 -0.3587 -0.1212 -4.1004 -249.7176 12848.1475)">
		<stop  offset="0" style="stop-color:#282662"/>
		<stop  offset="0.0955" style="stop-color:#662E8D"/>
		<stop  offset="0.7882" style="stop-color:#9F2064"/>
		<stop  offset="0.9487" style="stop-color:#CD2032"/>
	</linearGradient>
	<path style="fill:url(#SVGID_00000134234818418920475720000014454335402680388253_);" d="M-1.047,8.848
		c-0.094,0.413-0.158,0.822-0.193,1.23c0,0.015-0.056,1.39,0.053,1.638c-0.126,0.312-0.316,0.797-0.569,1.455l0.276-0.131
		c0.296-0.757,0.532-1.35,0.708-1.778c0.029-0.066,0.053-0.133,0.082-0.199c0.006-0.02,0.018-0.036,0.023-0.056
		c0.099-0.24,0.205-0.49,0.31-0.74c0.023-0.056,0.047-0.112,0.076-0.173c0,0-0.248-0.43-0.743-1.291
		C-1.041,8.823-1.041,8.838-1.047,8.848z"/>
	
		<linearGradient id="SVGID_00000089562821791120677250000011453263678007012535_" gradientUnits="userSpaceOnUse" x1="157.62" y1="3455.0994" x2="159.1667" y2="3457.6335" gradientTransform="matrix(5.4757 -0.5468 -0.4791 -6.2503 789.9883 21697.5879)">
		<stop  offset="0.3233" style="stop-color:#9E2064"/>
		<stop  offset="0.6302" style="stop-color:#C92037"/>
		<stop  offset="0.7514" style="stop-color:#CD2335"/>
		<stop  offset="1" style="stop-color:#E97826"/>
	</linearGradient>
	<path style="fill:url(#SVGID_00000089562821791120677250000011453263678007012535_);" d="M2.838,4.077
		C2.815,4.113,2.797,4.154,2.774,4.195C2.709,4.312,2.645,4.429,2.58,4.547C2.51,4.679,2.44,4.812,2.364,4.95
		C2.329,5.016,2.288,5.087,2.253,5.159C2.142,5.368,2.03,5.588,1.913,5.812c-0.14,0.276-0.281,0.561-0.427,0.862
		C1.346,6.96,1.205,7.251,1.065,7.557C0.93,7.848,0.796,8.144,0.655,8.45C0.533,8.726,0.41,9.006,0.281,9.292
		C0.275,9.307,0.269,9.318,0.263,9.333C0.14,9.619,0.012,9.915-0.111,10.216c0,0.005-0.006,0.015-0.006,0.02l0.603-0.056
		c-0.012,0-0.023-0.005-0.035-0.005c0.72-0.077,1.673-0.546,2.288-1.123c0.287-0.265,0.544-0.582,0.778-0.949
		C3.692,7.828,3.862,7.527,4.02,7.19c0.14-0.296,1.685-3.572,1.697-3.613c-0.016,0.01-0.973,0.168-2.873,0.475
		C2.844,4.067,2.838,4.072,2.838,4.077z"/>
	
		<linearGradient id="SVGID_00000004543741086644030190000011926122979279234723_" gradientUnits="userSpaceOnUse" x1="144.5917" y1="2884.8042" x2="146.6727" y2="2889.5625" gradientTransform="matrix(4.0697 -0.2912 -0.3561 -3.3287 435.9298 9661.75)">
		<stop  offset="0.3233" style="stop-color:#9E2064"/>
		<stop  offset="0.6302" style="stop-color:#C92037"/>
		<stop  offset="0.7514" style="stop-color:#CD2335"/>
		<stop  offset="1" style="stop-color:#E97826"/>
	</linearGradient>
	<path style="fill:url(#SVGID_00000004543741086644030190000011926122979279234723_);" d="M4.956,0.75
		c-0.17,0.225-0.351,0.48-0.55,0.771C4.394,1.536,4.383,1.551,4.377,1.567c-0.17,0.25-0.351,0.526-0.538,0.827
		C3.675,2.653,3.505,2.929,3.324,3.23c-0.152,0.26-0.316,0.536-0.48,0.832c1.899-0.31,2.857-0.47,2.873-0.48
		c0.016-0.01,0.626-1.214,0.796-1.5c0.164-0.281,0.31-0.556,0.421-0.806c0.07-0.158,0.129-0.306,0.164-0.434
		C7.133,0.73,7.156,0.618,7.18,0.515C6.442,0.623,5.541,0.725,4.956,0.75z"/>
</g>
</svg>
