<?xml version="1.0" encoding="utf-8"?>
<!-- Generator: Adobe Illustrator 27.2.0, SVG Export Plug-In . SVG Version: 6.00 Build 0)  -->
<svg version="1.1" id="Layer_1" xmlns="http://www.w3.org/2000/svg" xmlns:xlink="http://www.w3.org/1999/xlink" x="0px" y="0px"
	 viewBox="0 0 16 16" style="enable-background:new 0 0 16 16;" xml:space="preserve">
<style type="text/css">
	.st0{fill-rule:evenodd;clip-rule:evenodd;fill:#CED0D6;}
	.st1{fill:#43454A;}
	.st2{fill:#548AF7;}
</style>
<path class="st0" d="M9.737,13H7V3h3v5h1V7h3v1.035c0.357,0.028,0.69,0.098,1,0.21V7c0-0.552-0.448-1-1-1h-3V3c0-0.552-0.448-1-1-1
	H7C6.448,2,6,2.448,6,3v1H3C2.448,4,2,4.448,2,5v8c0,0.552,0.448,1,1,1h6.737C9.737,14,9.737,13,9.737,13z M6,13H3V5h3V13z"/>
<polygon class="st1" points="9.737,8 10,8 10,3 7,3 7,13 9.737,13 "/>
<path class="st1" d="M13.654,8C13.775,8,13.883,8.026,14,8.035V7h-3v1H13.654z"/>
<rect x="3" y="5" class="st1" width="3" height="8"/>
<path class="st2" d="M15.715,9.985c-0.19-0.313-0.46-0.555-0.81-0.725C14.558,9.087,14.153,9,13.69,9h-2.967v7h2.967
	c0.463,0,0.868-0.087,1.215-0.26c0.35-0.17,0.62-0.412,0.81-0.725c0.19-0.31,0.285-0.673,0.285-1.09v-2.85
	C16,10.658,15.905,10.295,15.715,9.985z M14.795,14.55c-0.107,0.18-0.257,0.318-0.45,0.415c-0.193,0.097-0.42,0.145-0.68,0.145
	h-1.942V9.89h1.942c0.26,0,0.487,0.048,0.68,0.145c0.193,0.097,0.343,0.235,0.45,0.415c0.107,0.177,0.16,0.385,0.16,0.625v2.85
	C14.955,14.165,14.902,14.373,14.795,14.55z"/>
</svg>
