<?xml version="1.0" encoding="utf-8"?>
<!-- Generator: Adobe Illustrator 27.2.0, SVG Export Plug-In . SVG Version: 6.00 Build 0)  -->
<svg version="1.1" id="Layer_1" xmlns="http://www.w3.org/2000/svg" xmlns:xlink="http://www.w3.org/1999/xlink" x="0px" y="0px"
	 viewBox="0 0 16 16" style="enable-background:new 0 0 16 16;" xml:space="preserve">
<style type="text/css">
	.st0{fill-rule:evenodd;clip-rule:evenodd;fill:#6C707E;}
	.st1{fill:#EBECF0;}
	.st2{fill:#3574F0;}
</style>
<path class="st0" d="M9.933,13H7V3h3v7.335c0.073-0.341,0.207-0.665,0.415-0.963c0.162-0.231,0.361-0.432,0.585-0.61V7h3v1.058
	c0.344,0.048,0.676,0.12,0.98,0.244C14.987,8.305,14.993,8.31,15,8.313V7c0-0.552-0.448-1-1-1h-3V3c0-0.552-0.448-1-1-1H7
	C6.448,2,6,2.448,6,3v1H3C2.448,4,2,4.448,2,5v8c0,0.552,0.448,1,1,1h6.933 M6,13H3V5h3V13z"/>
<path class="st1" d="M9.933,10.907c0-0.197,0.027-0.386,0.067-0.571V3H7v10h2.933V10.907z"/>
<path class="st1" d="M11.668,8.348C12.164,8.117,12.728,8,13.342,8C13.57,8,13.786,8.028,14,8.058V7h-3v1.762
	C11.2,8.604,11.42,8.463,11.668,8.348z"/>
<rect x="3" y="5" class="st1" width="3" height="8"/>
<path class="st2" d="M13.427,16c-0.505,0-0.962-0.08-1.371-0.242c-0.405-0.161-0.729-0.385-0.973-0.673
	c-0.239-0.292-0.368-0.62-0.385-0.986h1.064c0.017,0.2,0.1,0.381,0.248,0.542c0.148,0.157,0.344,0.281,0.588,0.372
	s0.516,0.137,0.816,0.137c0.305,0,0.572-0.05,0.803-0.15c0.235-0.1,0.416-0.239,0.542-0.418c0.131-0.178,0.196-0.381,0.196-0.607
	c0-0.244-0.07-0.448-0.209-0.614c-0.135-0.17-0.324-0.276-0.568-0.32l-1.613-0.294c-0.514-0.096-0.914-0.303-1.201-0.62
	c-0.287-0.322-0.431-0.729-0.431-1.221c0-0.353,0.1-0.673,0.3-0.96c0.205-0.292,0.49-0.522,0.855-0.692
	C12.454,9.085,12.872,9,13.342,9c0.466,0,0.886,0.076,1.26,0.229c0.374,0.152,0.673,0.363,0.895,0.633
	c0.222,0.27,0.342,0.57,0.359,0.901h-1.064c-0.013-0.174-0.085-0.331-0.215-0.47c-0.126-0.139-0.296-0.248-0.509-0.326
	c-0.213-0.078-0.453-0.118-0.718-0.118c-0.27,0-0.509,0.046-0.718,0.137c-0.209,0.091-0.372,0.218-0.49,0.379
	c-0.113,0.157-0.17,0.335-0.17,0.535c0,0.226,0.063,0.414,0.189,0.562c0.126,0.148,0.311,0.244,0.555,0.287l1.652,0.294
	c0.34,0.061,0.631,0.181,0.875,0.359c0.248,0.178,0.435,0.401,0.562,0.666C15.935,13.334,16,13.623,16,13.937
	c0,0.392-0.113,0.744-0.34,1.058c-0.222,0.313-0.529,0.559-0.921,0.738C14.348,15.911,13.91,16,13.427,16z"/>
</svg>
