<?xml version="1.0" encoding="utf-8"?>
<!-- Generator: Adobe Illustrator 24.1.0, SVG Export Plug-In . SVG Version: 6.00 Build 0)  -->
<svg version="1.1" id="Layer_1" xmlns="http://www.w3.org/2000/svg" xmlns:xlink="http://www.w3.org/1999/xlink" x="0px" y="0px"
	 width="16px" height="16px" viewBox="0 0 16 16" style="enable-background:new 0 0 16 16;" xml:space="preserve">
<style type="text/css">
	.st0{fill:none;}
	.st1{fill-rule:evenodd;clip-rule:evenodd;fill:#F4AF3D;fill-opacity:0.7;}
	.st2{fill-rule:evenodd;clip-rule:evenodd;fill:#9AA7B0;fill-opacity:0.8;}
	.st3{fill-rule:evenodd;clip-rule:evenodd;fill:#231F20;fill-opacity:0.7;}
</style>
<rect id="frame" class="st0" width="16" height="16"/>
<g>
	<path class="st1" d="M1,16h15V9H1V16z"/>
	<path class="st2" d="M7,1L3,5h4V1z"/>
	<path class="st2" d="M8,1v5H3v2h10V1H8z"/>
	<path class="st3" d="M3,10h1v2h2v-2h1v5H6v-2H4v2H3V10z"/>
	<path class="st3" d="M10,12h1v1h-1v1H9v-1H8v-1h1v-1h1V12z"/>
	<path class="st3" d="M14,12h1v1h-1v1h-1v-1h-1v-1h1v-1h1V12z"/>
</g>
</svg>
