<?xml version="1.0" encoding="utf-8"?>
<!-- Generator: Adobe Illustrator 27.2.0, SVG Export Plug-In . SVG Version: 6.00 Build 0)  -->
<svg version="1.1" id="Layer_1" xmlns="http://www.w3.org/2000/svg" xmlns:xlink="http://www.w3.org/1999/xlink" x="0px" y="0px"
	 viewBox="0 0 16 16" style="enable-background:new 0 0 16 16;" xml:space="preserve">
<style type="text/css">
	.st0{fill-rule:evenodd;clip-rule:evenodd;fill:#6C707E;}
</style>
<path class="st0" d="M9.5,14h-3v-3h3V14z M10.5,14c0,0.552-0.448,1-1,1h-3c-0.552,0-1-0.448-1-1v-3c0-0.552,0.448-1,1-1h1.1V8.5H5
	c-0.552,0-1-0.448-1-1V6H3C2.448,6,2,5.552,2,5V2c0-0.552,0.448-1,1-1h3c0.552,0,1,0.448,1,1v3c0,0.552-0.448,1-1,1H5v1.5h6V6h-1
	C9.448,6,9,5.552,9,5V2c0-0.552,0.448-1,1-1h3c0.552,0,1,0.448,1,1v3c0,0.552-0.448,1-1,1h-1v1.5c0,0.552-0.448,1-1,1H8.6V10h0.9
	c0.552,0,1,0.448,1,1V14z M10,5h3V2h-3V5z M3,5h3V2H3V5z"/>
</svg>
