<?xml version="1.0" encoding="utf-8"?>
<!-- Generator: Adobe Illustrator 27.2.0, SVG Export Plug-In . SVG Version: 6.00 Build 0)  -->
<svg version="1.1" id="Layer_1" xmlns="http://www.w3.org/2000/svg" xmlns:xlink="http://www.w3.org/1999/xlink" x="0px" y="0px"
	 viewBox="0 0 16 16" style="enable-background:new 0 0 16 16;" xml:space="preserve">
<style type="text/css">
	.st0{fill-rule:evenodd;clip-rule:evenodd;fill:#FFFFFF;}
	.st1{fill:#FFFFFF;}
</style>
<path class="st0" d="M7.06,12H5c-0.552,0-1-0.448-1-1V6h2.5C7.328,6,8,5.328,8,4.5V2h2c0.552,0,1,0.448,1,1v4.042
	C11.14,7.029,11.275,7,11.418,7c0.199,0,0.39,0.033,0.582,0.059V3c0-1.105-0.895-2-2-2H7.828c-0.53,0-1.039,0.211-1.414,0.586
	L3.586,4.414C3.211,4.789,3,5.298,3,5.828V11c0,1.105,0.895,2,2,2h2.307C7.184,12.683,7.106,12.347,7.06,12z M7,2.414V4.5
	C7,4.776,6.776,5,6.5,5H4.414L7,2.414z"/>
<path class="st1" d="M14,7.85V3.5C14,3.224,13.776,3,13.5,3S13,3.224,13,3.5v3.806C13.359,7.444,13.693,7.627,14,7.85z"/>
<path class="st1" d="M7.852,14H5.5C5.224,14,5,14.224,5,14.5S5.224,15,5.5,15h3.356C8.469,14.723,8.131,14.385,7.852,14z"/>
<path class="st1" d="M8.001,11.417c0,1.884,1.533,3.416,3.417,3.416c0.762,0,1.458-0.259,2.027-0.682l1.702,1.702
	C15.245,15.951,15.373,16,15.501,16s0.256-0.049,0.354-0.146c0.195-0.195,0.195-0.512,0-0.707l-1.702-1.702
	c0.423-0.569,0.682-1.266,0.682-2.027C14.834,9.533,13.302,8,11.418,8S8.001,9.533,8.001,11.417z M9.001,11.417
	C9.001,10.084,10.085,9,11.418,9c1.332,0,2.416,1.084,2.416,2.417c0,1.332-1.084,2.416-2.416,2.416
	C10.085,13.833,9.001,12.749,9.001,11.417z"/>
</svg>
