<?xml version="1.0" encoding="utf-8"?>
<!-- Generator: Adobe Illustrator 27.2.0, SVG Export Plug-In . SVG Version: 6.00 Build 0)  -->
<svg version="1.1" id="Layer_1" xmlns="http://www.w3.org/2000/svg" xmlns:xlink="http://www.w3.org/1999/xlink" x="0px" y="0px"
	 viewBox="0 0 16 16" style="enable-background:new 0 0 16 16;" xml:space="preserve">
<style type="text/css">
	.st0{fill:none;stroke:#B4B8BF;stroke-linejoin:round;}
</style>
<path class="st0" d="M7.2,5.78c0.19-0.39,0.3-0.82,0.3-1.29c0-1.66-1.34-3-3-3c-0.13,0-0.26,0.02-0.38,0.04L3.59,2.06l1.73,1.73
	L3.8,5.31L2.07,3.58L1.54,4.11C1.52,4.24,1.5,4.36,1.5,4.49c0,1.66,1.34,3,3,3c0.46,0,0.89-0.11,1.29-0.3l6.51,6.51l-0.01,0.01
	C12.49,13.91,12.74,14,13,14s0.51-0.1,0.71-0.29C13.91,13.52,14,13.26,14,13s-0.1-0.51-0.29-0.71L7.2,5.78z"/>
</svg>
