<?xml version="1.0" encoding="utf-8"?>
<!-- Generator: Adobe Illustrator 27.2.0, SVG Export Plug-In . SVG Version: 6.00 Build 0)  -->
<svg version="1.1" id="Layer_1" xmlns="http://www.w3.org/2000/svg" xmlns:xlink="http://www.w3.org/1999/xlink" x="0px" y="0px"
	 viewBox="0 0 16 16" style="enable-background:new 0 0 16 16;" xml:space="preserve">
<style type="text/css">
	.st0{fill:#EBECF0;}
	.st1{fill-rule:evenodd;clip-rule:evenodd;fill:#6C707E;}
	.st2{fill:#3574F0;}
	.st3{fill-rule:evenodd;clip-rule:evenodd;fill:#3574F0;}
</style>
<path class="st0" d="M9,10c0-1.1,0.9-2,2-2H1v4.133C1,13.164,1.731,14,2.633,14H9V10z"/>
<path class="st1" d="M9,13H2.633C2.405,13,2,12.742,2,12.133V9h7.279C9.627,8.406,10.265,8,11,8H2V3.867C2,3.258,2.405,3,2.633,3
	h3.488L8.04,5H13c0.552,0,1,0.448,1,1v2h1V6c0-1.105-0.895-2-2-2H8.467L6.843,2.308C6.655,2.111,6.394,2,6.122,2H2.633
	C1.731,2,1,2.836,1,3.867v8.267C1,13.164,1.731,14,2.633,14H9V13z"/>
<path class="st2" d="M12,12h2v-1h-2V12z"/>
<path class="st2" d="M12,14h2v-1h-2V14z"/>
<path class="st3" d="M10,10c0-0.552,0.448-1,1-1h4c0.552,0,1,0.448,1,1v5c0,0.552-0.448,1-1,1h-4c-0.552,0-1-0.448-1-1V10z M11,10h4
	v5h-4V10z"/>
</svg>
