<?xml version="1.0" encoding="utf-8"?>
<!-- Generator: Adobe Illustrator 24.1.0, SVG Export Plug-In . SVG Version: 6.00 Build 0)  -->
<svg version="1.1" id="Layer_1" xmlns="http://www.w3.org/2000/svg" xmlns:xlink="http://www.w3.org/1999/xlink" x="0px" y="0px"
	 width="16px" height="16px" viewBox="0 0 16 16" style="enable-background:new 0 0 16 16;" xml:space="preserve">
<style type="text/css">
	.st0{fill:none;}
	.st1{fill:#3F51B5;}
</style>
<rect id="frame" class="st0" width="16" height="16"/>
<path class="st1" d="M8.06,1C3.72,3.48,1.02,8.11,1,13.15c4.54,2.5,9.87,2.42,14,0.03c0-0.01,0-0.02,0-0.04
	C14.99,8.13,12.35,3.5,8.06,1L8.06,1z M10.39,6.36c0.64,0.44,0.55,1.51,0.44,2.23c-0.13,0.8-0.89,2.12-1.88,2.98
	c0.13,0.19,0.2,0.41,0.2,0.66c-0.61,0.31-1.22-0.04-1.96-0.68c-0.74-0.64-1.53-1.91-1.79-3.22C5.18,8.36,4.94,8.31,4.73,8.18
	c0.05-0.73,0.83-1.17,1.51-1.43c0.68-0.26,2.45-0.34,3.69,0.1C10.02,6.65,10.19,6.47,10.39,6.36L10.39,6.36z"/>
</svg>
