<?xml version="1.0" encoding="utf-8"?>
<!-- Generator: Adobe Illustrator 27.2.0, SVG Export Plug-In . SVG Version: 6.00 Build 0)  -->
<svg version="1.1" id="Layer_1" xmlns="http://www.w3.org/2000/svg" xmlns:xlink="http://www.w3.org/1999/xlink" x="0px" y="0px"
	 viewBox="0 0 16 16" style="enable-background:new 0 0 16 16;" xml:space="preserve">
<style type="text/css">
	.st0{fill-rule:evenodd;clip-rule:evenodd;fill:#FFFFFF;}
</style>
<path class="st0" d="M5,4v8c0,0.552,0.448,1,1,1h4c0.552,0,1-0.448,1-1V4c0-0.552-0.448-1-1-1H6C5.448,3,5,3.448,5,4z M4,12V4
	c0-1.105,0.895-2,2-2h4c1.105,0,2,0.895,2,2v8c0,1.105-0.895,2-2,2H6C4.895,14,4,13.105,4,12z"/>
<path class="st0" d="M1,4.5C1,4.224,1.224,4,1.5,4H4v1H1.5C1.224,5,1,4.776,1,4.5z M12,4h2.5C14.776,4,15,4.224,15,4.5
	S14.776,5,14.5,5H12V4z M1,8c0-0.276,0.224-0.5,0.5-0.5H4v1H1.5C1.224,8.5,1,8.276,1,8z M12,7.5h2.5C14.776,7.5,15,7.724,15,8
	s-0.224,0.5-0.5,0.5H12V7.5z M1,11.5C1,11.224,1.224,11,1.5,11H4v1H1.5C1.224,12,1,11.776,1,11.5z M12,11h2.5
	c0.276,0,0.5,0.224,0.5,0.5S14.776,12,14.5,12H12V11z"/>
</svg>
