<?xml version="1.0" encoding="utf-8"?>
<!-- Generator: Adobe Illustrator 27.2.0, SVG Export Plug-In . SVG Version: 6.00 Build 0)  -->
<svg version="1.1" id="Layer_1" xmlns="http://www.w3.org/2000/svg" xmlns:xlink="http://www.w3.org/1999/xlink" x="0px" y="0px"
	 viewBox="0 0 16 16" style="enable-background:new 0 0 16 16;" xml:space="preserve">
<style type="text/css">
	.st0{fill:#3D3223;}
	.st1{fill:#BA9752;}
</style>
<g>
	<path class="st0" d="M11.25,10.75c-0.694,0-1.208-0.327-1.705-0.645C9.077,9.808,8.594,9.5,8,9.5s-1.077,0.308-1.544,0.605
		C5.958,10.423,5.444,10.75,4.75,10.75c-2.768,0-3.195-1.894-3.244-3.975C1.945,6.824,2.14,6.937,2.304,7.031
		C2.473,7.128,2.683,7.25,3,7.25c0.417,0,0.667-0.333,0.956-0.719C4.384,5.96,4.917,5.25,6,5.25c0.705,0,1.103,0.282,1.393,0.487
		C7.583,5.873,7.764,6,8,6s0.417-0.127,0.607-0.263C8.897,5.532,9.295,5.25,10,5.25c1.083,0,1.616,0.71,2.045,1.281
		C12.334,6.917,12.583,7.25,13,7.25c0.317,0,0.527-0.122,0.696-0.219c0.164-0.095,0.358-0.208,0.798-0.256
		C14.445,8.856,14.018,10.75,11.25,10.75z"/>
	<path class="st1" d="M10,5.75c0.774,0,1.17,0.448,1.644,1.081C11.951,7.241,12.333,7.75,13,7.75c0.451,0,0.749-0.172,0.946-0.286
		c0.004-0.002,0.008-0.005,0.012-0.007c-0.151,1.854-0.768,2.793-2.709,2.793c-0.548,0-0.96-0.262-1.437-0.566
		C9.31,9.363,8.739,9,8,9S6.69,9.363,6.187,9.684C5.71,9.988,5.298,10.25,4.75,10.25c-1.941,0-2.558-0.939-2.709-2.793
		C2.046,7.459,2.05,7.462,2.054,7.464C2.251,7.578,2.549,7.75,3,7.75c0.667,0,1.049-0.509,1.356-0.919C4.83,6.198,5.226,5.75,6,5.75
		c0.545,0,0.842,0.21,1.104,0.395C7.327,6.303,7.605,6.5,8,6.5c0.395,0,0.673-0.197,0.896-0.355C9.158,5.96,9.455,5.75,10,5.75
		 M10,4.75c-1.25,0-1.75,0.75-2,0.75S7.25,4.75,6,4.75c-2,0-2.5,2-3,2s-0.5-0.5-2-0.5c0,1.75,0,5,3.75,5C6.271,11.25,7,10,8,10
		s1.729,1.25,3.25,1.25C15,11.25,15,8,15,6.25c-1.5,0-1.5,0.5-2,0.5S12,4.75,10,4.75L10,4.75z"/>
</g>
</svg>
