<?xml version="1.0" encoding="UTF-8" standalone="no"?>
<!-- Generator: Adobe Illustrator 24.1.0, SVG Export Plug-In . SVG Version: 6.00 Build 0)  -->

<svg
   version="1.1"
   id="Layer_1"
   x="0px"
   y="0px"
   width="16px"
   height="16px"
   viewBox="0 0 16 16"
   style="enable-background:new 0 0 16 16;"
   xml:space="preserve"
   sodipodi:docname="vscodeFolder-new.svg"
   inkscape:version="1.3 (0e150ed6c4, 2023-07-21)"
   xmlns:inkscape="http://www.inkscape.org/namespaces/inkscape"
   xmlns:sodipodi="http://sodipodi.sourceforge.net/DTD/sodipodi-0.dtd"
   xmlns="http://www.w3.org/2000/svg"
   xmlns:svg="http://www.w3.org/2000/svg"><defs
   id="defs1"><inkscape:path-effect
     effect="offset"
     id="path-effect5"
     is_visible="true"
     lpeversion="1.2"
     linejoin_type="miter"
     unit="px"
     offset="1"
     miter_limit="4"
     attempt_force_join="false"
     update_on_knot_move="true" /><inkscape:path-effect
     effect="offset"
     id="path-effect2"
     is_visible="true"
     lpeversion="1.2"
     linejoin_type="miter"
     unit="px"
     offset="1"
     miter_limit="4"
     attempt_force_join="false"
     update_on_knot_move="true" /></defs><sodipodi:namedview
   id="namedview1"
   pagecolor="#505050"
   bordercolor="#ffffff"
   borderopacity="1"
   inkscape:showpageshadow="0"
   inkscape:pageopacity="0"
   inkscape:pagecheckerboard="1"
   inkscape:deskcolor="#505050"
   showgrid="true"
   inkscape:zoom="45.254834"
   inkscape:cx="12.716874"
   inkscape:cy="7.9218056"
   inkscape:window-width="2560"
   inkscape:window-height="1369"
   inkscape:window-x="-8"
   inkscape:window-y="-8"
   inkscape:window-maximized="1"
   inkscape:current-layer="Layer_1"><inkscape:grid
     id="grid1"
     units="px"
     originx="0"
     originy="0"
     spacingx="1"
     spacingy="1"
     empcolor="#0099e5"
     empopacity="0.30196078"
     color="#0099e5"
     opacity="0.14901961"
     empspacing="5"
     dotted="false"
     gridanglex="30"
     gridanglez="30"
     visible="true" /></sodipodi:namedview>&#10;<style
   type="text/css"
   id="style1">&#10;	.st0{fill:none;}&#10;	.st1{fill-rule:evenodd;clip-rule:evenodd;fill:#9AA7B0;fill-opacity:0.8;}&#10;</style>&#10;<rect
   id="frame"
   class="st0"
   width="16"
   height="16" />&#10;<path
   id="path1"
   class="st1"
   d="M 1 2 L 1 13 L 6 13 L 6 12.917969 L 6 10.101562 L 6 9.5 L 6 8.0800781 L 8.625 6.8886719 L 10.537109 8.1132812 L 13.460938 5.8789062 L 15 6.4121094 L 15 4 L 7.9902344 4 L 6.6992188 2.7109375 C 6.2192196 2.2909383 5.6204674 2.03 4.9804688 2 L 1 2 z " />&#10;<g
   data-name="Layer 1"
   id="g4"
   transform="matrix(0.25000001,0,0,0.25000001,6.4999996,5.4999997)"
   style="display:inline;stroke:none;stroke-width:4;stroke-linejoin:miter;stroke-dasharray:none;stroke-opacity:1;paint-order:normal"><path
     fill="#40b6e0"
     d="M 12.939,24.348 8.011,27.576 4,25.755 V 14.243 L 8.017,12.419 28.472,25.512 30,24.64 v -9.283 h -2 v 7.431 L 8.176,10.099 2,12.902 v 14.193 l 6.183,2.806 6.451,-4.225 z"
     id="path3"
     style="stroke:none;stroke-width:4;stroke-linejoin:miter;stroke-dasharray:none;stroke-opacity:1;paint-order:normal" /><path
     fill="#40b6e0"
     d="M 28.565,6 18.074,14.012 19.898,15.18 28.919,8.292 36,10.743 V 29.254 L 28.926,31.703 8.606,15.784 7,16.601 v 7.31 H 9 V 18.677 L 28.559,34 38,30.732 V 9.266 Z"
     id="path4"
     style="display:inline;stroke:none;stroke-width:4;stroke-linejoin:miter;stroke-dasharray:none;stroke-opacity:1;paint-order:normal" /></g></svg>
