<?xml version="1.0" encoding="utf-8"?>
<!-- Generator: Adobe Illustrator 27.2.0, SVG Export Plug-In . SVG Version: 6.00 Build 0)  -->
<svg version="1.1"
	 id="Layer_1" xmlns:svg="http://www.w3.org/2000/svg" xmlns:sodipodi="http://sodipodi.sourceforge.net/DTD/sodipodi-0.dtd" xmlns:inkscape="http://www.inkscape.org/namespaces/inkscape" sodipodi:docname="vscodeFolder-new.svg"
	 xmlns="http://www.w3.org/2000/svg" xmlns:xlink="http://www.w3.org/1999/xlink" x="0px" y="0px" viewBox="0 0 16 16"
	 style="enable-background:new 0 0 16 16;" xml:space="preserve">
<style type="text/css">
	.st0{fill:none;}
	.st1{fill-rule:evenodd;clip-rule:evenodd;fill:#9AA7B0;fill-opacity:0.8;}
	.st2{fill:#40B6E0;}
</style>
<rect id="frame" class="st0" width="16" height="16"/>
<path class="st1" d="M4.714,9.328L7.56,8.036l2.203,1.41l3.361-2.567L15,7.529V4H7.99L6.699,2.711C6.219,2.291,5.62,2.03,4.98,2H1
	v11h3.714V9.328z"/>
<g id="g4" transform="matrix(0.25000001,0,0,0.25000001,6.4999996,5.4999997)">
	<path id="path3" class="st2" d="M9.359,30.969l-5.632,3.689l-4.584-2.081V19.421l4.591-2.085l23.377,14.963l1.746-0.997V20.694
		h-2.286v8.493L3.915,14.685l-7.058,3.203v16.221l7.066,3.207l7.373-4.829L9.359,30.969z"/>
	<path id="path4" class="st2" d="M27.217,10l-11.99,9.157l2.085,1.335l10.31-7.872l8.093,2.801v21.155l-8.085,2.799L4.407,21.182
		l-1.835,0.934v8.354h2.286v-5.982L27.21,42L38,38.265V13.733L27.217,10z"/>
</g>
</svg>
