<?xml version="1.0" encoding="utf-8"?>
<!-- Generator: Adobe Illustrator 27.2.0, SVG Export Plug-In . SVG Version: 6.00 Build 0)  -->
<svg version="1.1" id="Layer_1" xmlns="http://www.w3.org/2000/svg" xmlns:xlink="http://www.w3.org/1999/xlink" x="0px" y="0px"
	 viewBox="0 0 16 16" style="enable-background:new 0 0 16 16;" xml:space="preserve">
<style type="text/css">
	.st0{fill:#FFFFFF;}
</style>
<path class="st0" d="M8,2C7.759,3.929,6.82,4.927,5.913,5.893C4.939,6.93,4,7.929,4,10c0,2.209,1.791,4,4,4c2.209,0,4-1.791,4-4
	C12,6.5,9,3,8,2z M7,12c0-0.075,0.042-0.315,0.203-0.734c0.138-0.361,0.332-0.779,0.561-1.208C7.841,9.913,7.92,9.771,8,9.635
	c0.079,0.135,0.159,0.277,0.236,0.422c0.229,0.43,0.423,0.848,0.562,1.209C8.958,11.684,9,11.924,9,12c0,0.552-0.449,1-1,1
	S7,12.552,7,12z M9.976,12.24C9.985,12.16,10,12.082,10,12c0-0.259-0.09-0.626-0.269-1.092c-0.152-0.399-0.364-0.856-0.613-1.323
	C8.89,9.158,8.651,8.762,8.409,8.417l-0.446-0.53L7.555,8.469C7.349,8.762,7.11,9.158,6.882,9.586
	c-0.249,0.466-0.461,0.923-0.614,1.323C6.09,11.376,6,11.743,6,12c0,0.082,0.015,0.16,0.024,0.24C5.401,11.69,5,10.894,5,10
	c0-1.675,0.724-2.446,1.642-3.422c0.644-0.685,1.345-1.432,1.826-2.515C9.555,5.459,11,7.74,11,10
	C11,10.894,10.599,11.69,9.976,12.24z"/>
</svg>
