<?xml version="1.0" encoding="utf-8"?>
<!-- Generator: Adobe Illustrator 24.1.0, SVG Export Plug-In . SVG Version: 6.00 Build 0)  -->
<svg version="1.1" id="Layer_1" xmlns="http://www.w3.org/2000/svg" xmlns:xlink="http://www.w3.org/1999/xlink" x="0px" y="0px"
	 width="16px" height="16px" viewBox="0 0 16 16" style="enable-background:new 0 0 16 16;" xml:space="preserve">
<style type="text/css">
	.st0{fill:none;}
	.st1{fill-rule:evenodd;clip-rule:evenodd;fill:#9AA7B0;fill-opacity:0.8;}
	.st2{fill:#40B6E0;fill-opacity:0.7;}
</style>
<rect id="frame" class="st0" width="16" height="16"/>
<path class="st1" d="M14.49,3.92C13.22,2.17,10.92,1,8.3,1C4.29,1,1.04,3.72,1.04,7.08c0,2.59,1.94,4.81,4.67,5.68v-2.15
	C4.59,9.86,3.89,8.76,3.89,7.53c0-2.3,2.47-4.16,5.51-4.16c1.13,0,2.14,0.17,2.98,0.54C12.38,3.92,14.49,3.92,14.49,3.92z"/>
<path class="st2" d="M6.87,15h2.33v-3.5h0.58l1.66,3.5h2.42l-1.82-3.66c0.94-0.56,1.82-1.14,1.82-2.76c0-2.92-1.62-3.5-3.5-3.5h-3.5
	V15z M9.21,9.75V7.42h1.17c0.7,0,1.17,0.33,1.17,1.17c0,0.77-0.46,1.17-1.17,1.17H9.21z"/>
</svg>
