<?xml version="1.0" encoding="utf-8"?>
<!-- Generator: Adobe Illustrator 24.1.0, SVG Export Plug-In . SVG Version: 6.00 Build 0)  -->
<svg version="1.1" id="Layer_1" xmlns="http://www.w3.org/2000/svg" xmlns:xlink="http://www.w3.org/1999/xlink" x="0px" y="0px"
	 width="16px" height="16px" viewBox="0 0 16 16" style="enable-background:new 0 0 16 16;" xml:space="preserve">
<style type="text/css">
	.st0{fill:none;}
	.st1{fill-rule:evenodd;clip-rule:evenodd;fill:#F44336;fill-opacity:0.7;}
	.st2{fill-rule:evenodd;clip-rule:evenodd;fill:#9AA7B0;fill-opacity:0.8;}
	.st3{fill-rule:evenodd;clip-rule:evenodd;fill:#231F20;fill-opacity:0.7;}
</style>
<rect id="frame" class="st0" width="16" height="16"/>
<g>
	<path class="st1" d="M1,16h15V9H1V16z"/>
	<path class="st2" d="M7,1L3,5h4V1z"/>
	<path class="st2" d="M8,1v5H3v2h10V1H8z"/>
	<path class="st3" d="M4,11v3h0.65C5.58,14,6,13.49,6,12.52V12.5C6,11.52,5.58,11,4.65,11H4z M3,10h1.65C6.04,10,7,11.09,7,12.5
		C7,13.92,6.04,15,4.65,15H3V10z"/>
</g>
</svg>
