<?xml version="1.0" encoding="utf-8"?>
<!-- Generator: Adobe Illustrator 27.2.0, SVG Export Plug-In . SVG Version: 6.00 Build 0)  -->
<svg version="1.1" id="Layer_1" xmlns="http://www.w3.org/2000/svg" xmlns:xlink="http://www.w3.org/1999/xlink" x="0px" y="0px"
	 viewBox="0 0 16 16" style="enable-background:new 0 0 16 16;" xml:space="preserve">
<style type="text/css">
	.st0{fill-rule:evenodd;clip-rule:evenodd;fill:#FFFFFF;}
</style>
<path class="st0" d="M8.244,6.655c-0.19-0.219-0.275-0.51-0.234-0.797l0.493-3.45L3.11,9H7c0.29,0,0.566,0.126,0.755,0.345
	s0.275,0.51,0.234,0.797l-0.493,3.45L12.889,7H9C8.71,7,8.434,6.874,8.244,6.655z M9.746,0.775c0.072-0.501-0.561-0.779-0.882-0.387
	L1.668,9.183C1.401,9.51,1.633,10,2.055,10H7l-0.746,5.225c-0.072,0.501,0.561,0.779,0.882,0.387l7.196-8.796
	C14.599,6.49,14.366,6,13.944,6H9L9.746,0.775z"/>
</svg>
