<?xml version="1.0" encoding="utf-8"?>
<!-- Generator: Adobe Illustrator 27.2.0, SVG Export Plug-In . SVG Version: 6.00 Build 0)  -->
<svg version="1.1" id="Layer_1" xmlns="http://www.w3.org/2000/svg" xmlns:xlink="http://www.w3.org/1999/xlink" x="0px" y="0px"
	 viewBox="0 0 16 16" style="enable-background:new 0 0 16 16;" xml:space="preserve">
<style type="text/css">
	.st0{fill-rule:evenodd;clip-rule:evenodd;fill:#FFFFFF;}
</style>
<path class="st0" d="M10.691,4.435c0.007-0.077,0.01-0.156,0.01-0.235c0-1.491-1.209-2.7-2.7-2.7s-2.7,1.209-2.7,2.7
	c0,0.079,0.003,0.157,0.01,0.234C4.839,4.694,4.434,5.06,4.127,5.5L2.018,4.36C1.775,4.229,1.472,4.319,1.34,4.562
	C1.209,4.805,1.299,5.109,1.542,5.24l2.136,1.154C3.563,6.742,3.5,7.114,3.5,7.5v1H1C0.724,8.5,0.5,8.724,0.5,9S0.724,9.5,1,9.5h2.5
	V10c0,0.489,0.078,0.96,0.222,1.401L1.53,12.667c-0.239,0.138-0.321,0.444-0.183,0.683c0.138,0.239,0.444,0.321,0.683,0.183
	l2.11-1.218C4.927,13.624,6.361,14.5,8,14.5c1.638,0,3.072-0.875,3.859-2.184l2.108,1.217c0.239,0.138,0.545,0.056,0.683-0.183
	c0.138-0.239,0.056-0.545-0.183-0.683l-2.19-1.264C12.422,10.961,12.5,10.49,12.5,10V9.5H15c0.276,0,0.5-0.224,0.5-0.5
	c0-0.276-0.224-0.5-0.5-0.5h-2.5v-1c0-0.386-0.063-0.758-0.178-1.106l2.133-1.155c0.243-0.131,0.333-0.435,0.202-0.678
	c-0.132-0.243-0.435-0.333-0.678-0.202L11.873,5.5C11.566,5.061,11.162,4.695,10.691,4.435z M6.306,4.069C6.53,4.024,6.762,4,7,4h2
	c0.238,0,0.471,0.024,0.696,0.069C9.629,3.191,8.896,2.5,8.001,2.5C7.106,2.5,6.373,3.191,6.306,4.069z M4.5,7.5
	C4.5,6.119,5.619,5,7,5h2c1.381,0,2.5,1.119,2.5,2.5V10c0,1.933-1.567,3.5-3.5,3.5S4.5,11.933,4.5,10V7.5z"/>
</svg>
