<?xml version="1.0" encoding="utf-8"?>
<!-- Generator: Adobe Illustrator 27.2.0, SVG Export Plug-In . SVG Version: 6.00 Build 0)  -->
<svg version="1.1" id="Layer_1" xmlns="http://www.w3.org/2000/svg" xmlns:xlink="http://www.w3.org/1999/xlink" x="0px" y="0px"
	 viewBox="0 0 16 16" style="enable-background:new 0 0 16 16;" xml:space="preserve">
<style type="text/css">
	.st0{fill-rule:evenodd;clip-rule:evenodd;fill:#FFFFFF;}
	.st1{fill:#FFFFFF;}
</style>
<path class="st0" d="M7.02,10.291l-3.69,3.194C2.966,13.8,2.4,13.542,2.4,13.06V2.94c0-0.482,0.566-0.74,0.93-0.425l5.846,5.06
	c0.259,0.224,0.259,0.626,0,0.85L8.511,9.001c0.214,0.002,0.423,0.047,0.616,0.136c0.21-0.698,0.673-1.281,1.275-1.664
	c-0.092-0.279-0.249-0.541-0.489-0.749l-5.846-5.06C2.973,0.719,1.275,1.495,1.275,2.94v10.12c0,1.445,1.698,2.221,2.791,1.275
	l3.304-2.859C7.086,11.147,6.961,10.715,7.02,10.291z"/>
<path class="st1" d="M13.716,7.527c0.414,0.339,0.797,0.732,1.013,1.241C15.1,8.124,14.94,7.25,14.37,6.771
	c0,0-6.185-5.352-6.185-5.352c-0.482-0.43-1.152,0.338-0.654,0.756C7.531,2.175,13.716,7.527,13.716,7.527z"/>
<path class="st0" d="M14,10c0,0.085-0.005,0.168-0.016,0.25c0.139,0.123,0.267,0.259,0.381,0.405l0.857-0.571
	c0.23-0.153,0.54-0.091,0.693,0.139c0.153,0.23,0.091,0.54-0.139,0.693l-0.934,0.623C14.945,11.841,15,12.164,15,12.5V13
	c0,0.486-0.116,0.946-0.321,1.352l1.098,0.732c0.23,0.153,0.292,0.464,0.139,0.693c-0.153,0.23-0.464,0.292-0.693,0.139
	l-1.138-0.759C13.545,15.679,12.81,16,12,16s-1.545-0.321-2.085-0.843l-1.138,0.759c-0.23,0.153-0.54,0.091-0.693-0.139
	c-0.153-0.23-0.091-0.54,0.139-0.693l1.098-0.732C9.116,13.946,9,13.486,9,13v-0.5c0-0.336,0.055-0.659,0.157-0.961l-0.935-0.623
	c-0.23-0.153-0.292-0.464-0.139-0.693c0.153-0.23,0.464-0.292,0.693-0.139l0.857,0.571c0.114-0.147,0.242-0.282,0.381-0.405
	C10.005,10.168,10,10.085,10,10c0-1.105,0.895-2,2-2S14,8.895,14,10z M10.392,14.189c0.005,0.007,0.01,0.014,0.016,0.021
	C10.773,14.69,11.35,15,12,15c0.651,0,1.229-0.311,1.594-0.792c0.004-0.005,0.008-0.011,0.012-0.016C13.854,13.859,14,13.446,14,13
	v-0.5c0-1.105-0.895-2-2-2s-2,0.895-2,2V13C10,13.445,10.146,13.857,10.392,14.189z M11.063,9.649C11.205,9.27,11.571,9,12,9
	s0.795,0.27,0.937,0.649C12.642,9.552,12.327,9.5,12,9.5C11.673,9.5,11.358,9.552,11.063,9.649z"/>
</svg>
