<?xml version="1.0" encoding="utf-8"?>
<!-- Generator: Adobe Illustrator 27.2.0, SVG Export Plug-In . SVG Version: 6.00 Build 0)  -->
<svg version="1.1" id="Layer_1" xmlns="http://www.w3.org/2000/svg" xmlns:xlink="http://www.w3.org/1999/xlink" x="0px" y="0px"
	 viewBox="0 0 16 16" style="enable-background:new 0 0 16 16;" xml:space="preserve">
<style type="text/css">
	.st0{fill:#FFFFFF;}
	.st1{fill-rule:evenodd;clip-rule:evenodd;fill:#FFFFFF;}
</style>
<path class="st0" d="M13,2H3C1.897,2,1,2.897,1,4v8c0,1.103,0.897,2,2,2h5.126C8.044,13.693,8,13.321,8,13H3c-0.551,0-1-0.448-1-1V6
	h12v1.778c0.403,0.363,0.713,0.827,0.873,1.359L15,9.094V4C15,2.897,14.103,2,13,2z M2,5V4c0-0.551,0.449-1,1-1h10
	c0.552,0,1,0.449,1,1v1H2z"/>
<path class="st1" d="M14,10c0,0.085-0.005,0.168-0.016,0.25c0.139,0.123,0.267,0.259,0.381,0.405l0.857-0.571
	c0.23-0.153,0.54-0.091,0.693,0.139c0.153,0.23,0.091,0.54-0.139,0.693l-0.934,0.623C14.945,11.841,15,12.164,15,12.5V13
	c0,0.486-0.116,0.946-0.321,1.352l1.098,0.732c0.23,0.153,0.292,0.464,0.139,0.693c-0.153,0.23-0.464,0.292-0.693,0.139
	l-1.138-0.759C13.545,15.679,12.81,16,12,16s-1.545-0.321-2.085-0.843l-1.138,0.759c-0.23,0.153-0.54,0.091-0.693-0.139
	c-0.153-0.23-0.091-0.54,0.139-0.693l1.098-0.732C9.116,13.946,9,13.486,9,13v-0.5c0-0.336,0.055-0.659,0.157-0.961l-0.935-0.623
	c-0.23-0.153-0.292-0.464-0.139-0.693c0.153-0.23,0.464-0.292,0.693-0.139l0.857,0.571c0.114-0.147,0.242-0.282,0.381-0.405
	C10.005,10.168,10,10.085,10,10c0-1.105,0.895-2,2-2S14,8.895,14,10z M10.392,14.189c0.005,0.007,0.01,0.014,0.016,0.021
	C10.773,14.69,11.35,15,12,15c0.651,0,1.229-0.311,1.594-0.792c0.004-0.005,0.008-0.011,0.012-0.016C13.854,13.859,14,13.446,14,13
	v-0.5c0-1.105-0.895-2-2-2s-2,0.895-2,2V13C10,13.445,10.146,13.857,10.392,14.189z M11.063,9.649C11.205,9.27,11.571,9,12,9
	s0.795,0.27,0.937,0.649C12.642,9.552,12.327,9.5,12,9.5C11.673,9.5,11.358,9.552,11.063,9.649z"/>
</svg>
