<?xml version="1.0" encoding="utf-8"?>
<!-- Generator: Adobe Illustrator 27.2.0, SVG Export Plug-In . SVG Version: 6.00 Build 0)  -->
<svg version="1.1" id="Layer_1" xmlns="http://www.w3.org/2000/svg" xmlns:xlink="http://www.w3.org/1999/xlink" x="0px" y="0px"
	 viewBox="0 0 16 16" style="enable-background:new 0 0 16 16;" xml:space="preserve">
<style type="text/css">
	.st0{fill-rule:evenodd;clip-rule:evenodd;fill:#FFFFFF;}
	.st1{fill:#FFFFFF;}
</style>
<path class="st0" d="M10.403,3.051C9.677,2.698,8.862,2.5,8,2.5C4.962,2.5,2.5,4.962,2.5,8c0,0.862,0.198,1.677,0.551,2.403
	L3.81,9.645C3.61,9.135,3.5,8.58,3.5,8c0-2.485,2.015-4.5,4.5-4.5c0.58,0,1.135,0.11,1.645,0.31L10.403,3.051z M6.355,12.19
	C6.865,12.39,7.419,12.5,8,12.5c2.485,0,4.5-2.015,4.5-4.5c0-0.58-0.11-1.135-0.31-1.644l0.759-0.759
	C13.302,6.323,13.5,7.138,13.5,8c0,3.038-2.462,5.5-5.5,5.5c-0.862,0-1.677-0.198-2.403-0.551L6.355,12.19z"/>
<path class="st1" d="M14.01,1.99L14.01,1.99c0.195,0.195,0.195,0.512,0,0.707L2.697,14.01c-0.195,0.195-0.512,0.195-0.707,0l0,0
	c-0.195-0.195-0.195-0.512,0-0.707L13.303,1.99C13.498,1.794,13.815,1.794,14.01,1.99z"/>
</svg>
