<?xml version="1.0" encoding="utf-8"?>
<!-- Generator: Adobe Illustrator 27.2.0, SVG Export Plug-In . SVG Version: 6.00 Build 0)  -->
<svg version="1.1" id="Layer_1" xmlns="http://www.w3.org/2000/svg" xmlns:xlink="http://www.w3.org/1999/xlink" x="0px" y="0px"
	 viewBox="0 0 16 16" style="enable-background:new 0 0 16 16;" xml:space="preserve">
<style type="text/css">
	.st0{fill-rule:evenodd;clip-rule:evenodd;fill:#FFFFFF;}
	.st1{fill:#FFFFFF;}
</style>
<path class="st0" d="M9.912,6.724c0.777,0.673,0.777,1.878,0,2.551l-5.846,5.06c-1.093,0.946-2.791,0.169-2.791-1.275V2.94
	c0-1.445,1.698-2.221,2.791-1.276L9.912,6.724z M9.176,8.425c0.259-0.224,0.259-0.626,0-0.85L3.33,2.515
	C2.966,2.2,2.4,2.458,2.4,2.94v10.12c0,0.482,0.566,0.74,0.93,0.425L9.176,8.425z"/>
<path class="st1" d="M7.898,14.668c-0.14,0-0.279-0.059-0.378-0.173c-0.181-0.209-0.158-0.524,0.051-0.705l6.145-5.318
	c0.139-0.12,0.215-0.288,0.216-0.472c0-0.184-0.077-0.352-0.216-0.473L7.531,2.175C7.322,1.995,7.3,1.679,7.48,1.47
	c0.181-0.209,0.496-0.231,0.705-0.051l6.185,5.352C14.727,7.081,14.932,7.528,14.932,8c-0.001,0.472-0.205,0.919-0.562,1.228
	l-6.145,5.317C8.131,14.628,8.015,14.668,7.898,14.668z"/>
</svg>
