<?xml version="1.0" encoding="utf-8"?>
<!-- Generator: Adobe Illustrator 27.2.0, SVG Export Plug-In . SVG Version: 6.00 Build 0)  -->
<svg version="1.1" id="Layer_1" xmlns="http://www.w3.org/2000/svg" xmlns:xlink="http://www.w3.org/1999/xlink" x="0px" y="0px"
	 viewBox="0 0 16 16" style="enable-background:new 0 0 16 16;" xml:space="preserve">
<style type="text/css">
	.st0{fill:#FFFFFF;}
	.st1{fill-rule:evenodd;clip-rule:evenodd;fill:#FFFFFF;}
</style>
<path class="st0" d="M8,11.465L4.25,13.63c-0.225,0.131-0.424,0.043-0.5-0.001c-0.075-0.043-0.25-0.172-0.25-0.433V2.804
	c0-0.26,0.175-0.39,0.25-0.433c0.046-0.026,0.137-0.068,0.252-0.068c0.074,0,0.159,0.018,0.248,0.069l8.053,4.649
	C12.368,7.011,12.432,7,12.5,7h1.61c-0.104-0.114-0.22-0.219-0.36-0.299l-9-5.196c-0.469-0.271-1.03-0.271-1.5,0
	C2.78,1.776,2.5,2.261,2.5,2.804v10.393c0,0.542,0.28,1.027,0.75,1.299c0.235,0.136,0.493,0.204,0.75,0.204
	c0.257,0,0.515-0.068,0.75-0.204L8,12.619V11.465z"/>
<path class="st1" d="M12.146,8.146c0.195-0.195,0.512-0.195,0.707,0l3,3c0.195,0.195,0.195,0.512,0,0.707
	c-0.195,0.195-0.512,0.195-0.707,0L13,9.707V15.5c0,0.276-0.224,0.5-0.5,0.5S12,15.776,12,15.5V9.707l-2.146,2.146
	c-0.195,0.195-0.512,0.195-0.707,0c-0.195-0.195-0.195-0.512,0-0.707L12.146,8.146z"/>
</svg>
