<?xml version="1.0" encoding="utf-8"?>
<!-- Generator: Adobe Illustrator 27.2.0, SVG Export Plug-In . SVG Version: 6.00 Build 0)  -->
<svg version="1.1" id="Layer_1" xmlns="http://www.w3.org/2000/svg" xmlns:xlink="http://www.w3.org/1999/xlink" x="0px" y="0px"
	 viewBox="0 0 16 16" style="enable-background:new 0 0 16 16;" xml:space="preserve">
<style type="text/css">
	.st0{fill:#6C707E;}
	.st1{fill-rule:evenodd;clip-rule:evenodd;fill:#3574F0;}
</style>
<path class="st0" d="M2.5,14h11c0.276,0,0.5,0.224,0.5,0.5l0,0c0,0.276-0.224,0.5-0.5,0.5h-11C2.224,15,2,14.776,2,14.5l0,0
	C2,14.224,2.224,14,2.5,14z"/>
<path class="st1" d="M12.354,7.654c0.195-0.195,0.195-0.512,0-0.707c-0.195-0.195-0.512-0.195-0.707,0L8.5,10.093V2
	c0-0.276-0.224-0.5-0.5-0.5S7.5,1.724,7.5,2v8.093L4.354,6.946c-0.195-0.195-0.512-0.195-0.707,0c-0.195,0.195-0.195,0.512,0,0.707
	l4,4L8,12.007l0.354-0.354L12.354,7.654z"/>
</svg>
