<?xml version="1.0" encoding="utf-8"?>
<!-- Generator: Adobe Illustrator 27.2.0, SVG Export Plug-In . SVG Version: 6.00 Build 0)  -->
<svg version="1.1" id="Layer_1" xmlns="http://www.w3.org/2000/svg" xmlns:xlink="http://www.w3.org/1999/xlink" x="0px" y="0px"
	 viewBox="0 0 16 16" style="enable-background:new 0 0 16 16;" xml:space="preserve">
<style type="text/css">
	.st0{fill:#CED0D6;}
	.st1{fill-rule:evenodd;clip-rule:evenodd;fill:#548AF7;}
</style>
<path class="st0" d="M2.5,14h11c0.276,0,0.5,0.224,0.5,0.5l0,0c0,0.276-0.224,0.5-0.5,0.5h-11C2.224,15,2,14.776,2,14.5l0,0
	C2,14.224,2.224,14,2.5,14z"/>
<path class="st1" d="M13.982,4.227c-0.001-0.276-0.226-0.499-0.502-0.498c-0.276,0.001-0.499,0.226-0.498,0.502l0.013,4.079
	L7.836,3.63L7.483,3.31L7.146,3.647l-5,5c-0.195,0.195-0.195,0.512,0,0.707s0.512,0.195,0.707,0L7.517,4.69l4.725,4.285L8.255,8.988
	C7.979,8.989,7.756,9.214,7.757,9.49c0.001,0.276,0.226,0.499,0.502,0.498l5.243-0.017l0.5-0.002L14,9.469L13.982,4.227z"/>
</svg>
