<?xml version="1.0" encoding="utf-8"?>
<!-- Generator: Adobe Illustrator 27.2.0, SVG Export Plug-In . SVG Version: 6.00 Build 0)  -->
<svg version="1.1" id="Layer_1" xmlns="http://www.w3.org/2000/svg" xmlns:xlink="http://www.w3.org/1999/xlink" x="0px" y="0px"
	 viewBox="0 0 16 16" style="enable-background:new 0 0 16 16;" xml:space="preserve">
<style type="text/css">
	.st0{fill:#6C707E;}
	.st1{fill-rule:evenodd;clip-rule:evenodd;fill:#DB3B4B;}
</style>
<path class="st0" d="M2.5,14h11c0.276,0,0.5,0.224,0.5,0.5l0,0c0,0.276-0.224,0.5-0.5,0.5h-11C2.224,15,2,14.776,2,14.5l0,0
	C2,14.224,2.224,14,2.5,14z"/>
<path class="st1" d="M2.002,9.469L2,9.969l0.5,0.002l5.243,0.017C8.019,9.989,8.243,9.766,8.244,9.49
	c0.001-0.276-0.222-0.501-0.498-0.502L3.759,8.975L8.484,4.69l4.663,4.663c0.195,0.195,0.512,0.195,0.707,0s0.195-0.512,0-0.707
	l-5-5L8.518,3.31L8.165,3.63l-5.16,4.679L3.019,4.23C3.02,3.954,2.797,3.729,2.52,3.728C2.244,3.727,2.02,3.951,2.019,4.227
	L2.002,9.469z"/>
</svg>
