<?xml version="1.0" encoding="utf-8"?>
<!-- Generator: Adobe Illustrator 24.1.0, SVG Export Plug-In . SVG Version: 6.00 Build 0)  -->
<svg version="1.1" id="Layer_1" xmlns="http://www.w3.org/2000/svg" xmlns:xlink="http://www.w3.org/1999/xlink" x="0px" y="0px"
	 width="16px" height="16px" viewBox="0 0 16 16" style="enable-background:new 0 0 16 16;" xml:space="preserve">
<style type="text/css">
	.st0{fill:none;}
	.st1{fill:#FFFFFE;}
	.st2{fill-rule:evenodd;clip-rule:evenodd;fill:#9AA7B0;}
</style>
<rect id="frame" class="st0" width="16" height="16"/>
<polygon class="st1" points="13.09998,2.90002 6.09998,1 1,6.09998 2,6.09998 9,4.09998 8,7.54999 8,14.48425 9.90002,15 
	15,9.90002 "/>
<path class="st2" d="M7,9.9052H6.03125V8.80507c0-1.02896-0.77594-1.94754-1.83219-2.0461
	C2.98844,6.64859,1.96875,7.5711,1.96875,8.72228V9.9052H1V15h6V9.9052z M2.78125,9.9052V8.72228
	c0-0.65444,0.54437-1.18271,1.21875-1.18271c0.67437,0,1.21875,0.52827,1.21875,1.18271V9.9052H2.78125z"/>
</svg>
