<?xml version="1.0" encoding="utf-8"?>
<!-- Generator: Adobe Illustrator 27.2.0, SVG Export Plug-In . SVG Version: 6.00 Build 0)  -->
<svg version="1.1" id="Layer_1" xmlns="http://www.w3.org/2000/svg" xmlns:xlink="http://www.w3.org/1999/xlink" x="0px" y="0px"
	 viewBox="0 0 16 16" style="enable-background:new 0 0 16 16;" xml:space="preserve">
<style type="text/css">
	.st0{fill:none;}
	.st1{fill-rule:evenodd;clip-rule:evenodd;fill:#9AA7B0;fill-opacity:0.8;}
	.st2{opacity:0.95;}
	.st3{fill:#D7DADE;enable-background:new    ;}
	.st4{fill:#FFFFFF;}
</style>
<rect id="frame" class="st0" width="16" height="16"/>
<g>
	<path class="st1" d="M7,1L3,5h4V1z"/>
	<g>
		<path class="st1" d="M5.883,9.981l4.098-4.098C10.395,5.995,11.724,6.356,13,6.703V1H8v5H3v9h4.245L5.883,9.981z"/>
		<polygon class="st1" points="9.571,10.768 10.362,11.544 10.679,10.451 		"/>
	</g>
</g>
<g class="st2">
	<path class="st3" d="M14.779,8.221L10.279,7L7,10.279l1.221,4.5l4.5,1.221L16,12.721L14.779,8.221z M10.857,13.429l-3.214-3.15
		l4.5-1.286L10.857,13.429z"/>
	<polygon class="st4" points="12.143,8.993 10.857,13.429 7.643,10.279 	"/>
</g>
</svg>
