<?xml version="1.0" encoding="utf-8"?>
<!-- Generator: Adobe Illustrator 24.1.0, SVG Export Plug-In . SVG Version: 6.00 Build 0)  -->
<svg version="1.1" id="Layer_1" xmlns="http://www.w3.org/2000/svg" xmlns:xlink="http://www.w3.org/1999/xlink" x="0px" y="0px"
	 width="16px" height="16px" viewBox="0 0 16 16" style="enable-background:new 0 0 16 16;" xml:space="preserve">
<style type="text/css">
	.st0{fill:none;}
	.st1{fill-rule:evenodd;clip-rule:evenodd;fill:#9AA7B0;fill-opacity:0.8;}
	.st2{fill:#FFFFFE;enable-background:new    ;}
</style>
<rect id="frame" class="st0" width="16" height="16"/>
<g>
	<path class="st1" d="M7,1L3,5h4V1z"/>
	<polygon class="st1" points="6.14,10.51 6.01,10.02 6.37,9.65 9.65,6.37 10.02,6.01 10.51,6.14 13,6.82 13,1 8,1 8,6 3,6 3,15 
		7.36,15 	"/>
</g>
<path class="st2" d="M14.78,8.22L10.28,7L7,10.28l1.22,4.5l4.5,1.22L16,12.72L14.78,8.22z M10.86,13.43l-3.21-3.15l4.5-1.29
	L10.86,13.43z"/>
</svg>
