<?xml version="1.0" encoding="utf-8"?>
<!-- Generator: Adobe Illustrator 27.2.0, SVG Export Plug-In . SVG Version: 6.00 Build 0)  -->
<svg version="1.1" id="Layer_1" xmlns="http://www.w3.org/2000/svg" xmlns:xlink="http://www.w3.org/1999/xlink" x="0px" y="0px"
	 viewBox="0 0 16 16" style="enable-background:new 0 0 16 16;" xml:space="preserve">
<style type="text/css">
	.st0{fill:none;}
	.st1{opacity:0.95;}
	.st2{fill:#32373C;enable-background:new    ;}
	.st3{fill:#FFFFFF;}
	.st4{fill-rule:evenodd;clip-rule:evenodd;fill:#9AA7B0;}
</style>
<rect id="frame" class="st0" width="16" height="16"/>
<g class="st1">
	<g>
		<path class="st2" d="M13.1,2.9L6.1,1L1,6.1l0.335,1.234C1.477,7.073,1.647,6.825,1.869,6.61C1.98,6.502,2.104,6.412,2.228,6.323
			L2,6.1l7-2L7.607,8.905H8v5.579L9.9,15L15,9.9L13.1,2.9z"/>
	</g>
	<path class="st3" d="M4.003,5.75C4.003,5.75,4.003,5.75,4.003,5.75c0.095,0,0.191,0.004,0.289,0.013
		c1.536,0.143,2.739,1.479,2.739,3.042v0.1h0.576L9,4.1l-7,2l0.228,0.223C2.743,5.956,3.355,5.75,4.003,5.75z"/>
</g>
<path class="st4" d="M7,9.905H6.031v-1.1c0-1.029-0.776-1.948-1.832-2.046c-1.211-0.11-2.23,0.812-2.23,1.963v1.183H1V15h6V9.905z
	 M2.781,9.905V8.722C2.781,8.068,3.326,7.54,4,7.54c0.674,0,1.219,0.528,1.219,1.183v1.183H2.781z"/>
</svg>
