<?xml version="1.0" encoding="utf-8"?>
<!-- Generator: Adobe Illustrator 24.1.0, SVG Export Plug-In . SVG Version: 6.00 Build 0)  -->
<svg version="1.1" id="Layer_1" xmlns="http://www.w3.org/2000/svg" xmlns:xlink="http://www.w3.org/1999/xlink" x="0px" y="0px"
	 width="16px" height="16px" viewBox="0 0 16 16" style="enable-background:new 0 0 16 16;" xml:space="preserve">
<style type="text/css">
	.st0{fill-rule:evenodd;clip-rule:evenodd;fill:#BC9662;fill-opacity:0.7;}
	.st1{fill-rule:evenodd;clip-rule:evenodd;fill:#9AA7B0;fill-opacity:0.8;}
	.st2{fill-rule:evenodd;clip-rule:evenodd;fill:#62B543;}
	.st3{fill-rule:evenodd;clip-rule:evenodd;fill:#40B6E0;}
	.st4{fill-rule:evenodd;clip-rule:evenodd;fill:#231F20;fill-opacity:0.7;}
</style>
<g>
	<polygon class="st0" points="7,16 16,16 16,9 7,9 	"/>
	<polygon class="st1" points="1,13 3,13 3,3 1,3 	"/>
	<polygon class="st2" points="4,13 6,13 6,3 4,3 	"/>
	<polygon class="st3" points="10,8 12,8 12,3 10,3 	"/>
	<path class="st1" d="M7,8V0.999h2V8H7z M13,8V5h2v3H13z"/>
</g>
<path class="st4" d="M12.91894,11.502c0-0.369,0.25612-0.502,0.71812-0.502h0.95118v-1h-0.93882
	c-0.89106,0-1.53176,0.46-1.53176,1.45c0,0.865,0.34588,1.24,1.21141,1.466c0.63412,0.165,0.84412,0.313,0.84412,0.632
	c0,0.32-0.29482,0.452-0.84412,0.452h-0.96435v1h0.96435C15,15,15,14,15,13.548c0-0.632-0.39529-1.127-1.10435-1.401
	C13.18576,11.873,12.91894,11.87,12.91894,11.502z"/>
<path class="st4" d="M8,15v-5h1.64706c0.95529,0,1.64706,0.6,1.64706,1.61s-0.23882,1.51-0.80706,1.71L11.50824,15h-0.93059
	l-1.00471-1.6H8.82353V15H8z M8.82353,12.47h0.91412c0.44471,0,0.73294-0.29,0.73294-0.73v-0.01c0-0.47-0.27176-0.73-0.73294-0.73
	H8.82353V12.47z"/>
</svg>
