<?xml version="1.0" encoding="utf-8"?>
<!-- Generator: Adobe Illustrator 24.1.0, SVG Export Plug-In . SVG Version: 6.00 Build 0)  -->
<svg version="1.1" id="Layer_1" xmlns="http://www.w3.org/2000/svg" xmlns:xlink="http://www.w3.org/1999/xlink" x="0px" y="0px"
	 width="16px" height="16px" viewBox="0 0 16 16" style="enable-background:new 0 0 16 16;" xml:space="preserve">
<style type="text/css">
	.st0{fill:none;}
	.st1{fill-rule:evenodd;clip-rule:evenodd;fill:#9AA7B0;fill-opacity:0.8;}
	.st2{fill-rule:evenodd;clip-rule:evenodd;fill:#BC9662;fill-opacity:0.7;}
	.st3{fill-rule:evenodd;clip-rule:evenodd;fill:#231F20;fill-opacity:0.7;}
</style>
<rect id="frame" class="st0" width="16" height="16"/>
<g>
	<path class="st1" d="M7,1L3,5h4V1z"/>
	<path class="st1" d="M8,1v5H3v2h10V1H8z"/>
	<path class="st2" d="M1,16h15V9H1V16z"/>
	<path class="st3" d="M8.973,11.502C8.973,11.133,9.284,11,9.845,11H11v-1H9.86C8.778,10,8,10.46,8,11.45
		c0,0.865,0.42,1.24,1.471,1.466c0.77,0.165,1.025,0.313,1.025,0.632c0,0.32-0.358,0.452-1.025,0.452H8.3v1h1.171
		c2.029,0,2.029-1,2.029-1.452c0-0.632-0.48-1.127-1.341-1.401C9.297,11.873,8.973,11.87,8.973,11.502z"/>
	<path class="st3" d="M3,15v-5h2c1.16,0,2,0.6,2,1.61s-0.29,1.51-0.98,1.71L7.26,15H6.13l-1.22-1.6H4V15H3z M4,12.47h1.11
		c0.54,0,0.89-0.29,0.89-0.73v-0.01C6,11.26,5.67,11,5.11,11H4V12.47z"/>
</g>
</svg>
