<?xml version="1.0" encoding="utf-8"?>
<!-- Generator: Adobe Illustrator 24.1.0, SVG Export Plug-In . SVG Version: 6.00 Build 0)  -->
<svg version="1.1" id="Layer_1" xmlns="http://www.w3.org/2000/svg" xmlns:xlink="http://www.w3.org/1999/xlink" x="0px" y="0px"
	 width="16px" height="16px" viewBox="0 0 16 16" style="enable-background:new 0 0 16 16;" xml:space="preserve">
<style type="text/css">
	.st0{fill:none;}
	.st1{fill-rule:evenodd;clip-rule:evenodd;fill:#9AA7B0;fill-opacity:0.8;}
	.st2{fill-rule:evenodd;clip-rule:evenodd;fill:#9AA7B0;}
</style>
<rect id="frame" class="st0" width="16" height="16"/>
<path class="st1" d="M7.99,4L6.7,2.71C6.22,2.29,5.62,2.03,4.98,2H1.05C1.02,2,1,2.02,1,2.05V13h5.46C6.16,12.38,6,11.69,6,11
	c0.06-1.14,0.48-2.17,1.14-3H2V3h3c0.28,0,0.78,0.21,0.97,0.4l1.3,1.3L7.57,5H14v1.56c0.35,0.16,0.69,0.35,1,0.58V4H7.99z"/>
<g id="Layer_3">
	<path class="st2" d="M16,11L16,11c-1.41-0.75-3.09-0.75-4.5-0.01v-0.01c0-0.88,1.27-1.86,2.05-2.08C15.51,8.35,16,10.26,16,11z
		 M9.45,13.09c0.78-0.22,2.05-1.2,2.05-2.08V11c-1.41,0.75-3.09,0.75-4.5,0l0,0C7,11.74,7.49,13.65,9.45,13.09L9.45,13.09z"/>
	<path class="st2" d="M9.25,7.38L9.25,7.38c0,0.74,0.21,1.47,0.61,2.1c0.4,0.64,0.97,1.17,1.64,1.52h-0.01
		c-1.03,0.29-2.13,0.06-2.96-0.61C7.03,9.1,8.56,7.75,9.25,7.38L9.25,7.38z M14.47,11.6c-0.83-0.67-1.93-0.9-2.96-0.61H11.5
		c0.67,0.36,1.23,0.88,1.64,1.52c0.4,0.63,0.6,1.36,0.6,2.1l0,0C14.44,14.25,15.97,12.9,14.47,11.6z"/>
	<path class="st2" d="M9.25,14.62L9.25,14.62c0.68-0.36,1.25-0.89,1.65-1.54c0.39-0.62,0.6-1.34,0.6-2.08l0,0
		c0.77,0.66,1.12,1.69,0.91,2.69C11.96,15.55,9.94,14.99,9.25,14.62z M10.58,8.3c-0.21,1,0.14,2.03,0.91,2.69h0.01
		c0-0.74,0.21-1.46,0.6-2.08c0.41-0.65,0.98-1.18,1.66-1.54l0,0C13.06,7.01,11.04,6.45,10.58,8.3z"/>
</g>
</svg>
