<?xml version="1.0" encoding="utf-8"?>
<!-- Generator: Adobe Illustrator 27.2.0, SVG Export Plug-In . SVG Version: 6.00 Build 0)  -->
<svg version="1.1" id="Layer_2" xmlns="http://www.w3.org/2000/svg" xmlns:xlink="http://www.w3.org/1999/xlink" x="0px" y="0px"
	 viewBox="0 0 16 16" style="enable-background:new 0 0 16 16;" xml:space="preserve">
<style type="text/css">
	.st0{fill:#6C707E;}
	.st1{fill:#FFFAEB;}
	.st2{fill-rule:evenodd;clip-rule:evenodd;fill:#FFAF0F;}
</style>
<path class="st0" d="M2.5,14h11c0.276,0,0.5,0.224,0.5,0.5l0,0c0,0.276-0.224,0.5-0.5,0.5h-11C2.224,15,2,14.776,2,14.5l0,0
	C2,14.224,2.224,14,2.5,14z"/>
<path class="st1" d="M2,8.5c0-0.552,0.448-1,1-1h3.5c0.552,0,1,0.448,1,1V12c0,0.552-0.448,1-1,1H3c-0.552,0-1-0.448-1-1V8.5z"/>
<path class="st1" d="M9.5,1c-0.552,0-1,0.448-1,1v3.5c0,0.552,0.448,1,1,1H13c0.552,0,1-0.448,1-1V2c0-0.552-0.448-1-1-1H9.5z"/>
<path class="st1" d="M2,2c0-0.552,0.448-1,1-1h3.5c0.552,0,1,0.448,1,1v3.5c0,0.552-0.448,1-1,1H3c-0.552,0-1-0.448-1-1V2z"/>
<path class="st1" d="M8.5,8.5c0-0.552,0.448-1,1-1H13c0.552,0,1,0.448,1,1V12c0,0.552-0.448,1-1,1H9.5c-0.552,0-1-0.448-1-1V8.5z"/>
<path class="st2" d="M3,7.5c-0.552,0-1,0.448-1,1V12c0,0.552,0.448,1,1,1h3.5c0.552,0,1-0.448,1-1V8.5c0-0.552-0.448-1-1-1H3z
	 M6.5,8.5H3V12h3.5V8.5z"/>
<path class="st2" d="M8.5,2c0-0.552,0.448-1,1-1H13c0.552,0,1,0.448,1,1v3.5c0,0.552-0.448,1-1,1H9.5c-0.552,0-1-0.448-1-1V2z
	 M9.5,2H13v3.5H9.5V2z"/>
<path class="st2" d="M3,1C2.448,1,2,1.448,2,2v3.5c0,0.552,0.448,1,1,1h3.5c0.552,0,1-0.448,1-1V2c0-0.552-0.448-1-1-1H3z M6.5,2H3
	v3.5h3.5V2z"/>
<path class="st2" d="M9.5,7.5c-0.552,0-1,0.448-1,1V12c0,0.552,0.448,1,1,1H13c0.552,0,1-0.448,1-1V8.5c0-0.552-0.448-1-1-1H9.5z
	 M13,8.5H9.5V12H13V8.5z"/>
</svg>
