<?xml version="1.0" encoding="utf-8"?>
<!-- Generator: Adobe Illustrator 27.2.0, SVG Export Plug-In . SVG Version: 6.00 Build 0)  -->
<svg version="1.1" id="Layer_1" xmlns="http://www.w3.org/2000/svg" xmlns:xlink="http://www.w3.org/1999/xlink" x="0px" y="0px"
	 viewBox="0 0 16 16" style="enable-background:new 0 0 16 16;" xml:space="preserve">
<style type="text/css">
	.st0{fill-rule:evenodd;clip-rule:evenodd;fill:#6C707E;}
	.st1{fill:#EBECF0;}
	.st2{fill-rule:evenodd;clip-rule:evenodd;fill:#FFF4EB;}
	.st3{fill:#E66D17;}
</style>
<path class="st0" d="M7.101,13H7V3h3v4.424c0.318-0.14,0.651-0.252,1-0.323V7h3v0.424c0.36,0.158,0.69,0.367,1,0.602V7
	c0-0.552-0.448-1-1-1h-3V3c0-0.552-0.448-1-1-1H7C6.448,2,6,2.448,6,3v1H3C2.448,4,2,4.448,2,5v8c0,0.552,0.448,1,1,1h4.424
	C7.284,13.682,7.172,13.349,7.101,13z M6,13H3V5h3V13z"/>
<path class="st1" d="M10,7.424V3H7v9C7,9.955,8.237,8.198,10,7.424z"/>
<path class="st1" d="M7,12v1h0.101C7.035,12.677,7,12.342,7,12z"/>
<path class="st1" d="M12,7c0.712,0,1.386,0.154,2,0.424V7H12z"/>
<path class="st1" d="M11,7.101C11.323,7.035,11.658,7,12,7h-1V7.101z"/>
<path class="st1" d="M6,13V5H3v8H6z"/>
<circle class="st2" cx="12" cy="12" r="3.429"/>
<path class="st3" d="M12,8c-2.205,0-4,1.795-4,4s1.795,4,4,4s4-1.795,4-4S14.205,8,12,8z M8.827,12.326
	c-0.016-0.112-0.03-0.218-0.03-0.326s0.015-0.214,0.03-0.326l0.004-0.027l0.723-0.407c0.078-0.043,0.149-0.096,0.214-0.157h0.555
	l0.002,1.835H9.767c-0.065-0.062-0.136-0.114-0.213-0.156L8.83,12.353L8.827,12.326z M13.295,14.929l-0.73-0.432
	c-0.347-0.206-0.779-0.206-1.126,0l-0.732,0.433c-0.194-0.087-0.387-0.204-0.598-0.362l0.009-0.715h1.726v-0.935h-0.585v-0.451
	h1.019c0.64,0,0.64,0.152,0.64,0.364c0,0.448,0.257,0.936,0.966,1.01l0.008,0.726C13.681,14.725,13.489,14.842,13.295,14.929z
	 M11.259,11.532v-0.45h1.157c0.131,0,0.502,0.042,0.502,0.225c0,0.183-0.371,0.224-0.502,0.224H11.259z M14.447,12.76
	c-0.075,0.042-0.147,0.095-0.214,0.157h-0.155c-0.188,0-0.222-0.036-0.222-0.036c-0.004-0.007-0.004-0.034-0.004-0.05
	c0-0.339-0.088-0.616-0.261-0.827c0.171-0.194,0.261-0.433,0.261-0.697c0-0.684-0.591-1.161-1.438-1.161h-2.298l-0.009-0.715
	c0.212-0.158,0.405-0.275,0.598-0.362l0.732,0.433c0.348,0.206,0.779,0.206,1.126,0l0.73-0.432c0.193,0.087,0.385,0.203,0.596,0.361
	l-0.009,0.831c-0.004,0.404,0.212,0.778,0.563,0.975l0.723,0.409l0.001,0.008c0.018,0.118,0.034,0.23,0.034,0.345
	c0,0.112-0.015,0.22-0.031,0.334L14.447,12.76z"/>
</svg>
