<?xml version="1.0" encoding="utf-8"?>
<!-- Generator: Adobe Illustrator 27.2.0, SVG Export Plug-In . SVG Version: 6.00 Build 0)  -->
<svg version="1.1" id="rustfile" xmlns="http://www.w3.org/2000/svg" xmlns:xlink="http://www.w3.org/1999/xlink" x="0px" y="0px"
	 viewBox="0 0 16 16" style="enable-background:new 0 0 16 16;" xml:space="preserve">
<style type="text/css">
	.st0{fill-rule:evenodd;clip-rule:evenodd;fill:#45322B;}
	.st1{fill:#C77D55;}
</style>
<circle class="st0" cx="8" cy="8" r="6"/>
<path class="st1" d="M8,1C4.134,1,1,4.134,1,8s3.134,7,7,7s7-3.134,7-7S11.866,1,8,1z M12.624,4.223
	c0.409,0.5,0.743,1.058,0.976,1.673l-0.586-0.33c-0.247-0.139-0.399-0.402-0.396-0.686L12.624,4.223z M8,2
	c0.337,0,0.662,0.046,0.984,0.1L8.4,2.445c-0.244,0.145-0.548,0.145-0.792,0L7.022,2.099C7.342,2.046,7.665,2,8,2z M3.376,4.223
	L3.384,4.88c0.003,0.284-0.149,0.547-0.396,0.686l-0.586,0.33C2.633,5.281,2.967,4.723,3.376,4.223z M3.376,11.777
	c-0.409-0.5-0.743-1.058-0.976-1.673l0.586,0.33c0.247,0.139,0.399,0.402,0.396,0.686L3.376,11.777z M2.078,8.775
	C2.045,8.519,2,8.265,2,8s0.045-0.519,0.078-0.775l1.4-0.788C3.629,6.352,3.763,6.246,3.88,6.125h1.31v2.5h0.003v1.25H3.88
	C3.763,9.754,3.629,9.648,3.478,9.563L2.078,8.775z M8,14c-0.335,0-0.658-0.046-0.978-0.099l0.585-0.347
	c0.244-0.145,0.548-0.145,0.792,0L8.984,13.9C8.662,13.954,8.337,14,8,14z M10.323,13.531L8.91,12.694
	c-0.559-0.331-1.253-0.331-1.811,0l-1.416,0.839c-0.478-0.201-0.91-0.479-1.316-0.791l0.018-1.61c0-0.002,0-0.004,0-0.006H7.5v-1.25
	H6.443v-1.25H8.5c1.375,0,1.375,0.444,1.375,0.875c0,0.371,0.132,1.555,1.742,1.619c0,0.004-0.001,0.008-0.001,0.012l0.018,1.61
	C11.23,13.052,10.799,13.33,10.323,13.531z M6.443,7.375v-1.25H8.75c0.046,0,1.125,0.007,1.125,0.625S8.796,7.375,8.75,7.375H6.443z
	 M12.624,11.777l-0.007-0.656c-0.003-0.284,0.149-0.547,0.396-0.686l0.586-0.33C13.367,10.719,13.033,11.277,12.624,11.777z
	 M12.522,9.563c-0.151,0.085-0.285,0.192-0.403,0.312h-0.37c-0.625,0-0.625-0.199-0.625-0.375c0-0.645-0.187-1.142-0.554-1.495
	c0.351-0.323,0.554-0.754,0.554-1.255c0-1.104-0.977-1.875-2.375-1.875H4.383c0-0.002,0-0.004,0-0.007l-0.018-1.61
	c0.406-0.312,0.838-0.59,1.316-0.791l1.416,0.838c0.559,0.331,1.253,0.331,1.811,0l1.413-0.837c0.476,0.201,0.906,0.479,1.311,0.79
	l-0.018,1.61c-0.007,0.649,0.34,1.25,0.906,1.569l1.4,0.788C13.955,7.481,14,7.735,14,8s-0.045,0.519-0.078,0.775L12.522,9.563z"/>
</svg>
