<?xml version="1.0" encoding="utf-8"?>
<!-- Generator: Adobe Illustrator 24.1.0, SVG Export Plug-In . SVG Version: 6.00 Build 0)  -->
<svg version="1.1" id="Layer_1" xmlns="http://www.w3.org/2000/svg" xmlns:xlink="http://www.w3.org/1999/xlink" x="0px" y="0px"
	 width="16px" height="16px" viewBox="0 0 16 16" style="enable-background:new 0 0 16 16;" xml:space="preserve">
<style type="text/css">
	.st0{fill:none;}
	.st1{fill:#9AA7B0;fill-opacity:0.8;}
	.st2{fill-rule:evenodd;clip-rule:evenodd;fill:#B99BF8;fill-opacity:0.7;}
	.st3{fill-rule:evenodd;clip-rule:evenodd;fill:#231F20;fill-opacity:0.7;}
</style>
<rect id="frame" class="st0" width="16" height="16"/>
<g>
	<path class="st1" d="M7.98,4L6.7,2.71C6.22,2.29,5.62,2.03,4.98,2H1.05C1.02,2,1,2.02,1,2.05V8h1V3h3c0.28,0,0.78,0.21,0.97,0.4
		l1.3,1.3L7.57,5H14v3h1V4H7.98z"/>
	<path class="st2" d="M1,16h15V9H1V16z"/>
	<path class="st3" d="M3.9,12.5c0.66,0,1.1-0.12,1.1-0.75S4.56,11,3.9,11H3v1.5H3.9z M2,10h1.97C5.14,10,6,10.64,6,11.65
		c0,1.64-1.03,1.85-2.13,1.85H3V15H2V10z"/>
	<path class="st3" d="M13.9,12.5c0.66,0,1.1-0.12,1.1-0.75S14.56,11,13.9,11H13v1.5H13.9z M12,10h1.97c1.17,0,2.03,0.64,2.03,1.65
		c0,1.64-1.03,1.85-2.13,1.85H13V15h-1V10z"/>
	<path class="st3" d="M7,10h1v2h2v-2h1v5h-1v-2H8v2H7V10z"/>
</g>
</svg>
