<?xml version="1.0" encoding="utf-8"?>
<!-- Generator: Adobe Illustrator 27.2.0, SVG Export Plug-In . SVG Version: 6.00 Build 0)  -->
<svg version="1.1" id="Layer_1" xmlns="http://www.w3.org/2000/svg" xmlns:xlink="http://www.w3.org/1999/xlink" x="0px" y="0px"
	 viewBox="0 0 16 16" style="enable-background:new 0 0 16 16;" xml:space="preserve">
<style type="text/css">
	.st0{fill:#BBC7FF;}
	.st1{fill:#6241E0;}
</style>
<path class="st0" d="M8.049,2.081C4.417,4.27,2.127,8.211,2.005,12.488C3.899,13.479,6,14,8.101,14c0,0,0,0,0.001,0
	c2.086,0,4.118-0.512,5.896-1.482C13.905,8.252,11.65,4.297,8.049,2.081z M7.981,11.5c-1.456-0.849-2.354-2.42-2.356-4.12
	c0-0.004,0.001-0.008,0.001-0.012C6.331,6.96,7.138,6.75,7.963,6.75c0.815,0,1.647,0.205,2.412,0.627
	C10.367,9.086,9.453,10.66,7.981,11.5z"/>
<path class="st1" d="M7.955,7.25c0.638,0,1.277,0.126,1.877,0.368c-0.17,1.267-0.839,2.418-1.85,3.182
	C6.979,10.027,6.32,8.869,6.162,7.6C6.721,7.37,7.331,7.25,7.955,7.25 M7.955,6.25c-0.999,0-1.976,0.254-2.83,0.748
	c0,0.005,0,0.01-0.001,0.015C5.127,9.071,6.214,10.972,7.977,12c1.782-1.017,2.888-2.922,2.898-4.991
	C9.949,6.498,8.942,6.25,7.955,6.25L7.955,6.25z"/>
<path class="st1" d="M8.047,2.671c3.221,2.1,5.258,5.675,5.44,9.55C11.848,13.06,9.999,13.5,8.101,13.5
	c-1.916,0-3.834-0.452-5.583-1.312C2.73,8.306,4.798,4.745,8.047,2.671 M8.052,1.5C4.024,3.799,1.523,8.106,1.5,12.785
	C3.594,13.939,5.87,14.5,8.101,14.5c2.258,0,4.468-0.575,6.397-1.691c0-0.011,0.001-0.023,0.002-0.034
	C14.495,8.122,12.037,3.824,8.052,1.5L8.052,1.5z"/>
</svg>
