<?xml version="1.0" encoding="utf-8"?>
<!-- Generator: Adobe Illustrator 27.2.0, SVG Export Plug-In . SVG Version: 6.00 Build 0)  -->
<svg version="1.1" id="Layer_1" xmlns="http://www.w3.org/2000/svg" xmlns:xlink="http://www.w3.org/1999/xlink" x="0px" y="0px"
	 viewBox="0 0 16 16" style="enable-background:new 0 0 16 16;" xml:space="preserve">
<style type="text/css">
	.st0{fill:#FFF5F5;stroke:#E35252;}
	.st1{fill:#E35252;}
</style>
<path class="st0" d="M4,2.5h8c0.828,0,1.5,0.672,1.5,1.5v8c0,0.828-0.672,1.5-1.5,1.5H4c-0.828,0-1.5-0.672-1.5-1.5V4
	C2.5,3.172,3.172,2.5,4,2.5z"/>
<path class="st1" d="M5.36,11.516V4.494h2.927c0.471,0,0.889,0.087,1.243,0.258c0.354,0.171,0.629,0.416,0.819,0.73
	c0.194,0.314,0.291,0.686,0.291,1.103v2.84c0,0.417-0.098,0.788-0.29,1.103c-0.191,0.313-0.466,0.559-0.82,0.73
	c-0.354,0.172-0.772,0.258-1.243,0.258H5.36z M6.375,10.661h1.861c0.264,0,0.499-0.051,0.701-0.152
	c0.205-0.1,0.364-0.245,0.473-0.43c0.109-0.187,0.164-0.406,0.164-0.654v-2.84c0-0.248-0.055-0.469-0.165-0.654
	C9.299,5.745,9.14,5.6,8.935,5.502c-0.2-0.1-0.436-0.152-0.7-0.152H6.375V10.661z"/>
</svg>
