<?xml version="1.0" encoding="utf-8"?>
<!-- Generator: Adobe Illustrator 27.2.0, SVG Export Plug-In . SVG Version: 6.00 Build 0)  -->
<svg version="1.1" id="Layer_1" xmlns="http://www.w3.org/2000/svg" xmlns:xlink="http://www.w3.org/1999/xlink" x="0px" y="0px"
	 viewBox="0 0 16 16" style="enable-background:new 0 0 16 16;" xml:space="preserve">
<style type="text/css">
	.st0{fill:#402929;stroke:#DB5C5C;}
	.st1{fill:#DB5C5C;}
</style>
<path class="st0" d="M4,2.5h8c0.828,0,1.5,0.672,1.5,1.5v8c0,0.828-0.672,1.5-1.5,1.5H4c-0.828,0-1.5-0.672-1.5-1.5V4
	C2.5,3.172,3.172,2.5,4,2.5z"/>
<path class="st1" d="M10.354,5.485c-0.19-0.313-0.46-0.555-0.81-0.725C9.197,4.587,8.792,4.5,8.329,4.5H5.361v7h2.967
	c0.463,0,0.868-0.087,1.215-0.26c0.35-0.17,0.62-0.412,0.81-0.725c0.19-0.31,0.285-0.673,0.285-1.09v-2.85
	C10.639,6.158,10.544,5.795,10.354,5.485z M9.434,10.05c-0.107,0.18-0.257,0.318-0.45,0.415c-0.193,0.097-0.42,0.145-0.68,0.145
	H6.361V5.39h1.942c0.26,0,0.487,0.048,0.68,0.145C9.177,5.632,9.327,5.77,9.434,5.95c0.107,0.177,0.16,0.385,0.16,0.625v2.85
	C9.594,9.665,9.54,9.873,9.434,10.05z"/>
</svg>
