<?xml version="1.0" encoding="utf-8"?>
<!-- Generator: Adobe Illustrator 27.2.0, SVG Export Plug-In . SVG Version: 6.00 Build 0)  -->
<svg version="1.1" id="Layer_1" xmlns="http://www.w3.org/2000/svg" xmlns:xlink="http://www.w3.org/1999/xlink" x="0px" y="0px"
	 viewBox="0 0 16 16" style="enable-background:new 0 0 16 16;" xml:space="preserve">
<style type="text/css">
	.st0{fill:#402929;}
	.st1{fill:#DB5C5C;}
</style>
<path class="st0" d="M12,13h-0.5c-0.827,0-1.5-0.673-1.5-1.5s0.673-1.5,1.5-1.5H12V6h-0.5C10.673,6,10,5.327,10,4.5S10.673,3,11.5,3
	H12V2.5H4C3.172,2.5,2.5,3.172,2.5,4v8c0,0.828,0.672,1.5,1.5,1.5h8V13z"/>
<path class="st1" d="M12,13H4c-0.551,0-1-0.448-1-1V4c0-0.551,0.449-1,1-1h7.5l0,0H12V2H4C2.897,2,2,2.897,2,4v8
	c0,1.103,0.897,2,2,2h8V13z"/>
<path class="st1" d="M14,2.5C14,2.224,13.776,2,13.5,2S13,2.224,13,2.5V4h-1.5C11.224,4,11,4.224,11,4.5S11.224,5,11.5,5H13v1.5
	C13,6.776,13.224,7,13.5,7S14,6.776,14,6.5V5h1.5C15.776,5,16,4.776,16,4.5S15.776,4,15.5,4H14V2.5z"/>
<path class="st1" d="M14,9.5C14,9.224,13.776,9,13.5,9S13,9.224,13,9.5V11h-1.5c-0.276,0-0.5,0.224-0.5,0.5s0.224,0.5,0.5,0.5H13
	v1.5c0,0.276,0.224,0.5,0.5,0.5s0.5-0.224,0.5-0.5V12h1.5c0.276,0,0.5-0.224,0.5-0.5S15.776,11,15.5,11H14V9.5z"/>
<path class="st1" d="M10.354,5.485c-0.19-0.313-0.46-0.555-0.81-0.725C9.197,4.587,8.792,4.5,8.329,4.5H5.361v7h2.967
	c0.463,0,0.868-0.087,1.215-0.26c0.35-0.17,0.62-0.412,0.81-0.725c0.19-0.31,0.285-0.673,0.285-1.09v-2.85
	C10.639,6.158,10.544,5.795,10.354,5.485z M9.434,10.05c-0.107,0.18-0.257,0.318-0.45,0.415c-0.193,0.097-0.42,0.145-0.68,0.145
	H6.361V5.39h1.942c0.26,0,0.487,0.048,0.68,0.145C9.177,5.632,9.327,5.77,9.434,5.95c0.107,0.177,0.16,0.385,0.16,0.625v2.85
	C9.594,9.665,9.54,9.873,9.434,10.05z"/>
</svg>
