<?xml version="1.0" encoding="utf-8"?>
<!-- Generator: Adobe Illustrator 27.2.0, SVG Export Plug-In . SVG Version: 6.00 Build 0)  -->
<svg version="1.1" id="Layer_1" xmlns="http://www.w3.org/2000/svg" xmlns:xlink="http://www.w3.org/1999/xlink" x="0px" y="0px"
	 viewBox="0 0 16 16" style="enable-background:new 0 0 16 16;" xml:space="preserve">
<style type="text/css">
	.st0{fill:#402929;}
	.st1{fill:#DB5C5C;}
</style>
<path class="st0" d="M12,13h-0.5c-0.827,0-1.5-0.673-1.5-1.5s0.673-1.5,1.5-1.5H12V6h-0.5C10.673,6,10,5.327,10,4.5S10.673,3,11.5,3
	H12V2.5H4C3.172,2.5,2.5,3.172,2.5,4v8c0,0.828,0.672,1.5,1.5,1.5h8V13z"/>
<path class="st1" d="M12,13H4c-0.551,0-1-0.448-1-1V4c0-0.551,0.449-1,1-1h7.5c0,0,0,0,0,0H12V2H4C2.897,2,2,2.897,2,4v8
	c0,1.103,0.897,2,2,2h8V13z"/>
<path class="st1" d="M5.36,11.516V4.494h2.927c0.471,0,0.889,0.087,1.243,0.258c0.354,0.171,0.629,0.416,0.819,0.73
	c0.194,0.314,0.291,0.686,0.291,1.103v2.84c0,0.417-0.098,0.788-0.29,1.103c-0.191,0.313-0.466,0.559-0.82,0.73
	c-0.354,0.172-0.772,0.258-1.243,0.258H5.36z M6.375,10.661h1.861c0.264,0,0.499-0.051,0.701-0.152
	c0.205-0.1,0.364-0.245,0.473-0.43c0.109-0.187,0.164-0.406,0.164-0.654v-2.84c0-0.248-0.055-0.469-0.165-0.654
	C9.299,5.745,9.14,5.6,8.935,5.502c-0.2-0.1-0.436-0.152-0.7-0.152H6.375V10.661z"/>
<path class="st1" d="M14,2.5C14,2.224,13.776,2,13.5,2S13,2.224,13,2.5V4h-1.5C11.224,4,11,4.224,11,4.5S11.224,5,11.5,5H13v1.5
	C13,6.776,13.224,7,13.5,7S14,6.776,14,6.5V5h1.5C15.776,5,16,4.776,16,4.5S15.776,4,15.5,4H14V2.5z"/>
<path class="st1" d="M14,9.5C14,9.224,13.776,9,13.5,9S13,9.224,13,9.5V11h-1.5c-0.276,0-0.5,0.224-0.5,0.5s0.224,0.5,0.5,0.5H13
	v1.5c0,0.276,0.224,0.5,0.5,0.5s0.5-0.224,0.5-0.5V12h1.5c0.276,0,0.5-0.224,0.5-0.5S15.776,11,15.5,11H14V9.5z"/>
</svg>
