<?xml version="1.0" encoding="utf-8"?>
<!-- Generator: Adobe Illustrator 24.1.0, SVG Export Plug-In . SVG Version: 6.00 Build 0)  -->
<svg version="1.1" id="Layer_1" xmlns="http://www.w3.org/2000/svg" xmlns:xlink="http://www.w3.org/1999/xlink" x="0px" y="0px"
	 width="16px" height="16px" viewBox="0 0 16 16" style="enable-background:new 0 0 16 16;" xml:space="preserve">
<style type="text/css">
	.st0{fill:none;}
	.st1{fill:#689F63;}
	.st2{fill-rule:evenodd;clip-rule:evenodd;fill:#9AA7B0;}
</style>
<rect id="frame" class="st0" width="16" height="16"/>
<g>
	<path class="st1" d="M9.35199,6.21301c1.04498,0,1.42902,0.22498,1.58899,0.92902c0.01465,0.0672,0.07422,0.11511,0.14301,0.11499
		h0.66003c0.00385-0.00006,0.00763-0.00018,0.01147-0.00049c0.08148-0.00665,0.14215-0.07806,0.1355-0.15955
		c-0.10101-1.21497-0.90802-1.77997-2.53601-1.77997c-1.44995,0-2.315,0.61096-2.315,1.63696
		c0,1.11401,0.86005,1.42004,2.25201,1.55804c1.66498,0.16296,1.79498,0.40594,1.79498,0.73297c0,0.56799-0.45599,0.81-1.52698,0.81
		c-0.47247,0-0.80969-0.04395-1.06-0.12683v0.90955C8.80316,10.90234,9.14246,10.948,9.56201,10.948l-0.00702,0.00598
		c1.61102,0,2.53503-0.63501,2.53503-1.742c0-1.099-0.742-1.39099-2.30505-1.599C8.20599,7.40399,8.04602,7.29602,8.04602,6.92603
		C8.04602,6.62,8.18201,6.21301,9.35199,6.21301z"/>
	<path class="st1" d="M7.53125,9.90521h0.8974c-0.40961-0.15906-0.54706-0.4444-0.60864-0.85724
		c-0.01202-0.07098-0.073-0.12396-0.14502-0.12396H7.38702c0.086,0.28168,0.14423,0.57465,0.14423,0.88104V9.90521z"/>
	<path class="st1" d="M6.23297,5.46997H5.58899c-0.08197,0-0.14697,0.06305-0.14697,0.14703V6.9079
		C5.78589,7.02252,6.1026,7.19556,6.38,7.4198V5.61603C6.38,5.53302,6.31299,5.46997,6.23297,5.46997z"/>
	<path class="st1" d="M13.60999,4.18903L8.52698,1.25201c-0.31897-0.18201-0.74695-0.18201-1.06897,0L2.36798,4.18799
		c-0.32996,0.18799-0.53296,0.54498-0.53296,0.927v3.21918c0.14215-0.26135,0.31232-0.50952,0.53351-0.72406
		c0.11908-0.11548,0.25049-0.21344,0.38446-0.30682V5.11499C2.75323,5.0578,2.78363,5.00494,2.83301,4.97601L7.914,2.04401
		c0.04852-0.02826,0.10846-0.02826,0.15698,0l5.08203,2.93201c0.04901,0.02997,0.07898,0.08099,0.07898,0.14001v5.86694
		c0.00043,0.0564-0.02881,0.10883-0.07697,0.138L8.5,13.8078v1.04932c0.00861-0.00464,0.01849-0.00623,0.02698-0.01111
		l5.08301-2.93604c0.328-0.19098,0.53302-0.547,0.53302-0.927V5.11603C14.14301,4.73401,13.93799,4.37903,13.60999,4.18903z"/>
</g>
<path class="st2" d="M7.5,10.9052H6.53125V9.80507c0-1.02896-0.77594-1.94754-1.83219-2.0461
	C3.48844,7.64859,2.46875,8.5711,2.46875,9.72228v1.18292H1.5V16h6V10.9052z M3.28125,10.9052V9.72228
	c0-0.65444,0.54437-1.18271,1.21875-1.18271c0.67437,0,1.21875,0.52827,1.21875,1.18271v1.18292
	C5.71875,10.9052,3.28125,10.9052,3.28125,10.9052z"/>
</svg>
