<?xml version="1.0" encoding="utf-8"?>
<!-- Generator: Adobe Illustrator 24.1.0, SVG Export Plug-In . SVG Version: 6.00 Build 0)  -->
<svg version="1.1" id="Layer_1" xmlns="http://www.w3.org/2000/svg" xmlns:xlink="http://www.w3.org/1999/xlink" x="0px" y="0px"
	 width="16px" height="16px" viewBox="0 0 16 16" style="enable-background:new 0 0 16 16;" xml:space="preserve">
<style type="text/css">
	.st0{fill:none;}
	.st1{fill:#CB3838;}
	.st2{fill-rule:evenodd;clip-rule:evenodd;fill:#9AA7B0;}
</style>
<rect id="frame" class="st0" width="16" height="16"/>
<path class="st1" d="M1,1v8.90521h0.46875V9.72229c0-0.79932,0.31958-1.54944,0.89978-2.11218
	C2.48669,7.49554,2.61719,7.39856,2.75,7.30573V2.75h10.5v10.5h-2.33331v-7H8.5833V15H15V1H1z"/>
<path class="st2" d="M7.5,10.9052H6.53125V9.80507c0-1.02896-0.77594-1.94754-1.83219-2.0461
	C3.48844,7.64859,2.46875,8.5711,2.46875,9.72228v1.18292H1.5V16h6V10.9052z M3.28125,10.9052V9.72228
	c0-0.65444,0.54437-1.18271,1.21875-1.18271c0.67437,0,1.21875,0.52827,1.21875,1.18271v1.18292
	C5.71875,10.9052,3.28125,10.9052,3.28125,10.9052z"/>
</svg>
