<?xml version="1.0" encoding="utf-8"?>
<!-- Generator: Adobe Illustrator 27.2.0, SVG Export Plug-In . SVG Version: 6.00 Build 0)  -->
<svg version="1.1" id="Layer_1" xmlns="http://www.w3.org/2000/svg" xmlns:xlink="http://www.w3.org/1999/xlink" x="0px" y="0px"
	 viewBox="0 0 16 16" style="enable-background:new 0 0 16 16;" xml:space="preserve">
<style type="text/css">
	.st0{fill:none;stroke:#CED0D6;}
	.st1{fill:#CED0D6;}
</style>
<circle class="st0" cx="8" cy="8" r="6.5"/>
<path class="st1" d="M7.782,12.131c-0.206,0-0.383-0.073-0.532-0.219c-0.148-0.148-0.222-0.327-0.222-0.536
	c0-0.206,0.074-0.382,0.222-0.528c0.148-0.148,0.326-0.222,0.532-0.222c0.204,0,0.38,0.074,0.528,0.222
	c0.151,0.146,0.226,0.322,0.226,0.528c0,0.138-0.035,0.265-0.106,0.381c-0.068,0.113-0.158,0.204-0.272,0.272
	C8.046,12.097,7.92,12.131,7.782,12.131z"/>
<path class="st1" d="M7.722,9.474c-0.281,0-0.509-0.228-0.509-0.509l0,0c0.005-0.447,0.052-0.604,0.14-0.868
	c0.091-0.264,0.219-0.478,0.385-0.642c0.166-0.163,0.366-0.312,0.6-0.447c0.151-0.091,0.287-0.193,0.407-0.306
	C8.865,6.588,8.96,6.459,9.031,6.312C9.101,6.165,9.136,6,9.136,5.822c0-0.214-0.053-0.399-0.158-0.555
	c-0.106-0.156-0.246-0.276-0.422-0.36c-0.173-0.086-0.367-0.13-0.581-0.13c-0.194,0-0.378,0.038-0.554,0.115
	c-0.176,0.077-0.322,0.197-0.437,0.36C6.959,5.285,6.938,5.32,6.918,5.356c-0.143,0.269-0.373,0.52-0.678,0.52l0,0
	c-0.33,0-0.605-0.28-0.507-0.595c0.057-0.184,0.139-0.351,0.245-0.501c0.211-0.3,0.49-0.527,0.837-0.681
	c0.349-0.154,0.735-0.231,1.158-0.231c0.463,0,0.867,0.083,1.214,0.249C9.536,4.281,9.805,4.51,9.996,4.806
	c0.194,0.293,0.29,0.636,0.29,1.027c0,0.269-0.044,0.515-0.132,0.731c-0.088,0.214-0.214,0.405-0.377,0.573
	C9.616,7.306,9.423,7.454,9.197,7.584c-0.214,0.127-0.387,0.259-0.52,0.396C8.545,8.118,8.449,8.238,8.389,8.426
	c-0.06,0.187-0.093,0.262-0.098,0.538l0,0c0,0.281-0.228,0.509-0.509,0.509H7.722z"/>
</svg>
