<?xml version="1.0" encoding="utf-8"?>
<!-- Generator: Adobe Illustrator 27.2.0, SVG Export Plug-In . SVG Version: 6.00 Build 0)  -->
<svg version="1.1" id="Layer_1" xmlns="http://www.w3.org/2000/svg" xmlns:xlink="http://www.w3.org/1999/xlink" x="0px" y="0px"
	 viewBox="0 0 16 16" style="enable-background:new 0 0 16 16;" xml:space="preserve">
<style type="text/css">
	.st0{fill-rule:evenodd;clip-rule:evenodd;fill:#7CC1FD;}
	.st1{fill-rule:evenodd;clip-rule:evenodd;fill:#305699;}
</style>
<path class="st0" d="M12.5,4.25L9.75,1.5c0,0-0.5-0.5-1-0.5s-1,0.268-1,0.268l-1,0.482L3.375,3.375V4.25H12.5z"/>
<path class="st1" d="M3.375,3.375h7.5c0.496,0,0.75,0,1,0.25L15,6.75v5.75H4.25c0,0-2.5-2.5-2.75-2.75C1,9.25,1,8.625,1,8.625
	S1,8.25,1.25,7.75S3.375,3.375,3.375,3.375z"/>
<path class="st0" d="M3.375,3.375c0,0,0,7,0,7.625s0.375,1,0.375,1l3,3h5.75v-2.5L3.375,3.375z"/>
</svg>
