<?xml version="1.0" encoding="utf-8"?>
<!-- Generator: Adobe Illustrator 27.2.0, SVG Export Plug-In . SVG Version: 6.00 Build 0)  -->
<svg version="1.1" id="Layer_1" xmlns="http://www.w3.org/2000/svg" xmlns:xlink="http://www.w3.org/1999/xlink" x="0px" y="0px"
	 viewBox="0 0 16 16" style="enable-background:new 0 0 16 16;" xml:space="preserve">
<style type="text/css">
	.st0{fill-rule:evenodd;clip-rule:evenodd;fill:#FFFFFF;}
	.st1{fill:#FFFFFF;}
</style>
<path class="st0" d="M3,5.828V11c0,1.105,0.895,2,2,2h5c1.105,0,2-0.895,2-2V3c0-1.105-0.895-2-2-2H7.828
	c-0.53,0-1.039,0.211-1.414,0.586L3.586,4.414C3.211,4.789,3,5.298,3,5.828z M4,11V6h2.5C7.328,6,8,5.328,8,4.5V2h2
	c0.552,0,1,0.448,1,1v8c0,0.552-0.448,1-1,1H5C4.448,12,4,11.552,4,11z M7,2.414L4.414,5H6.5C6.776,5,7,4.776,7,4.5V2.414z"/>
<path class="st1" d="M14,3.5C14,3.224,13.776,3,13.5,3S13,3.224,13,3.5v9c0,0.828-0.672,1.5-1.5,1.5h-6C5.224,14,5,14.224,5,14.5
	S5.224,15,5.5,15h6c1.381,0,2.5-1.119,2.5-2.5V3.5z"/>
</svg>
