<?xml version="1.0" encoding="utf-8"?>
<!-- Generator: Adobe Illustrator 27.2.0, SVG Export Plug-In . SVG Version: 6.00 Build 0)  -->
<svg version="1.1" id="Layer_7" xmlns="http://www.w3.org/2000/svg" xmlns:xlink="http://www.w3.org/1999/xlink" x="0px" y="0px"
	 viewBox="0 0 16 16" style="enable-background:new 0 0 16 16;" xml:space="preserve">
<style type="text/css">
	.st0{fill:#EBECF0;}
	.st1{fill:#6C707E;}
</style>
<polygon class="st0" points="8,1 14,4.5 14,11.5 8,15 2,11.5 2,4.5 "/>
<path class="st1" d="M13.762,3.779l-5.01-3.076c-0.465-0.27-1.04-0.27-1.514,0.006l-4.99,3.064C1.787,4.042,1.5,4.542,1.5,5.075
	v5.85c0,0.534,0.287,1.033,0.738,1.296l5.01,3.076c0.231,0.135,0.489,0.202,0.749,0.202c0.263,0,0.526-0.069,0.765-0.208
	l4.989-3.063c0.462-0.269,0.749-0.768,0.749-1.303v-5.85C14.5,4.541,14.213,4.042,13.762,3.779z M8,14.082L2.968,4.875h10.064
	L8,14.082z M7.752,1.567c0.079-0.046,0.166-0.069,0.251-0.069c0.083,0,0.164,0.021,0.235,0.063l3.768,2.313H3.994L7.752,1.567z
	 M2.5,10.925V6.104l4.198,7.682l-3.947-2.424C2.599,11.273,2.5,11.102,2.5,10.925z M13.238,11.369l-3.937,2.417L13.5,6.103v4.821
	C13.5,11.103,13.401,11.274,13.238,11.369z"/>
</svg>
