<?xml version="1.0" encoding="utf-8"?>
<!-- Generator: Adobe Illustrator 27.2.0, SVG Export Plug-In . SVG Version: 6.00 Build 0)  -->
<svg version="1.1" id="Layer_7" xmlns="http://www.w3.org/2000/svg" xmlns:xlink="http://www.w3.org/1999/xlink" x="0px" y="0px"
	 viewBox="0 0 16 16" style="enable-background:new 0 0 16 16;" xml:space="preserve">
<style type="text/css">
	.st0{fill:#43454A;}
	.st1{fill:#CED0D6;}
</style>
<path class="st0" d="M8,1L2,4.5v3.864C2.574,7.513,3.557,7,4.5,7c1.449,0,3,1.205,3,3v0.268c0.597,0.346,1,0.993,1,1.732v2.708
	L14,11.5v-7L8,1z"/>
<path class="st1" d="M13.762,3.779l-5.01-3.076c-0.465-0.27-1.04-0.27-1.514,0.006l-4.99,3.064C1.787,4.042,1.5,4.542,1.5,5.075V10
	c0-0.919,0.408-1.682,1-2.209V6.104l0.67,1.227c0.31-0.158,0.641-0.26,0.974-0.304L2.968,4.875h10.064L8.5,13.167v2.241
	c0.089-0.031,0.178-0.068,0.262-0.117l4.989-3.063c0.462-0.269,0.749-0.768,0.749-1.303v-5.85C14.5,4.541,14.213,4.042,13.762,3.779
	z M3.994,3.874l3.758-2.307c0.079-0.046,0.166-0.069,0.251-0.069c0.083,0,0.164,0.021,0.235,0.063l3.768,2.313H3.994z M13.5,10.924
	c0,0.179-0.099,0.35-0.262,0.445l-3.937,2.417L13.5,6.103V10.924z"/>
<path class="st1" d="M6.5,11v-1c0-1.196-1.034-2-2-2s-2,0.804-2,2v1c-0.551,0-1,0.448-1,1v3c0,0.552,0.449,1,1,1h4
	c0.551,0,1-0.448,1-1v-3C7.5,11.448,7.051,11,6.5,11z M3.5,10c0-0.599,0.517-1,1-1s1,0.401,1,1v1h-2V10z M6.5,15h-4v-3h4V15z"/>
</svg>
