<?xml version="1.0" encoding="utf-8"?>
<!-- Generator: Adobe Illustrator 27.2.0, SVG Export Plug-In . SVG Version: 6.00 Build 0)  -->
<svg version="1.1" id="Layer_1" xmlns="http://www.w3.org/2000/svg" xmlns:xlink="http://www.w3.org/1999/xlink" x="0px" y="0px"
	 viewBox="0 0 16 16" style="enable-background:new 0 0 16 16;" xml:space="preserve">
<style type="text/css">
	.st0{fill:#253627;}
	.st1{fill:#57965C;}
</style>
<g>
	<path class="st0" d="M12.65,11.175c-1.1,0-2-0.9-2-2v-2.35c0-1.1,0.9-2,2-2h1.809c-0.093-0.403-0.347-0.757-0.715-0.967l-5-2.857
		c-0.461-0.264-1.027-0.264-1.488,0l-5,2.857C1.788,4.125,1.5,4.622,1.5,5.161v5.679c0,0.538,0.288,1.035,0.756,1.302l5,2.857
		c0.461,0.263,1.027,0.263,1.488,0l5-2.857c0.368-0.21,0.622-0.564,0.715-0.967H12.65z"/>
	<path class="st1" d="M13.934,11.175c-0.08,0.221-0.229,0.413-0.438,0.532l-5,2.858c-0.307,0.174-0.686,0.175-0.992-0.001l-5-2.857
		C2.193,11.53,2,11.197,2,10.839V5.161C2,4.803,2.193,4.47,2.504,4.292l5-2.857C7.657,1.348,7.829,1.304,8,1.304
		s0.343,0.044,0.496,0.131l5,2.857c0.209,0.12,0.358,0.312,0.438,0.533h1.034c-0.1-0.583-0.453-1.102-0.976-1.401l-5-2.857
		c-0.611-0.35-1.372-0.35-1.984,0l-5,2.857C1.386,3.779,1,4.445,1,5.161v5.678c0,0.717,0.386,1.382,1.008,1.737l5,2.856
		C7.313,15.609,7.657,15.695,8,15.695s0.687-0.087,0.992-0.262l5-2.857c0.522-0.298,0.876-0.818,0.976-1.401H13.934z"/>
</g>
<path class="st1" d="M14.682,10.25c-0.214,0-0.388-0.174-0.388-0.388V9.318h-1.087v0.544c0,0.214-0.174,0.388-0.388,0.388
	c-0.213,0-0.387-0.174-0.387-0.388V9.318h-0.544c-0.214,0-0.388-0.174-0.388-0.388c0-0.214,0.174-0.387,0.388-0.387h0.544V7.456
	h-0.544c-0.214,0-0.388-0.174-0.388-0.388c0-0.214,0.174-0.387,0.388-0.387h0.544V6.137c0-0.214,0.174-0.387,0.387-0.387
	c0.214,0,0.388,0.174,0.388,0.387v0.544h1.087V6.137c0-0.214,0.174-0.387,0.388-0.387c0.213,0,0.387,0.174,0.387,0.387v0.544h0.544
	C15.826,6.681,16,6.855,16,7.068c0,0.214-0.174,0.388-0.388,0.388h-0.544v1.087h0.544C15.826,8.543,16,8.717,16,8.931
	c0,0.214-0.174,0.388-0.388,0.388h-0.544v0.544C15.068,10.076,14.895,10.25,14.682,10.25z M13.206,8.543h1.087V7.456h-1.087V8.543z"
	/>
<path class="st1" d="M8.135,11.5c1.489,0,2.765-0.899,3.079-2.175H10.2c-0.314,0.73-1.093,1.252-2.064,1.252
	c-1.339,0-2.306-1.073-2.306-2.577s0.967-2.577,2.306-2.577c0.972,0,1.75,0.522,2.064,1.252h1.015C10.901,5.399,9.624,4.5,8.135,4.5
	C6.216,4.5,4.79,5.994,4.79,8C4.79,10.006,6.216,11.5,8.135,11.5z"/>
</svg>
