<?xml version="1.0" encoding="utf-8"?>
<!-- Generator: Adobe Illustrator 27.2.0, SVG Export Plug-In . SVG Version: 6.00 Build 0)  -->
<svg version="1.1" id="Layer_1" xmlns="http://www.w3.org/2000/svg" xmlns:xlink="http://www.w3.org/1999/xlink" x="0px" y="0px"
	 viewBox="0 0 16 16" style="enable-background:new 0 0 16 16;" xml:space="preserve">
<style type="text/css">
	.st0{fill-rule:evenodd;clip-rule:evenodd;fill:#6C707E;}
	.st1{fill:#F2FCF3;}
	.st2{fill:#5FB865;}
</style>
<path class="st0" d="M7,13.313V13H6c-0.552,0-1-0.448-1-1V4c0-0.364-0.097-0.706-0.268-1H10.5C11.328,3,12,3.672,12,4.5v2.219
	c0.311,0.03,0.615,0.121,0.889,0.277L13,7.059V4.5C13,3.119,11.881,2,10.5,2H3C1.895,2,1,2.895,1,4v0.5C1,4.776,1.224,5,1.5,5H4v7
	c0,1.105,0.895,2,2,2h1.114C7.042,13.781,7,13.55,7,13.313z M2,4c0-0.552,0.448-1,1-1s1,0.448,1,1H2z"/>
<path class="st1" d="M15.114,13.486v-0.187h-0.931c-0.464,0-0.841-0.378-0.841-0.842v-1.21c0-0.464,0.377-0.842,0.841-0.842h0.931
	v-0.187c-0.048-0.207-0.179-0.389-0.368-0.498l-2.573-1.47c-0.237-0.136-0.529-0.136-0.766,0L8.833,9.721
	c-0.241,0.137-0.389,0.393-0.389,0.67v2.923c0,0.277,0.148,0.533,0.389,0.67l2.574,1.471c0.237,0.136,0.529,0.136,0.766,0
	l2.574-1.471C14.936,13.876,15.067,13.694,15.114,13.486L15.114,13.486z"/>
<path class="st2" d="M14.668,13.423c-0.027,0.076-0.077,0.138-0.143,0.175l-2.573,1.472c-0.1,0.056-0.226,0.057-0.326-0.001
	l-2.574-1.471c-0.102-0.058-0.165-0.167-0.165-0.285v-2.922c0-0.117,0.063-0.227,0.165-0.285l2.573-1.471
	c0.1-0.056,0.229-0.056,0.326,0l2.575,1.471c0.065,0.036,0.115,0.099,0.142,0.175l0.045,0.124h0.883l-0.036-0.218
	c-0.061-0.36-0.278-0.671-0.592-0.852l-2.574-1.471c-0.373-0.212-0.834-0.212-1.207,0L8.613,9.335C8.235,9.552,8,9.956,8,10.391
	v2.922c0,0.436,0.235,0.84,0.613,1.057l2.572,1.469C11.367,15.944,11.576,16,11.79,16c0.212,0,0.421-0.056,0.603-0.159l2.574-1.471
	c0.315-0.181,0.532-0.491,0.592-0.853l0.036-0.218h-0.883L14.668,13.423z"/>
<path class="st2" d="M15.708,12.039H15.52v-0.374h0.187c0.161,0,0.292-0.131,0.292-0.292s-0.131-0.292-0.292-0.292H15.52v-0.187
	c0-0.161-0.131-0.292-0.292-0.292s-0.292,0.131-0.292,0.292v0.187h-0.374v-0.187c0-0.161-0.131-0.292-0.292-0.292
	s-0.292,0.131-0.292,0.292v0.187H13.79c-0.161,0-0.292,0.131-0.292,0.292s0.131,0.292,0.292,0.292h0.187v0.374H13.79
	c-0.161,0-0.292,0.131-0.292,0.292s0.131,0.292,0.292,0.292h0.187v0.187c0,0.161,0.131,0.292,0.292,0.292s0.292-0.131,0.292-0.292
	v-0.187h0.374v0.187c0,0.161,0.131,0.292,0.292,0.292s0.292-0.131,0.292-0.292v-0.187h0.187c0.161,0,0.292-0.131,0.292-0.292
	S15.869,12.039,15.708,12.039z M15.029,12.132H14.47v-0.559h0.559V12.132z"/>
<path class="st2" d="M12.836,12.497c-0.154,0.358-0.538,0.589-0.977,0.589c-0.633,0-1.094-0.519-1.094-1.233
	c0-0.726,0.451-1.233,1.094-1.233c0.44,0,0.824,0.231,0.977,0.589l0.025,0.056h0.703l-0.029-0.116
	c-0.173-0.701-0.862-1.19-1.676-1.19c-1.035,0-1.815,0.815-1.815,1.895s0.78,1.894,1.815,1.894c0.814,0,1.504-0.489,1.676-1.19
	l0.029-0.116h-0.703L12.836,12.497z"/>
</svg>
