<?xml version="1.0" encoding="utf-8"?>
<!-- Generator: Adobe Illustrator 27.2.0, SVG Export Plug-In . SVG Version: 6.00 Build 0)  -->
<svg version="1.1" id="Layer_1" xmlns="http://www.w3.org/2000/svg" xmlns:xlink="http://www.w3.org/1999/xlink" x="0px" y="0px"
	 viewBox="0 0 16 16" style="enable-background:new 0 0 16 16;" xml:space="preserve">
<style type="text/css">
	.st0{fill:none;}
	.st1{fill:#CED0D6;}
	.st2{fill-rule:evenodd;clip-rule:evenodd;fill:#CED0D6;}
	.st3{fill:#F2C55C;}
	.st4{fill:#548AF7;}
	.st5{fill:#3D3223;}
	.st6{fill:#25324D;}
</style>
<rect id="frame" class="st0" width="16" height="16"/>
<path class="st1" d="M4.749,6.202H4.171c-0.098,0-0.177-0.079-0.177-0.177V2.177C3.994,2.079,3.915,2,3.817,2h-0.54
	C3.259,2,3.241,2.003,3.223,2.008l-1.527,0.49C1.606,2.527,1.554,2.623,1.58,2.715l0.132,0.473c0.027,0.095,0.126,0.15,0.22,0.122
	l0.756-0.221c0.113-0.033,0.227,0.052,0.227,0.17v2.766c0,0.098-0.079,0.177-0.177,0.177H2.001c-0.098,0-0.177,0.079-0.177,0.177
	v0.443C1.824,6.921,1.904,7,2.001,7h2.748c0.098,0,0.177-0.079,0.177-0.177V6.38C4.927,6.282,4.847,6.202,4.749,6.202z"/>
<path class="st2" d="M7.993,7C6.702,7,5.852,5.916,5.852,4.514V4.5c0-1.402,0.87-2.5,2.155-2.5c1.278,0,2.141,1.084,2.141,2.486V4.5
	C10.148,5.902,9.285,7,7.993,7z M8.012,6.04c0.642,0,1.05-0.649,1.05-1.526V4.5c0-0.877-0.428-1.54-1.064-1.54
	s-1.05,0.642-1.05,1.526V4.5C6.949,5.384,7.37,6.04,8.012,6.04z"/>
<path class="st1" d="M14.249,6.202h-0.578c-0.098,0-0.177-0.079-0.177-0.177V2.177C13.494,2.079,13.415,2,13.317,2h-0.54
	c-0.018,0-0.037,0.003-0.054,0.008l-1.527,0.49c-0.091,0.029-0.142,0.125-0.117,0.217l0.132,0.473
	c0.027,0.095,0.126,0.15,0.22,0.122l0.756-0.221c0.113-0.033,0.227,0.052,0.227,0.17v2.766c0,0.098-0.079,0.177-0.177,0.177h-0.737
	c-0.098,0-0.177,0.079-0.177,0.177v0.443C11.324,6.921,11.403,7,11.501,7h2.748c0.098,0,0.177-0.079,0.177-0.177V6.38
	C14.427,6.282,14.347,6.202,14.249,6.202z"/>
<path class="st2" d="M3.714,14c-1.291,0-2.141-1.084-2.141-2.486V11.5c0-1.402,0.87-2.5,2.155-2.5c1.278,0,2.141,1.084,2.141,2.486
	V11.5C5.869,12.902,5.006,14,3.714,14z M3.733,13.04c0.642,0,1.05-0.649,1.05-1.526V11.5c0-0.877-0.428-1.54-1.064-1.54
	s-1.05,0.642-1.05,1.526V11.5C2.67,12.384,3.091,13.04,3.733,13.04z"/>
<g>
	<path class="st3" d="M15.289,10.851c-0.07-0.275-0.178-0.559-0.368-0.78c-0.204-0.237-0.487-0.385-0.85-0.385h-0.348V10.3h0.411
		c0.154,0,0.251,0.054,0.329,0.146c0.13,0.152,0.173,0.344,0.231,0.53c0.166,0.528,0.166,1.239,0.001,1.767
		c-0.089,0.275-0.165,0.444-0.252,0.548c-0.067,0.079-0.148,0.128-0.309,0.128H13.49c-0.316,0-0.572,0.256-0.572,0.572
		c0,0.27,0,0.565,0,0.716c0,0.148-0.058,0.254-0.166,0.346c-0.146,0.125-0.329,0.185-0.51,0.242
		c-0.512,0.162-1.142,0.162-1.654,0.001l-0.003-0.002c-0.446-0.138-0.698-0.347-0.698-0.587v-1.689
		c0.009-0.2,0.145-0.381,0.287-0.521c0.144-0.141,0.338-0.225,0.536-0.225c0.893,0,0.893-0.695,1.83-0.695l-1.838-0.001
		c-0.377,0-0.738,0.166-1.008,0.43c-0.269,0.264-0.428,0.622-0.442,0.999c0,0.004,0,0.009,0,0.013v0.13v0.392v0.686v0.38
		c0,0.729,0.631,1.088,1.128,1.242c0.645,0.204,1.336,0.204,1.981,0.002c0.251-0.071,0.531-0.185,0.754-0.376
		c0.236-0.202,0.406-0.489,0.406-0.868v-0.572h0.549c0.356,0,0.63-0.132,0.833-0.372c0.182-0.216,0.292-0.503,0.381-0.781
		l0.001-0.002C15.494,12.218,15.495,11.511,15.289,10.851z"/>
	<path class="st4" d="M13.346,8.465c-0.216-0.222-0.503-0.362-0.81-0.396c-0.32-0.054-0.644-0.082-0.969-0.085h-0.002
		c-0.307-0.001-0.613,0.026-0.915,0.078h-0.001c-0.4,0.071-0.719,0.192-0.927,0.433c-0.212,0.246-0.245,0.548-0.245,0.82v0.572
		h-0.32c-0.344-0.009-0.681,0.105-0.949,0.321c-0.266,0.214-0.448,0.515-0.515,0.849c-0.181,0.654-0.181,1.344,0.002,1.997
		c0.073,0.3,0.202,0.589,0.412,0.808c0.22,0.228,0.513,0.364,0.867,0.364h0.279v-0.686H8.974c-0.164,0-0.388-0.057-0.48-0.153
		c-0.136-0.141-0.193-0.329-0.245-0.512c-0.152-0.538-0.152-1.106,0-1.644c0.054-0.192,0.119-0.356,0.281-0.487
		c0.142-0.115,0.321-0.175,0.504-0.169c0.003,0,0.007,0,0.01,0h0.515c0.316,0,0.572-0.256,0.572-0.572c0-0.268,0-0.541,0-0.782
		c0-0.232,0.035-0.321,0.079-0.373c0.05-0.058,0.173-0.142,0.524-0.204c0.263-0.046,0.561-0.069,0.828-0.068
		c0.291,0.002,0.639,0.019,0.926,0.068c0.162,0.028,0.305,0.075,0.424,0.197c0.104,0.107,0.169,0.246,0.183,0.394v1.77
		c0,0.149-0.058,0.293-0.162,0.399c-0.104,0.106-0.244,0.168-0.392,0.173c-0.937,0-0.937,0.695-1.83,0.695h1.786
		c0.328,0,0.64-0.145,0.869-0.38c0.229-0.235,0.357-0.551,0.357-0.878V9.324h0.001C13.724,9.01,13.561,8.687,13.346,8.465z"/>
	<path class="st5" d="M14.695,10.974c-0.058-0.185-0.101-0.378-0.231-0.53c-0.079-0.092-0.175-0.145-0.329-0.145h-0.411v0.713
		c0,0.328-0.128,0.643-0.357,0.878c-0.229,0.235-0.541,0.38-0.869,0.38h-0.588c0,0,0,0-0.001,0h-1.197
		c-0.198,0-0.392,0.084-0.536,0.225c-0.143,0.14-0.279,0.321-0.288,0.521v1.689c0,0.24,0.253,0.449,0.698,0.587l0.002,0.001
		c0.512,0.162,1.142,0.161,1.654-0.001c0.18-0.057,0.363-0.117,0.51-0.242c0.108-0.092,0.166-0.198,0.166-0.346
		c0-0.151,0-0.446,0-0.716c0-0.316,0.256-0.572,0.572-0.572h0.645c0.161,0,0.241-0.049,0.309-0.128
		c0.087-0.103,0.164-0.273,0.252-0.548C14.861,12.213,14.861,11.502,14.695,10.974z"/>
	<path class="st6" d="M9.254,13.004c0.014-0.377,0.172-0.735,0.442-0.999s0.63-0.43,1.008-0.43h0.51h1.329
		c0.148-0.005,0.288-0.066,0.391-0.172c0.104-0.107,0.162-0.25,0.162-0.399v-1.77c-0.014-0.148-0.079-0.288-0.183-0.394
		c-0.118-0.122-0.261-0.169-0.423-0.197c-0.287-0.049-0.635-0.066-0.926-0.068c-0.267-0.001-0.565,0.022-0.828,0.068
		c-0.351,0.062-0.475,0.146-0.524,0.204c-0.045,0.052-0.079,0.141-0.079,0.373c0,0.241,0,0.514,0,0.782
		c0,0.316-0.256,0.572-0.572,0.572H9.044c-0.003,0-0.007,0-0.01,0c-0.183-0.005-0.362,0.055-0.504,0.169
		c-0.162,0.13-0.226,0.295-0.281,0.487c-0.152,0.538-0.152,1.106,0,1.644c0.052,0.184,0.109,0.371,0.245,0.512
		c0.093,0.097,0.317,0.153,0.48,0.153h0.279v-0.392v-0.13C9.254,13.013,9.254,13.008,9.254,13.004z"/>
	<path class="st3" d="M11.685,13.737c0.116,0,0.226,0.046,0.307,0.128c0.082,0.081,0.128,0.192,0.128,0.307
		c0,0.115-0.046,0.226-0.128,0.307c-0.081,0.082-0.192,0.128-0.307,0.128c-0.116,0-0.226-0.046-0.307-0.128
		c-0.082-0.082-0.128-0.192-0.128-0.307c0-0.116,0.046-0.226,0.128-0.307C11.459,13.783,11.57,13.737,11.685,13.737z"/>
	<path class="st4" d="M11.303,9.471c0.086-0.001,0.171,0.023,0.243,0.07c0.072,0.047,0.129,0.114,0.162,0.194
		c0.034,0.079,0.043,0.167,0.027,0.252c-0.016,0.085-0.057,0.162-0.118,0.224c-0.061,0.062-0.138,0.104-0.222,0.121
		c-0.085,0.017-0.172,0.009-0.252-0.024c-0.079-0.033-0.148-0.089-0.196-0.16c-0.048-0.071-0.074-0.156-0.074-0.242
		c-0.001-0.057,0.01-0.113,0.031-0.166s0.053-0.101,0.093-0.141c0.04-0.041,0.088-0.073,0.14-0.094
		C11.191,9.482,11.247,9.471,11.303,9.471z"/>
</g>
</svg>
