<?xml version="1.0" encoding="utf-8"?>
<!-- Generator: Adobe Illustrator 27.2.0, SVG Export Plug-In . SVG Version: 6.00 Build 0)  -->
<svg version="1.1" id="Layer_1" xmlns="http://www.w3.org/2000/svg" xmlns:xlink="http://www.w3.org/1999/xlink" x="0px" y="0px"
	 viewBox="0 0 16 16" style="enable-background:new 0 0 16 16;" xml:space="preserve">
<style type="text/css">
	.st0{fill:#FFAF0F;}
	.st1{fill:#3574F0;}
	.st2{fill:#FFFAEB;}
	.st3{fill:#EDF3FF;}
</style>
<path class="st0" d="M14.519,6.013c-0.122-0.481-0.312-0.978-0.643-1.364c-0.356-0.415-0.852-0.673-1.487-0.673h-0.608v1.073H12.5
	c0.27,0,0.438,0.094,0.576,0.255c0.227,0.265,0.302,0.602,0.404,0.926c0.291,0.924,0.291,2.166,0.001,3.09
	c-0.155,0.48-0.288,0.777-0.44,0.958c-0.118,0.139-0.258,0.224-0.54,0.224h-1.127c-0.552,0-1,0.447-1,1c0,0.472,0,0.988,0,1.252
	c0,0.258-0.102,0.444-0.29,0.605c-0.256,0.219-0.576,0.323-0.891,0.423c-0.895,0.283-1.997,0.284-2.892,0.001L6.296,13.78
	c-0.779-0.242-1.221-0.607-1.221-1.027V9.8C5.09,9.451,5.328,9.133,5.577,8.889c0.251-0.246,0.591-0.393,0.937-0.393
	c1.561,0,1.561-1.216,3.2-1.216L6.5,7.279c-0.66,0-1.291,0.29-1.762,0.752C4.267,8.493,3.99,9.119,3.966,9.778
	c0,0.007,0,0.015,0,0.022v0.227v0.685v1.2v0.664c0,1.275,1.103,1.902,1.972,2.172c1.127,0.357,2.336,0.357,3.463,0.003
	c0.439-0.124,0.928-0.324,1.319-0.658c0.412-0.353,0.71-0.855,0.71-1.517v-1h0.96c0.622,0,1.102-0.231,1.456-0.65
	c0.319-0.377,0.51-0.88,0.667-1.366l0.001-0.004C14.877,8.403,14.879,7.167,14.519,6.013z"/>
<path class="st1" d="M11.121,1.842c-0.378-0.388-0.879-0.633-1.417-0.693C9.145,1.055,8.578,1.005,8.01,1H8.007
	c-0.536-0.001-1.072,0.045-1.6,0.137H6.406c-0.699,0.124-1.258,0.336-1.62,0.757c-0.37,0.431-0.429,0.959-0.429,1.434v1h-0.56
	c-0.602-0.016-1.19,0.183-1.66,0.561c-0.465,0.374-0.783,0.9-0.9,1.484C0.92,7.516,0.921,8.723,1.241,9.864
	c0.128,0.525,0.353,1.029,0.721,1.412c0.384,0.399,0.897,0.636,1.516,0.636h0.488v-1.2H3.478c-0.286,0-0.678-0.099-0.84-0.267
	C2.4,10.198,2.3,9.87,2.209,9.549c-0.265-0.94-0.265-1.934,0-2.874C2.304,6.34,2.417,6.052,2.7,5.824
	c0.249-0.201,0.562-0.306,0.882-0.296c0.006,0,0.012,0,0.018,0h0.9c0.552,0,1-0.448,1-1c0-0.469,0-0.946,0-1.368
	c0-0.406,0.061-0.561,0.139-0.652C5.726,2.407,5.942,2.26,6.556,2.151c0.459-0.08,0.981-0.12,1.447-0.119
	C8.511,2.036,9.12,2.065,9.622,2.151c0.284,0.049,0.534,0.132,0.742,0.345c0.182,0.187,0.295,0.43,0.32,0.689V6.28
	c0,0.261-0.102,0.512-0.284,0.698C10.218,7.163,9.973,7.271,9.714,7.28c-1.639,0-1.639,1.216-3.2,1.216h3.122
	c0.574,0,1.119-0.253,1.52-0.664c0.401-0.411,0.625-0.963,0.625-1.536V3.344h0.001C11.782,2.795,11.498,2.229,11.121,1.842z"/>
<path class="st2" d="M13.48,6.229c-0.102-0.323-0.177-0.661-0.404-0.926c-0.138-0.16-0.306-0.254-0.576-0.254h-0.718v1.247
	c0,0.574-0.224,1.125-0.625,1.536s-0.946,0.664-1.52,0.664H8.609c0,0,0,0-0.001,0H6.515c-0.346,0-0.686,0.147-0.937,0.393
	C5.328,9.133,5.09,9.451,5.075,9.8v2.953c0,0.42,0.442,0.785,1.221,1.027l0.003,0.001c0.895,0.283,1.997,0.282,2.892-0.001
	c0.315-0.1,0.635-0.204,0.891-0.423c0.188-0.161,0.29-0.347,0.29-0.605c0-0.264,0-0.78,0-1.252c0-0.553,0.448-1,1-1h1.127
	c0.282,0,0.422-0.085,0.54-0.224c0.152-0.18,0.286-0.477,0.44-0.958C13.771,8.395,13.771,7.152,13.48,6.229z"/>
<path class="st3" d="M3.966,9.778c0.024-0.66,0.3-1.285,0.772-1.747S5.84,7.279,6.5,7.279h0.891h2.323
	c0.258-0.008,0.504-0.116,0.684-0.301c0.182-0.187,0.284-0.437,0.284-0.698V3.185c-0.025-0.259-0.138-0.503-0.32-0.689
	C10.156,2.283,9.906,2.2,9.622,2.151C9.12,2.065,8.511,2.036,8.003,2.032C7.537,2.031,7.015,2.071,6.556,2.151
	C5.942,2.26,5.726,2.407,5.639,2.508C5.561,2.599,5.5,2.755,5.5,3.16c0,0.422,0,0.899,0,1.368c0,0.552-0.448,1-1,1H3.6
	c-0.006,0-0.012,0-0.018,0C3.262,5.519,2.949,5.624,2.7,5.824C2.417,6.052,2.304,6.34,2.209,6.675c-0.265,0.94-0.265,1.934,0,2.874
	C2.3,9.87,2.4,10.198,2.637,10.445c0.162,0.169,0.555,0.267,0.84,0.267h0.488v-0.685V9.8C3.966,9.793,3.966,9.785,3.966,9.778z"/>
<path class="st0" d="M8.217,11.06c0.202,0,0.395,0.08,0.537,0.223c0.143,0.142,0.223,0.336,0.223,0.537
	c0,0.201-0.08,0.395-0.223,0.537C8.612,12.5,8.419,12.58,8.217,12.58S7.822,12.5,7.68,12.357c-0.143-0.143-0.223-0.336-0.223-0.537
	c0-0.202,0.08-0.395,0.223-0.537C7.823,11.14,8.016,11.06,8.217,11.06z"/>
<path class="st1" d="M7.55,3.6c0.151-0.002,0.299,0.041,0.425,0.123s0.225,0.2,0.284,0.339s0.075,0.292,0.047,0.44
	C8.278,4.65,8.206,4.786,8.1,4.894S7.859,5.075,7.712,5.105c-0.148,0.03-0.301,0.016-0.44-0.042
	c-0.139-0.057-0.259-0.155-0.343-0.28S6.8,4.511,6.8,4.36C6.799,4.261,6.817,4.162,6.854,4.07s0.092-0.176,0.162-0.247
	c0.07-0.071,0.153-0.127,0.245-0.165C7.353,3.62,7.451,3.6,7.55,3.6z"/>
</svg>
