<?xml version="1.0" encoding="utf-8"?>
<!-- Generator: Adobe Illustrator 27.2.0, SVG Export Plug-In . SVG Version: 6.00 Build 0)  -->
<svg version="1.1" id="Layer_1" xmlns="http://www.w3.org/2000/svg" xmlns:xlink="http://www.w3.org/1999/xlink" x="0px" y="0px"
	 viewBox="0 0 16 16" style="enable-background:new 0 0 16 16;" xml:space="preserve">
<style type="text/css">
	.st0{fill:#3574F0;}
	.st1{fill:#E7EFFD;stroke:#3574F0;}
	.st2{fill:none;stroke:#3574F0;}
</style>
<path class="st0" d="M2.5,13h11c0.276,0,0.5,0.224,0.5,0.5l0,0c0,0.276-0.224,0.5-0.5,0.5h-11C2.224,14,2,13.776,2,13.5l0,0
	C2,13.224,2.224,13,2.5,13z"/>
<path class="st1" d="M2.5,3.6c0-0.288,0-0.474,0.012-0.616c0.011-0.136,0.03-0.186,0.043-0.211c0.048-0.094,0.124-0.171,0.218-0.218
	c0.025-0.013,0.075-0.031,0.211-0.043C3.126,2.5,3.312,2.5,3.6,2.5h7.8c0.288,0,0.474,0,0.616,0.012
	c0.136,0.011,0.186,0.03,0.211,0.043c0.094,0.048,0.171,0.124,0.219,0.218l0.441-0.225l-0.441,0.225
	c0.013,0.025,0.031,0.075,0.042,0.211C12.5,3.126,12.5,3.312,12.5,3.6v2.9c0,1.432-0.005,2.037-0.151,2.516
	c-0.339,1.119-1.215,1.994-2.333,2.333C9.537,11.495,8.932,11.5,7.5,11.5s-2.037-0.005-2.516-0.151
	C3.865,11.01,2.99,10.135,2.651,9.016C2.505,8.537,2.5,7.932,2.5,6.5V3.6z"/>
<path class="st2" d="M12.5,2.5h2C14.776,2.5,15,2.724,15,3v1.181c0,0.6-0.358,1.142-0.909,1.379L12.5,6.242V2.5z"/>
</svg>
