<?xml version="1.0" encoding="utf-8"?>
<!-- Generator: Adobe Illustrator 27.2.0, SVG Export Plug-In . SVG Version: 6.00 Build 0)  -->
<svg version="1.1" id="Layer_1" xmlns="http://www.w3.org/2000/svg" xmlns:xlink="http://www.w3.org/1999/xlink" x="0px" y="0px"
	 viewBox="0 0 16 16" style="enable-background:new 0 0 16 16;" xml:space="preserve">
<style type="text/css">
	.st0{fill-rule:evenodd;clip-rule:evenodd;fill:#FFFFFF;}
</style>
<path class="st0" d="M10.32,9.436c0.207,0.207,0.544,0.207,0.751,0l1.503-1.503c0.909-0.909,1.021-2.312,0.338-3.343l0.413-0.413
	c0.207-0.207,0.207-0.544,0-0.751l-0.751-0.751c-0.207-0.207-0.544-0.207-0.751,0L11.41,3.088c-1.031-0.683-2.435-0.571-3.343,0.338
	L6.564,4.929c-0.207,0.207-0.207,0.544,0,0.751l0.376,0.376L6.055,6.939L5.68,6.564c-0.207-0.207-0.544-0.207-0.751,0L3.426,8.066
	c-0.909,0.909-1.021,2.312-0.338,3.343l-0.413,0.413c-0.207,0.207-0.207,0.544,0,0.751l0.751,0.751c0.207,0.207,0.544,0.207,0.751,0
	l0.413-0.413c1.031,0.683,2.435,0.571,3.343-0.338l1.503-1.503c0.207-0.207,0.207-0.544,0-0.751L9.061,9.945l0.884-0.884
	L10.32,9.436z M7.691,6.807l1.503,1.503L8.309,9.193L6.807,7.691L7.691,6.807z M8.818,4.177c0.622-0.622,1.632-0.622,2.254,0
	l0.751,0.751c0.622,0.622,0.622,1.632,0,2.254l-1.127,1.127L7.691,5.304L8.818,4.177z M7.182,11.823
	c-0.622,0.622-1.632,0.622-2.254,0l-0.751-0.751c-0.622-0.622-0.622-1.632,0-2.254l1.127-1.127l3.005,3.005L7.182,11.823z"/>
</svg>
