<?xml version="1.0" encoding="utf-8"?>
<!-- Generator: Adobe Illustrator 27.2.0, SVG Export Plug-In . SVG Version: 6.00 Build 0)  -->
<svg version="1.1" id="Layer_1" xmlns="http://www.w3.org/2000/svg" xmlns:xlink="http://www.w3.org/1999/xlink" x="0px" y="0px"
	 viewBox="0 0 16 16" style="enable-background:new 0 0 16 16;" xml:space="preserve">
<style type="text/css">
	.st0{fill-rule:evenodd;clip-rule:evenodd;fill:#FFFFFF;}
</style>
<path class="st0" d="M1.365,13.338c-0.683-1.031-0.571-2.435,0.338-3.343l1.503-1.503c0.207-0.207,0.544-0.207,0.751,0l0.376,0.376
	l1.127-1.127c0.207-0.207,0.544-0.207,0.751,0c0.207,0.207,0.207,0.544,0,0.751L5.084,9.619l1.503,1.503l1.127-1.127
	c0.207-0.207,0.544-0.207,0.751,0c0.207,0.207,0.207,0.544,0,0.751l-1.127,1.127l0.376,0.376c0.207,0.207,0.207,0.544,0,0.751
	l-1.503,1.503c-0.909,0.909-2.312,1.021-3.343,0.338l-0.413,0.413c-0.207,0.207-0.544,0.207-0.751,0l-0.751-0.751
	c-0.207-0.207-0.207-0.544,0-0.751L1.365,13.338z M3.205,13.751L2.454,13c-0.622-0.622-0.622-1.632,0-2.254l1.127-1.127l3.005,3.005
	l-1.127,1.127C4.837,14.374,3.828,14.374,3.205,13.751z"/>
<path class="st0" d="M13.849,0.949c0.207-0.207,0.544-0.207,0.751,0L15.351,1.7c0.207,0.207,0.207,0.544,0,0.751l-0.413,0.413
	C15.621,3.896,15.509,5.3,14.6,6.208l-1.503,1.503c-0.207,0.207-0.544,0.207-0.751,0L11.97,7.335l-1.127,1.127
	c-0.207,0.207-0.544,0.207-0.751,0c-0.207-0.207-0.207-0.544,0-0.751l1.127-1.127L9.717,5.081L8.59,6.208
	c-0.207,0.207-0.544,0.207-0.751,0c-0.207-0.207-0.207-0.544,0-0.751L8.965,4.33L8.59,3.954c-0.207-0.207-0.207-0.544,0-0.751
	L10.092,1.7c0.909-0.909,2.312-1.021,3.343-0.338L13.849,0.949z M13.849,5.457l-1.127,1.127L9.717,3.579l1.127-1.127
	c0.622-0.622,1.632-0.622,2.254,0l0.751,0.751C14.471,3.825,14.471,4.835,13.849,5.457z"/>
</svg>
