<?xml version="1.0" encoding="utf-8"?>
<!-- Generator: Adobe Illustrator 24.1.0, SVG Export Plug-In . SVG Version: 6.00 Build 0)  -->
<svg version="1.1" id="Layer_1" xmlns="http://www.w3.org/2000/svg" xmlns:xlink="http://www.w3.org/1999/xlink" x="0px" y="0px"
	 width="16px" height="16px" viewBox="0 0 16 16" style="enable-background:new 0 0 16 16;" xml:space="preserve">
<style type="text/css">
	.st0{fill:none;}
	.st1{fill-rule:evenodd;clip-rule:evenodd;fill:#9AA7B0;fill-opacity:0.8;}
</style>
<rect id="frame" class="st0" width="16" height="16"/>
<g>
	<path class="st1" d="M7.98,4L6.7,2.71C6.3,2.32,5.53,2,4.98,2H1.05C1.02,2,1,2.02,1,2.05V6h1V3h3c0.28,0,0.78,0.21,0.97,0.4
		l1.3,1.3L7.57,5H14v1v1l1,0.55V4H7.98z"/>
	<polygon class="st1" points="14,9 14,8.24 13.64,8 13,8 13,9 12,9 12,8.24 11.64,8 11,8 11,9 10,9 10,8.24 9.64,8 9,8 9,9 8,9 
		8,8.24 7.64,8 7,8 7,9 6,9 6,8.24 5.64,8 5,8 5,9 4,9 4,8.24 3.64,8 3,8 3,9 2,9 2,8.24 1,7.57 1,13 15,13 15,9 	"/>
</g>
</svg>
