<?xml version="1.0" encoding="utf-8"?>
<!-- Generator: Adobe Illustrator 24.1.0, SVG Export Plug-In . SVG Version: 6.00 Build 0)  -->
<svg version="1.1" id="Layer_1" xmlns="http://www.w3.org/2000/svg" xmlns:xlink="http://www.w3.org/1999/xlink" x="0px" y="0px"
	 width="16px" height="16px" viewBox="0 0 16 16" style="enable-background:new 0 0 16 16;" xml:space="preserve">
<style type="text/css">
	.st0{fill:none;}
	.st1{fill-rule:evenodd;clip-rule:evenodd;fill:#9AA7B0;fill-opacity:0.8;}
	.st2{fill-rule:evenodd;clip-rule:evenodd;fill:#40B6E0;fill-opacity:0.7;}
	.st3{fill-rule:evenodd;clip-rule:evenodd;fill:#231F20;fill-opacity:0.7;}
</style>
<rect id="frame" class="st0" width="16" height="16"/>
<g>
	<path class="st1" d="M7.98,3L6.7,1.71C6.3,1.32,5.53,1,4.98,1H1.05C1.02,1,1,1.02,1,1.05V7h1V2h3c0.28,0,0.78,0.21,0.97,0.4
		l1.3,1.3L7.57,4H14v3h1V3H7.98z"/>
	<path class="st2" d="M1,15h15V8H1V15z"/>
	<path class="st3" d="M3.39,12.59C3.63,12.84,3.84,13,4.29,13C4.81,13,5,12.59,5,12.3V9h1v3.59C6,13.32,5.33,14,4.45,14
		c-0.82,0-1.3-0.24-1.65-0.68C2.8,13.32,3.39,12.59,3.39,12.59z"/>
</g>
</svg>
