<?xml version="1.0" encoding="utf-8"?>
<!-- Generator: Adobe Illustrator 24.1.0, SVG Export Plug-In . SVG Version: 6.00 Build 0)  -->
<svg version="1.1" id="Layer_1" xmlns="http://www.w3.org/2000/svg" xmlns:xlink="http://www.w3.org/1999/xlink" x="0px" y="0px"
	 width="16px" height="16px" viewBox="0 0 16 16" style="enable-background:new 0 0 16 16;" xml:space="preserve">
<style type="text/css">
	.st0{fill:none;}
	.st1{fill-rule:evenodd;clip-rule:evenodd;fill:#9AA7B0;fill-opacity:0.8;}
	.st2{fill-rule:evenodd;clip-rule:evenodd;fill:#6E6E6E;}
</style>
<rect id="frame" class="st0" width="16" height="16"/>
<path class="st1" d="M7.99,4L6.7,2.71C6.22,2.29,5.62,2.03,4.98,2H1v11h3.16c0.09-0.37,0.32-0.71,0.66-0.94
	c0.27-0.17,0.66-0.43,1.01-0.66c-0.31-0.45-0.57-0.93-0.79-1.44C4.96,9.73,4.92,9.51,4.93,9.28L4,9.28v-1V8H2V3h3
	c0.28,0,0.78,0.21,0.97,0.4l1.3,1.3L7.57,5h0.8h0.03H14v3h-0.8c0.42,0.18,0.75,0.51,0.9,0.94l0.9,2.14V4H7.99z"/>
<path class="st2" d="M10.03,13.77c-0.66-0.4-1.81-1.35-1.84-1.32c-0.61,0.47-1.26,0.9-1.92,1.28c-0.39,0.23-0.8,0.28-1.05-0.05
	c-0.19-0.25-0.13-0.6,0.14-0.78c0,0,1.45-0.92,1.92-1.32C6.73,11,6.29,10.32,5.97,9.57c-0.13-0.3,0.02-0.63,0.31-0.78
	C6.6,8.65,6.9,8.72,7.15,9.13c0.25,0.6,0.61,1.17,1.05,1.65c0.6-0.72,1.04-1.57,1.26-2.48L5,8.28V7.15h2.8V6.58
	C7.8,6.27,8.03,6.02,8.36,6c0.33-0.02,0.58,0.23,0.6,0.53c0,0.02,0,0.03,0,0.03v0.57h3.02v1.15h-1.21c-0.3,1.18-0.82,2.28-1.54,3.28
	c0.42,0.35,0.86,0.67,1.34,0.95l1.35-3.23c0.13-0.35,0.52-0.52,0.86-0.38c0.19,0.07,0.33,0.22,0.39,0.4l1.76,4.2L16,16h-1.45
	l-0.63-1.45h-2.81L10.59,16H9.09L10.03,13.77z M12.54,10.82l-0.97,2.6h1.95L12.54,10.82L12.54,10.82z"/>
</svg>
