<?xml version="1.0" encoding="utf-8"?>
<!-- Generator: Adobe Illustrator 24.1.0, SVG Export Plug-In . SVG Version: 6.00 Build 0)  -->
<svg version="1.1" id="Layer_1" xmlns="http://www.w3.org/2000/svg" xmlns:xlink="http://www.w3.org/1999/xlink" x="0px" y="0px"
	 width="16px" height="16px" viewBox="0 0 16 16" style="enable-background:new 0 0 16 16;" xml:space="preserve">
<style type="text/css">
	.st0{fill:none;}
	.st1{fill-rule:evenodd;clip-rule:evenodd;fill:#9AA7B0;fill-opacity:0.8;}
	.st2{fill-rule:evenodd;clip-rule:evenodd;fill:#62B543;fill-opacity:0.7;}
	.st3{fill-rule:evenodd;clip-rule:evenodd;fill:#40B6E0;fill-opacity:0.7;}
</style>
<rect id="frame" class="st0" width="16" height="16"/>
<path class="st1" d="M7.98,4L6.7,2.71C6.22,2.29,5.62,2.03,4.98,2H1.05C1.02,2,1,2.02,1,2.05V13h7V9h7V4H7.98z M14,8H2V3h3
	c0.28,0,0.78,0.21,0.97,0.4l1.3,1.3L7.57,5H14V8z"/>
<g id="Layer_2_1_">
	<g>
		<path class="st2" d="M15,15H9v-1.67c0,0,1.77-1.58,2.57-0.83c1,0.81,2.17,1.39,3.43,1.67V15z"/>
		<path class="st3" d="M9,10h6v3.33c-1.26-0.28-2.43-0.85-3.43-1.67C10.77,10.92,9,12.5,9,12.5V10z M13.5,12
			c0.28,0,0.5-0.22,0.5-0.5S13.78,11,13.5,11S13,11.22,13,11.5S13.22,12,13.5,12z"/>
	</g>
</g>
</svg>
