<?xml version="1.0" encoding="utf-8"?>
<!-- Generator: Adobe Illustrator 24.1.0, SVG Export Plug-In . SVG Version: 6.00 Build 0)  -->
<svg version="1.1" id="Layer_1" xmlns="http://www.w3.org/2000/svg" xmlns:xlink="http://www.w3.org/1999/xlink" x="0px" y="0px"
	 width="16px" height="16px" viewBox="0 0 16 16" style="enable-background:new 0 0 16 16;" xml:space="preserve">
<style type="text/css">
	.st0{fill:none;}
	.st1{fill-rule:evenodd;clip-rule:evenodd;fill:#F98B9E;fill-opacity:0.6;}
	.st2{fill-rule:evenodd;clip-rule:evenodd;fill:#231F20;fill-opacity:0.7;}
</style>
<rect id="frame" class="st0" width="16" height="16"/>
<g>
	<path class="st1" d="M15,8c0,3.86599-3.13401,7-7,7s-7-3.13401-7-7s3.13401-7,7-7S15,4.13401,15,8"/>
	<path class="st2" d="M11.4935,7.5c0-0.749-0.357-2-2.01-2c-0.87,0-1.324,0.502-1.383,0.6c-0.315-0.406-0.655-0.6-1.499-0.6
		c-0.468,0-0.835,0.1-1.1,0.3V5.5h-1v5h1c-0.033-1.844-0.033-2.844,0-3c0.05-0.234,0.05-1,1-1s0.999,0.537,1,1v3h1v-3
		c0-0.314-0.04-1,0.982-1s1.022,0.74,1.023,1v3h0.992L11.4935,7.5z"/>
</g>
</svg>
