<?xml version="1.0" encoding="utf-8"?>
<!-- Generator: Adobe Illustrator 27.2.0, SVG Export Plug-In . SVG Version: 6.00 Build 0)  -->
<svg version="1.1" id="Layer_1" xmlns="http://www.w3.org/2000/svg" xmlns:xlink="http://www.w3.org/1999/xlink" x="0px" y="0px"
	 viewBox="0 0 16 16" style="enable-background:new 0 0 16 16;" xml:space="preserve">
<style type="text/css">
	.st0{fill-rule:evenodd;clip-rule:evenodd;fill:#40B6E0;fill-opacity:0.6;}
	.st1{fill-rule:evenodd;clip-rule:evenodd;fill:#231F20;fill-opacity:0.7;}
</style>
<g>
	<path class="st0" d="M15,8c0,3.866-3.134,7-7,7s-7-3.134-7-7s3.134-7,7-7S15,4.134,15,8"/>
	<path class="st1" d="M8.153,11c-0.892,0-1.733-0.308-2.433-0.933l0.617-0.733c0.558,0.483,1.125,0.758,1.842,0.758
		c0.633,0,1.033-0.3,1.033-0.733V9.342c0-0.417-0.233-0.642-1.317-0.892c-1.242-0.3-1.942-0.667-1.942-1.742V6.692
		c0-1,0.833-1.692,1.992-1.692c0.85,0,1.525,0.258,2.117,0.733l-0.55,0.775c-0.525-0.392-1.05-0.6-1.583-0.6
		c-0.6,0-0.95,0.308-0.95,0.692v0.017c0,0.45,0.267,0.65,1.392,0.917c1.233,0.3,1.867,0.742,1.867,1.708v0.017
		C10.237,10.35,9.378,11,8.153,11z"/>
</g>
</svg>
