<?xml version="1.0" encoding="utf-8"?>
<!-- Generator: Adobe Illustrator 24.1.0, SVG Export Plug-In . SVG Version: 6.00 Build 0)  -->
<svg version="1.1" id="Layer_1" xmlns="http://www.w3.org/2000/svg" xmlns:xlink="http://www.w3.org/1999/xlink" x="0px" y="0px"
	 width="16px" height="16px" viewBox="0 0 16 16" style="enable-background:new 0 0 16 16;" xml:space="preserve">
<style type="text/css">
	.st0{fill:none;}
	.st1{fill-rule:evenodd;clip-rule:evenodd;fill:#9AA7B0;fill-opacity:0.8;}
	.st2{fill-rule:evenodd;clip-rule:evenodd;fill:#40B6E0;}
</style>
<rect id="frame" class="st0" width="16" height="16"/>
<g>
	<path class="st1" d="M7.98,4L6.7,2.71C6.3,2.32,5.53,2,4.98,2H1.05C1.02,2,1,2.02,1,2.05V13h14V4H7.98z M14,8H8.65
		C8.68,8.16,8.7,8.33,8.7,8.5c0,0.72-0.28,1.4-0.79,1.91v0C7.4,10.91,6.72,11.2,6,11.2c-1.49,0-2.7-1.21-2.7-2.7
		c0-0.17,0.02-0.34,0.05-0.5H2V3h3c0.28,0,0.78,0.21,0.97,0.4l1.3,1.3L7.57,5H14V8z"/>
	<path class="st2" d="M6,10.49c-1.1,0-2-0.89-2-2c0-1.1,0.89-2,2-2s2,0.89,2,2C8,9.6,7.1,10.49,6,10.49"/>
</g>
</svg>
