<?xml version="1.0" encoding="utf-8"?>
<!-- Generator: Adobe Illustrator 27.2.0, SVG Export Plug-In . SVG Version: 6.00 Build 0)  -->
<svg version="1.1" id="Layer_1" xmlns="http://www.w3.org/2000/svg" xmlns:xlink="http://www.w3.org/1999/xlink" x="0px" y="0px"
	 viewBox="0 0 16 16" style="enable-background:new 0 0 16 16;" xml:space="preserve">
<style type="text/css">
	.st0{fill:#FFFFFF;}
</style>
<g>
	<g>
		<path class="st0" d="M8,2.5C8,2.5,8,1,8,1c-4.77,0.039-8.303,5.026-6.538,9.239c0.53,1.323,1.618,2.4,2.899,2.964
			c-0.928-0.946-1.767-2.029-2.145-3.223C0.807,6.403,4.059,2.283,8,2.5z M14.538,5.761c-0.53-1.323-1.618-2.4-2.899-2.964
			c0.928,0.946,1.767,2.029,2.145,3.223C15.193,9.597,11.941,13.717,8,13.5c0,0,0,1.5,0,1.5C12.77,14.961,16.303,9.974,14.538,5.761
			z"/>
	</g>
</g>
</svg>
