<?xml version="1.0" encoding="utf-8"?>
<!-- Generator: Adobe Illustrator 27.2.0, SVG Export Plug-In . SVG Version: 6.00 Build 0)  -->
<svg version="1.1" id="Layer_1" xmlns="http://www.w3.org/2000/svg" xmlns:xlink="http://www.w3.org/1999/xlink" x="0px" y="0px"
	 viewBox="0 0 16 16" style="enable-background:new 0 0 16 16;" xml:space="preserve">
<style type="text/css">
	.st0{fill:#EBECF0;}
	.st1{fill-rule:evenodd;clip-rule:evenodd;fill:#6C707E;}
	.st2{fill:#40B6E0;}
</style>
<path class="st0" d="M4.714,9.328L7.56,8.036l2.203,1.41L11.657,8H1v4.133C1,13.164,1.731,14,2.633,14h2.081V9.328z"/>
<path class="st1" d="M4.714,13H2.633C2.405,13,2,12.742,2,12.133V9h3.436L7.56,8.036L9.066,9h1.281l1.309-1H2V3.867
	C2,3.258,2.405,3,2.633,3h3.488L8.04,5H13c0.552,0,1,0.448,1,1v1.183l1,0.346V6c0-1.105-0.895-2-2-2H8.467L6.843,2.308
	C6.655,2.111,6.394,2,6.122,2H2.633C1.731,2,1,2.836,1,3.867v8.267C1,13.164,1.731,14,2.633,14h2.081V13z"/>
<g id="g4" transform="matrix(0.25000001,0,0,0.25000001,6.4999996,5.4999997)">
	<path id="path3" class="st2" d="M9.359,30.969l-5.632,3.689l-4.584-2.081V19.421l4.591-2.085l23.377,14.963l1.746-0.997V20.694
		h-2.286v8.493L3.915,14.685l-7.058,3.203v16.221l7.066,3.207l7.373-4.829L9.359,30.969z"/>
	<path id="path4" class="st2" d="M27.217,10l-11.99,9.157l2.085,1.335l10.31-7.872l8.093,2.801v21.155l-8.085,2.799L4.407,21.182
		l-1.835,0.934v8.354h2.286v-5.982L27.21,42L38,38.265V13.733L27.217,10z"/>
</g>
</svg>
