<?xml version="1.0" encoding="utf-8"?>
<!-- Generator: Adobe Illustrator 27.2.0, SVG Export Plug-In . SVG Version: 6.00 Build 0)  -->
<svg version="1.1" id="Layer_1" xmlns="http://www.w3.org/2000/svg" xmlns:xlink="http://www.w3.org/1999/xlink" x="0px" y="0px"
	 viewBox="0 0 16 16" style="enable-background:new 0 0 16 16;" xml:space="preserve">
<style type="text/css">
	.st0{fill-rule:evenodd;clip-rule:evenodd;fill:#FFFFFF;}
</style>
<path class="st0" d="M14.412,8.295c-0.391-0.391-1.024-0.391-1.414,0l-1.351,1.351L8,13.293V16h2.707l4.998-4.998
	c0.391-0.391,0.391-1.024,0-1.414L14.412,8.295z M14,11.293l0.998-0.998l-1.293-1.293L12.707,10L14,11.293z M12,10.707L13.293,12
	l-3,3H9v-1.293L12,10.707z"/>
<path class="st0" d="M3,13V5.414c0-0.265,0.105-0.52,0.293-0.707l3.414-3.414C6.895,1.105,7.149,1,7.414,1H11c1.105,0,2,0.895,2,2
	v4.13c-0.259,0.097-0.501,0.25-0.709,0.458L12,7.879V3c0-0.552-0.448-1-1-1H8v2c0,1.105-0.895,2-2,2H4v7c0,0.552,0.448,1,1,1h2v1H5
	C3.895,15,3,14.105,3,13z M4.414,5L7,2.414V4c0,0.552-0.448,1-1,1H4.414z"/>
</svg>
