<?xml version="1.0" encoding="utf-8"?>
<!-- Generator: Adobe Illustrator 24.1.0, SVG Export Plug-In . SVG Version: 6.00 Build 0)  -->
<svg version="1.1" id="Layer_1" xmlns="http://www.w3.org/2000/svg" xmlns:xlink="http://www.w3.org/1999/xlink" x="0px" y="0px"
	 width="16px" height="16px" viewBox="0 0 16 16" style="enable-background:new 0 0 16 16;" xml:space="preserve">
<style type="text/css">
	.st0{fill-rule:evenodd;clip-rule:evenodd;fill:#9AA7B0;fill-opacity:0.8;}
	.st1{fill-rule:evenodd;clip-rule:evenodd;fill:#77BBE2;}
	.st2{fill-rule:evenodd;clip-rule:evenodd;fill:#FFFFFF;}
	.st3{fill-rule:evenodd;clip-rule:evenodd;}
	.st4{fill-rule:evenodd;clip-rule:evenodd;fill:#B7937F;}
	.st5{fill:#B7937F;}
</style>
<g id="go_file">
	<path id="Fill_1" class="st0" d="M7,1L3,5h4V1z"/>
	<path class="st0" d="M8,8.69312c0-1.88788,1.96089-3.38135,4.46252-3.38135c0.2031,0,0.29972,0.01332,0.53748,0.034V1H8v5H3v9h5
		C8,15,8,10.02353,8,8.69312z"/>
	<g>
		<g>
			<path class="st1" d="M15.3651,11.8462c-0.02027-0.23022-0.03078-0.46119-0.0315-0.6923c0-0.8974,0.1666-2.3576,0.1666-2.3576
				c0-1.3685-1.2502-2.4885-3.0002-2.4885s-3.0002,1.12-3.0002,2.4892c0,0,0.1666,1.2796,0.1666,2.3569
				c0,0.2639-0.0112,0.49-0.0266,0.6923h0.007c-0.0441,0.8659-0.147,1.6653-0.147,1.6653C9.4998,14.88,10.75,16,12.5,16
				s3.0002-1.12,3.0002-2.4885c0,0-0.098-0.8596-0.1435-1.6653C15.3567,11.8462,15.3651,11.8462,15.3651,11.8462z"/>
		</g>
		<path class="st1" d="M16,7.8338c0,0.3465-0.2611,0.6279-0.5831,0.6279c-0.322,0-0.5838-0.2814-0.5838-0.6286
			c0-0.3465,0.2618-0.6279,0.5838-0.6279C15.7389,7.2052,16,7.4866,16,7.8331 M9,7.8331c0,0.3472,0.2611,0.6286,0.5831,0.6286
			c0.322,0,0.5838-0.2814,0.5838-0.6286c0-0.3465-0.2618-0.6279-0.5838-0.6279C9.2611,7.2052,9,7.4866,9,7.8331"/>
		<path class="st2" d="M12.3201,9.1624c0,0.5852-0.4816,1.0598-1.0766,1.0598c-0.595,0-1.0766-0.4746-1.0766-1.0598
			c0-0.5852,0.4816-1.0598,1.0766-1.0598C11.8385,8.1026,12.3201,8.5772,12.3201,9.1624"/>
		<path class="st2" d="M12.3201,9.1624c0,0.5852-0.4816,1.0598-1.0766,1.0598c-0.595,0-1.0766-0.4746-1.0766-1.0598
			c0-0.5852,0.4816-1.0598,1.0766-1.0598C11.8385,8.1026,12.3201,8.5772,12.3201,9.1624"/>
		<path class="st3" d="M11.7951,9.1589c0,0.2863-0.2149,0.518-0.4809,0.518s-0.4809-0.2317-0.4809-0.518
			c0-0.2856,0.2156-0.518,0.4809-0.518C11.5802,8.6409,11.7951,8.8733,11.7951,9.1589"/>
		<path class="st2" d="M14.6959,9.1624c0,0.5852-0.4816,1.0598-1.0766,1.0598S12.542,9.7476,12.542,9.1624
			c0-0.5852,0.483-1.0598,1.078-1.0598c0.595,0,1.0766,0.4746,1.0766,1.0598"/>
		<path class="st3" d="M14.1709,9.1589c0,0.2863-0.2156,0.518-0.4809,0.518c-0.266,0-0.4809-0.2317-0.4809-0.518
			c0-0.2856,0.2149-0.518,0.4809-0.518C13.956,8.6409,14.1709,8.8733,14.1709,9.1589"/>
		<g>
			<rect x="12.1661" y="10.6156" class="st2" width="0.6671" height="0.5383"/>
		</g>
		<path class="st4" d="M13.1671,10.4357c0,0.1988-0.2989,0.3591-0.6671,0.3591s-0.6664-0.161-0.6664-0.3591
			s0.2982-0.3584,0.6664-0.3584s0.6671,0.161,0.6671,0.3591"/>
		<path class="st3" d="M12.8332,10.2509c0,0.2016-0.1512,0.1848-0.3388,0.1848c-0.1869,0-0.3388,0.0168-0.3388-0.1848
			c0-0.2023,0.1519-0.3654,0.3388-0.3654C12.682,9.8855,12.8332,10.0486,12.8332,10.2509"/>
		<path class="st5" d="M16,11.3975c0,0.2478-0.1869,0.4487-0.4165,0.4487c-0.2303,0-0.4172-0.2009-0.4172-0.448
			c0-0.2485,0.1869-0.4494,0.4172-0.4494C15.8131,10.9488,16,11.1497,16,11.3975 M9.833,11.3975
			c0,0.2478-0.1862,0.4487-0.4165,0.4487C9.1869,11.8462,9,11.6453,9,11.3982c0-0.2485,0.1869-0.4494,0.4165-0.4494
			c0.231,0,0.4172,0.2009,0.4172,0.4487 M15.3,15.5513C15.3,15.7991,15.1131,16,14.8828,16s-0.4172-0.2009-0.4172-0.4487
			c0-0.2478,0.1869-0.448,0.4172-0.448s0.4165,0.2002,0.4165,0.448 M10.5323,15.5513c0,0.2478-0.1862,0.4487-0.4165,0.4487
			c-0.2296,0-0.4165-0.2009-0.4165-0.4487c0-0.2478,0.1869-0.448,0.4165-0.448c0.2303,0,0.4172,0.2002,0.4172,0.448"/>
	</g>
</g>
</svg>
