<?xml version="1.0" encoding="utf-8"?>
<!-- Generator: Adobe Illustrator 24.1.0, SVG Export Plug-In . SVG Version: 6.00 Build 0)  -->
<svg version="1.1" id="Layer_1" xmlns="http://www.w3.org/2000/svg" xmlns:xlink="http://www.w3.org/1999/xlink" x="0px" y="0px"
	 width="16px" height="16px" viewBox="0 0 16 16" style="enable-background:new 0 0 16 16;" xml:space="preserve">
<style type="text/css">
	.st0{fill:none;}
	.st1{fill-rule:evenodd;clip-rule:evenodd;fill:#9AA7B0;fill-opacity:0.8;}
	.st2{fill-rule:evenodd;clip-rule:evenodd;fill:#40B6E0;}
</style>
<rect id="frame" class="st0" width="16" height="16"/>
<g>
	<g>
		<path class="st1" d="M7.98,4L6.7,2.71C6.3,2.32,5.53,2,4.98,2H1.05C1.02,2,1,2.02,1,2.05V13h7.76L6.93,8H2V3h3
			c0.28,0,0.78,0.21,0.97,0.4l1.3,1.3L7.57,5H14v2h1V4H7.98z"/>
		<polygon class="st1" points="11.95,10.62 12.83,8 11.07,8 		"/>
	</g>
	<path class="st2" d="M11.18,16L7.96,8h1.93l2.08,5.59L14.05,8h1.88l-3.21,8H11.18z"/>
</g>
</svg>
