<?xml version="1.0" encoding="utf-8"?>
<!-- Generator: Adobe Illustrator 27.2.0, SVG Export Plug-In . SVG Version: 6.00 Build 0)  -->
<svg version="1.1" id="Layer_1" xmlns="http://www.w3.org/2000/svg" xmlns:xlink="http://www.w3.org/1999/xlink" x="0px" y="0px"
	 viewBox="0 0 16 16" style="enable-background:new 0 0 16 16;" xml:space="preserve">
<style type="text/css">
	.st0{fill-rule:evenodd;clip-rule:evenodd;fill:#25324D;}
	.st1{fill:#548AF7;}
</style>
<path class="st0" d="M9.625,1.964c0,0-0.464-0.464-0.929-0.464S7.768,1.748,7.768,1.748L6.839,2.196L3.705,3.705
	c0,0-1.741,3.598-1.973,4.062C1.5,8.232,1.5,8.58,1.5,8.58s0,0.58,0.464,1.045l2.089,2.089c0.271,0.271,0.464,0.464,0.464,0.464
	L6.839,14.5h5.339v-2.321H14.5v-5.34L9.625,1.964z"/>
<path class="st1" d="M11.952,3.584c-0.001-0.001-0.001-0.001-0.002-0.002L9.979,1.611C9.916,1.548,9.35,1,8.696,1
	C8.123,1,7.591,1.276,7.551,1.298L3.808,3.101c0,0-0.159,0.075-0.339,0.194c-0.18,0.119-0.263,0.296-0.263,0.296
	C2.93,4.161,1.495,7.125,1.285,7.544C1.008,8.098,1,8.533,1,8.581c0,0.081,0.017,0.805,0.61,1.398l2.701,2.7L6.632,15h6.046v-2.321
	H15V6.632L11.952,3.584z M3.205,10.158L2.318,9.271C2.014,8.968,2,8.59,2,8.588c0-0.003,0.009-0.257,0.179-0.596
	c0.112-0.224,0.576-1.179,1.026-2.107V10.158z M8.002,2.19C8.103,2.137,8.424,2,8.696,2c0.172,0,0.445,0.19,0.575,0.318l0.888,0.888
	H5.895L8.002,2.19z M11.678,14H7.046l-1.321-1.321h0L4.59,11.543L4.407,11.36c-0.002-0.002-0.202-0.224-0.202-0.574V4.913
	l7.473,7.476V14z M14,11.679h-1.614L4.913,4.206h5.76c0.451,0,0.5,0.013,0.572,0.085L14,7.046V11.679z"/>
</svg>
