<?xml version="1.0" encoding="utf-8"?>
<!-- Generator: Adobe Illustrator 24.1.0, SVG Export Plug-In . SVG Version: 6.00 Build 0)  -->
<svg version="1.1" id="Layer_1" xmlns="http://www.w3.org/2000/svg" xmlns:xlink="http://www.w3.org/1999/xlink" x="0px" y="0px"
	 width="16px" height="16px" viewBox="0 0 16 16" style="enable-background:new 0 0 16 16;" xml:space="preserve">
<style type="text/css">
	.st0{fill:none;}
	.st1{fill-rule:evenodd;clip-rule:evenodd;fill:#9AA7B0;fill-opacity:0.8;}
	.st2{fill-rule:evenodd;clip-rule:evenodd;fill:#62B543;}
	.st3{fill-rule:evenodd;clip-rule:evenodd;fill:#40B6E0;}
	.st4{fill:#9AA7B0;}
</style>
<rect id="frame" class="st0" width="16" height="16"/>
<g>
	<path class="st1" d="M1,13h2V3H1V13z"/>
	<path class="st2" d="M4,13h2V3H4V13z"/>
	<path class="st3" d="M10,8h2V3h-2V8z"/>
	<path class="st1" d="M7,13h2V1H7V13z"/>
	<path class="st1" d="M13,8h2V5h-2V8z"/>
</g>
<g id="Layer_2">
	<g>
		<path class="st4" d="M12.19,15.88H9.74v-7h2.45c1.97,0,3.34,1.51,3.34,3.48v0.02C15.53,14.36,14.17,15.88,12.19,15.88z
			 M14.09,12.39c0-1.24-0.76-2.11-1.89-2.11h-1.07v4.22h1.07c1.13,0,1.89-0.85,1.89-2.09V12.39z"/>
	</g>
</g>
</svg>
