<?xml version="1.0" encoding="utf-8"?>
<!-- Generator: Adobe Illustrator 24.1.0, SVG Export Plug-In . SVG Version: 6.00 Build 0)  -->
<svg version="1.1" id="Layer_1" xmlns="http://www.w3.org/2000/svg" xmlns:xlink="http://www.w3.org/1999/xlink" x="0px" y="0px"
	 width="16px" height="16px" viewBox="0 0 16 16" style="enable-background:new 0 0 16 16;" xml:space="preserve">
<style type="text/css">
	.st0{fill:none;}
	.st1{fill-rule:evenodd;clip-rule:evenodd;fill:#9AA7B0;fill-opacity:0.8;}
	.st2{fill-rule:evenodd;clip-rule:evenodd;fill:#62B543;}
	.st3{fill-rule:evenodd;clip-rule:evenodd;fill:#40B6E0;}
	.st4{fill:#9AA7B0;}
</style>
<rect id="frame" class="st0" width="16" height="16"/>
<g>
	<path class="st1" d="M1,13h2V3H1V13z"/>
	<path class="st2" d="M4,13h2V3H4V13z"/>
	<path class="st3" d="M10,8h2V3h-2V8z"/>
	<path class="st1" d="M7,13h2V1H7V13z"/>
	<path class="st1" d="M13,8h2V5h-2V8z"/>
</g>
<g id="Layer_2_copy">
	<g>
		<path class="st4" d="M12.61,15.87c-0.95,0-1.91-0.36-2.66-1.08l0.82-1.05c0.57,0.5,1.16,0.82,1.88,0.82
			c0.57,0,0.91-0.24,0.91-0.64V13.9c0-0.38-0.22-0.57-1.26-0.86c-1.27-0.35-2.08-0.73-2.08-2.07v-0.02c0-1.23,0.92-2.04,2.2-2.04
			c0.92,0,1.7,0.31,2.33,0.86l-0.72,1.12c-0.56-0.42-1.1-0.67-1.63-0.67c-0.53,0-0.81,0.26-0.81,0.59v0.02
			c0,0.45,0.27,0.59,1.35,0.89c1.27,0.36,1.99,0.85,1.99,2.03v0.02C14.92,15.12,13.97,15.87,12.61,15.87z"/>
	</g>
</g>
</svg>
