<?xml version="1.0" encoding="utf-8"?>
<!-- Generator: Adobe Illustrator 27.2.0, SVG Export Plug-In . SVG Version: 6.00 Build 0)  -->
<svg version="1.1" id="Layer_1" xmlns="http://www.w3.org/2000/svg" xmlns:xlink="http://www.w3.org/1999/xlink" x="0px" y="0px"
	 viewBox="0 0 16 16" style="enable-background:new 0 0 16 16;" xml:space="preserve">
<style type="text/css">
	.st0{fill:#FFFFFF;}
</style>
<path class="st0" d="M11.5,7C11.776,7,12,6.776,12,6.5S11.776,6,11.5,6V7z M4.5,7h7V6h-7V7z"/>
<path class="st0" d="M11.5,10c0.276,0,0.5-0.224,0.5-0.5S11.776,9,11.5,9V10z M4.5,10h7V9h-7V10z"/>
<path class="st0" d="M4.5,12C4.224,12,4,12.224,4,12.5S4.224,13,4.5,13V12z M11.5,13c0.276,0,0.5-0.224,0.5-0.5S11.776,12,11.5,12
	V13z M4.5,13h7v-1h-7V13z"/>
<path class="st0" d="M2.5,3C2.224,3,2,3.224,2,3.5S2.224,4,2.5,4V3z M13.5,4C13.776,4,14,3.776,14,3.5S13.776,3,13.5,3V4z M2.5,4h11
	V3h-11V4z"/>
<path class="st0" d="M4.5,13C4.224,13,4,12.776,4,12.5v-9h1v9C5,12.776,4.776,13,4.5,13z"/>
</svg>
