<?xml version="1.0" encoding="utf-8"?>
<!-- Generator: Adobe Illustrator 27.2.0, SVG Export Plug-In . SVG Version: 6.00 Build 0)  -->
<svg version="1.1" id="Layer_1" xmlns="http://www.w3.org/2000/svg" xmlns:xlink="http://www.w3.org/1999/xlink" x="0px" y="0px"
	 viewBox="0 0 16 16" style="enable-background:new 0 0 16 16;" xml:space="preserve">
<style type="text/css">
	.st0{fill:#FFFFFF;}
</style>
<path class="st0" d="M2.5,3C2.224,3,2,3.224,2,3.5S2.224,4,2.5,4V3z M13.5,4C13.776,4,14,3.776,14,3.5S13.776,3,13.5,3V4z M2.5,4h11
	V3h-11V4z"/>
<path class="st0" d="M4.5,7.5C4.224,7.5,4,7.724,4,8s0.224,0.5,0.5,0.5V7.5z M11.5,8.5C11.776,8.5,12,8.276,12,8s-0.224-0.5-0.5-0.5
	V8.5z M4.5,8.5h7v-1h-7V8.5z"/>
<path class="st0" d="M6.5,12C6.224,12,6,12.224,6,12.5S6.224,13,6.5,13V12z M9.5,13c0.276,0,0.5-0.224,0.5-0.5S9.776,12,9.5,12V13z
	 M6.5,13h3v-1h-3V13z"/>
</svg>
