<?xml version="1.0" encoding="utf-8"?>
<!-- Generator: Adobe Illustrator 27.2.0, SVG Export Plug-In . SVG Version: 6.00 Build 0)  -->
<svg version="1.1" id="Layer_1" xmlns="http://www.w3.org/2000/svg" xmlns:xlink="http://www.w3.org/1999/xlink" x="0px" y="0px"
	 viewBox="0 0 16 16" style="enable-background:new 0 0 16 16;" xml:space="preserve">
<style type="text/css">
	.st0{fill:#FFFFFF;}
</style>
<path class="st0" d="M2.5,3C2.224,3,2,3.224,2,3.5S2.224,4,2.5,4V3z M13.5,4C13.776,4,14,3.776,14,3.5S13.776,3,13.5,3V4z M2.5,4h11
	V3h-11V4z"/>
<path class="st0" d="M2.5,7.5C2.224,7.5,2,7.724,2,8s0.224,0.5,0.5,0.5V7.5z M13.5,8.5C13.776,8.5,14,8.276,14,8s-0.224-0.5-0.5-0.5
	V8.5z M2.5,8.5h11v-1h-11V8.5z"/>
<path class="st0" d="M2.5,12C2.224,12,2,12.224,2,12.5S2.224,13,2.5,13V12z M13.5,13c0.276,0,0.5-0.224,0.5-0.5S13.776,12,13.5,12
	V13z M2.5,13h11v-1h-11V13z"/>
</svg>
