<?xml version="1.0" encoding="utf-8"?>
<!-- Generator: Adobe Illustrator 27.2.0, SVG Export Plug-In . SVG Version: 6.00 Build 0)  -->
<svg version="1.1" id="Layer_1" xmlns="http://www.w3.org/2000/svg" xmlns:xlink="http://www.w3.org/1999/xlink" x="0px" y="0px"
	 viewBox="0 0 16 16" style="enable-background:new 0 0 16 16;" xml:space="preserve">
<style type="text/css">
	.st0{fill:#FFFFFF;}
</style>
<path class="st0" d="M13.5,3h-11C2.224,3,2,3.224,2,3.5S2.224,4,2.5,4h2v8.5C4.5,12.776,4.724,13,5,13h6.5
	c0.276,0,0.5-0.224,0.5-0.5S11.776,12,11.5,12h-6v-2h6c0.276,0,0.5-0.224,0.5-0.5S11.776,9,11.5,9h-6V7h6C11.776,7,12,6.776,12,6.5
	S11.776,6,11.5,6h-6V4h8C13.776,4,14,3.776,14,3.5S13.776,3,13.5,3z"/>
</svg>
