<?xml version="1.0" encoding="utf-8"?>
<!-- Generator: Adobe Illustrator 27.2.0, SVG Export Plug-In . SVG Version: 6.00 Build 0)  -->
<svg version="1.1" id="Layer_1" xmlns="http://www.w3.org/2000/svg" xmlns:xlink="http://www.w3.org/1999/xlink" x="0px" y="0px"
	 viewBox="0 0 16 16" style="enable-background:new 0 0 16 16;" xml:space="preserve">
<style type="text/css">
	.st0{fill:#FFFFFF;}
</style>
<ellipse class="st0" cx="2.7" cy="3.5" rx="0.7" ry="0.7"/>
<ellipse class="st0" cx="2.7" cy="8" rx="0.7" ry="0.7"/>
<ellipse class="st0" cx="2.7" cy="12.5" rx="0.7" ry="0.7"/>
<path class="st0" d="M5.5,3C5.224,3,5,3.224,5,3.5S5.224,4,5.5,4V3z M13.5,4C13.776,4,14,3.776,14,3.5S13.776,3,13.5,3V4z M5.5,4h8
	V3h-8V4z"/>
<path class="st0" d="M5.5,7.5C5.224,7.5,5,7.724,5,8s0.224,0.5,0.5,0.5V7.5z M13.5,8.5C13.776,8.5,14,8.276,14,8s-0.224-0.5-0.5-0.5
	V8.5z M5.5,8.5h8v-1h-8V8.5z"/>
<path class="st0" d="M5.5,12C5.224,12,5,12.224,5,12.5S5.224,13,5.5,13V12z M13.5,13c0.276,0,0.5-0.224,0.5-0.5S13.776,12,13.5,12
	V13z M5.5,13h8v-1h-8V13z"/>
</svg>
