<?xml version="1.0" encoding="utf-8"?>
<!-- Generator: Adobe Illustrator 27.2.0, SVG Export Plug-In . SVG Version: 6.00 Build 0)  -->
<svg version="1.1" id="Layer_1" xmlns="http://www.w3.org/2000/svg" xmlns:xlink="http://www.w3.org/1999/xlink" x="0px" y="0px"
	 viewBox="0 0 16 16" style="enable-background:new 0 0 16 16;" xml:space="preserve">
<style type="text/css">
	.st0{fill:#FFFFFF;}
	.st1{fill-rule:evenodd;clip-rule:evenodd;fill:#FFFFFF;}
</style>
<path class="st0" d="M2.5,3C2.224,3,2,3.224,2,3.5S2.224,4,2.5,4V3z M13.5,4C13.776,4,14,3.776,14,3.5S13.776,3,13.5,3V4z M2.5,4h11
	V3h-11V4z"/>
<path class="st0" d="M2.5,7.5C2.224,7.5,2,7.724,2,8s0.224,0.5,0.5,0.5V7.5z M9.5,8.5C9.776,8.5,10,8.276,10,8S9.776,7.5,9.5,7.5
	V8.5z M2.5,8.5h7v-1h-7V8.5z"/>
<path class="st0" d="M2.5,12C2.224,12,2,12.224,2,12.5S2.224,13,2.5,13V12z M9.5,13c0.276,0,0.5-0.224,0.5-0.5S9.776,12,9.5,12V13z
	 M2.5,13h7v-1h-7V13z"/>
<path class="st0" d="M14.5,15h1c0.276,0,0.5,0.224,0.5,0.5l0,0c0,0.276-0.224,0.5-0.5,0.5h-1c-0.276,0-0.5-0.224-0.5-0.5l0,0
	C14,15.224,14.224,15,14.5,15z"/>
<path class="st0" d="M11.5,15h1c0.276,0,0.5,0.224,0.5,0.5l0,0c0,0.276-0.224,0.5-0.5,0.5h-1c-0.276,0-0.5-0.224-0.5-0.5l0,0
	C11,15.224,11.224,15,11.5,15z"/>
<path class="st0" d="M14.5,8h1C15.776,8,16,8.224,16,8.5l0,0C16,8.776,15.776,9,15.5,9h-1C14.224,9,14,8.776,14,8.5l0,0
	C14,8.224,14.224,8,14.5,8z"/>
<path class="st0" d="M11.5,8h1C12.776,8,13,8.224,13,8.5l0,0C13,8.776,12.776,9,12.5,9h-1C11.224,9,11,8.776,11,8.5l0,0
	C11,8.224,11.224,8,11.5,8z"/>
<path class="st1" d="M13,9.5C13,9.224,13.224,9,13.5,9l0,0C13.776,9,14,9.224,14,9.5v5c0,0.276-0.224,0.5-0.5,0.5l0,0
	c-0.276,0-0.5-0.224-0.5-0.5V9.5z"/>
</svg>
