<?xml version="1.0" encoding="utf-8"?>
<!-- Generator: Adobe Illustrator 27.2.0, SVG Export Plug-In . SVG Version: 6.00 Build 0)  -->
<svg version="1.1" id="Layer_1" xmlns="http://www.w3.org/2000/svg" xmlns:xlink="http://www.w3.org/1999/xlink" x="0px" y="0px"
	 viewBox="0 0 16 16" style="enable-background:new 0 0 16 16;" xml:space="preserve">
<style type="text/css">
	.st0{fill:#FFFFFF;}
</style>
<path class="st0" d="M5.5,3C5.224,3,5,3.224,5,3.5S5.224,4,5.5,4V3z M13.5,4C13.776,4,14,3.776,14,3.5S13.776,3,13.5,3V4z M5.5,4h8
	V3h-8V4z"/>
<path class="st0" d="M5.5,7.5C5.224,7.5,5,7.724,5,8s0.224,0.5,0.5,0.5V7.5z M13.5,8.5C13.776,8.5,14,8.276,14,8s-0.224-0.5-0.5-0.5
	V8.5z M5.5,8.5h8v-1h-8V8.5z"/>
<path class="st0" d="M5.5,12C5.224,12,5,12.224,5,12.5S5.224,13,5.5,13V12z M13.5,13c0.276,0,0.5-0.224,0.5-0.5S13.776,12,13.5,12
	V13z M5.5,13h8v-1h-8V13z"/>
<path class="st0" d="M2.519,1.875V2c0,0.072-0.013,0.134-0.039,0.184C2.455,2.232,2.422,2.266,2.377,2.291
	c-0.047,0.027-0.105,0.04-0.173,0.04H1.685v0.666h0.707v2.128h0.751v-3.25H2.519z M2.455,2.872L2.455,2.872L2.455,2.872L2.455,2.872
	z"/>
<path class="st0" d="M2.231,7.628V7.503c0-0.089,0.018-0.165,0.056-0.232c0.037-0.064,0.087-0.114,0.153-0.149
	c0.07-0.038,0.147-0.057,0.238-0.057c0.084,0,0.155,0.016,0.218,0.049C2.954,7.145,2.998,7.187,3.03,7.243
	C3.064,7.3,3.081,7.365,3.081,7.442c0,0.084-0.02,0.162-0.061,0.238C2.977,7.76,2.906,7.846,2.809,7.935L1.613,9.018L1.572,9.055
	v0.57h2.34v-0.69h-1.2l0.552-0.505c0.188-0.165,0.33-0.331,0.422-0.491C3.783,7.769,3.832,7.59,3.832,7.406
	c0-0.196-0.051-0.376-0.153-0.533c-0.099-0.156-0.238-0.28-0.414-0.367c-0.172-0.087-0.367-0.131-0.58-0.131
	c-0.223,0-0.429,0.049-0.61,0.145C1.893,6.616,1.747,6.752,1.643,6.924C1.54,7.095,1.488,7.29,1.488,7.503v0.125H2.231z"/>
<path class="st0" d="M3.756,12.484c-0.106-0.163-0.255-0.291-0.443-0.379C3.258,12.079,3.2,12.058,3.136,12.04l0.635-0.577
	l0.041-0.037v-0.551H1.641v0.669h1.123l-0.527,0.485l-0.04,0.037v0.542h0.492c0.096,0,0.178,0.019,0.252,0.057
	c0.074,0.037,0.128,0.085,0.166,0.148c0.04,0.064,0.06,0.136,0.06,0.219c0,0.081-0.019,0.152-0.058,0.215
	c-0.038,0.062-0.091,0.11-0.161,0.146c-0.072,0.037-0.156,0.056-0.25,0.056c-0.088,0-0.169-0.017-0.241-0.05
	c-0.069-0.033-0.123-0.076-0.164-0.133c-0.037-0.054-0.058-0.115-0.063-0.185l-0.007-0.117H1.48l0.003,0.128
	c0.005,0.199,0.062,0.381,0.172,0.54c0.108,0.156,0.255,0.278,0.437,0.364c0.179,0.085,0.381,0.128,0.601,0.128
	c0.23,0,0.439-0.045,0.621-0.133c0.188-0.091,0.336-0.22,0.442-0.384c0.107-0.165,0.161-0.353,0.161-0.561
	C3.917,12.837,3.863,12.647,3.756,12.484z"/>
</svg>
