<?xml version="1.0" encoding="utf-8"?>
<!-- Generator: Adobe Illustrator 27.2.0, SVG Export Plug-In . SVG Version: 6.00 Build 0)  -->
<svg version="1.1" id="Layer_1" xmlns="http://www.w3.org/2000/svg" xmlns:xlink="http://www.w3.org/1999/xlink" x="0px" y="0px"
	 viewBox="0 0 16 16" style="enable-background:new 0 0 16 16;" xml:space="preserve">
<style type="text/css">
	.st0{fill-rule:evenodd;clip-rule:evenodd;fill:#CED0D6;}
	.st1{fill:#CED0D6;}
</style>
<path class="st0" d="M10.793,6.981L9.3,6.767c-0.488-0.07-0.872-0.366-1.093-0.731C7.753,5.285,7.086,4.898,6.5,4.699v7.603
	c0.586-0.2,1.253-0.587,1.707-1.338c0.221-0.365,0.605-0.661,1.093-0.731l1.493-0.213C11.694,9.891,12.5,10.59,12.5,11.5h1v-6h-1
	C12.5,6.41,11.694,7.109,10.793,6.981z M9.441,5.777C9.282,5.755,9.146,5.656,9.063,5.519C8.355,4.35,7.272,3.858,6.486,3.651
	C5.952,3.51,5.5,3.948,5.5,4.5v8c0,0.552,0.452,0.99,0.986,0.849c0.786-0.207,1.869-0.699,2.576-1.868
	c0.083-0.137,0.22-0.236,0.379-0.259l1.493-0.213c0.299-0.043,0.566,0.189,0.566,0.491c0,0.552,0.448,1,1,1h1c0.552,0,1-0.448,1-1
	v-6c0-0.552-0.448-1-1-1h-1c-0.552,0-1,0.448-1,1c0,0.302-0.267,0.533-0.566,0.491L9.441,5.777z"/>
<path class="st1" d="M5.5,8v1H2C1.724,9,1.5,8.776,1.5,8.5l0,0C1.5,8.224,1.724,8,2,8H5.5z"/>
</svg>
