<?xml version="1.0" encoding="utf-8"?>
<!-- Generator: Adobe Illustrator 27.2.0, SVG Export Plug-In . SVG Version: 6.00 Build 0)  -->
<svg version="1.1" id="Layer_1" xmlns="http://www.w3.org/2000/svg" xmlns:xlink="http://www.w3.org/1999/xlink" x="0px" y="0px"
	 viewBox="0 0 16 16" style="enable-background:new 0 0 16 16;" xml:space="preserve">
<style type="text/css">
	.st0{fill-rule:evenodd;clip-rule:evenodd;fill:#6C707E;}
	.st1{fill:#6C707E;}
	.st2{fill-rule:evenodd;clip-rule:evenodd;fill:#4682FA;}
</style>
<path class="st0" d="M8.762,10H4.199c0.2-0.586,0.587-1.253,1.338-1.707C5.901,8.072,6.198,7.688,6.267,7.2l0.213-1.493
	C6.609,4.806,5.91,4,5,4V3h6v1c-0.91,0-1.609,0.806-1.481,1.707L9.733,7.2c0.07,0.488,0.366,0.872,0.731,1.093
	c0.063,0.038,0.109,0.085,0.167,0.126c0.36-0.166,0.744-0.28,1.147-0.346c-0.223-0.23-0.484-0.447-0.797-0.636
	c-0.137-0.083-0.236-0.22-0.259-0.379l-0.213-1.493C10.467,5.267,10.698,5,11,5c0.552,0,1-0.448,1-1V3c0-0.552-0.448-1-1-1H5
	C4.448,2,4,2.448,4,3v1c0,0.552,0.448,1,1,1c0.302,0,0.533,0.267,0.491,0.566L5.277,7.059C5.255,7.218,5.156,7.354,5.019,7.437
	c-1.169,0.707-1.661,1.79-1.868,2.576C3.01,10.548,3.448,11,4,11h4.276C8.402,10.647,8.556,10.307,8.762,10z"/>
<path class="st1" d="M8,12.5c0-0.529,0.108-1.029,0.276-1.5H7.5v3.5C7.5,14.776,7.724,15,8,15c0.271,0,0.49-0.217,0.497-0.487
	C8.19,13.905,8,13.227,8,12.5z"/>
<path class="st2" d="M12.5,16c1.933,0,3.5-1.567,3.5-3.5S14.433,9,12.5,9S9,10.567,9,12.5S10.567,16,12.5,16z"/>
</svg>
