<?xml version="1.0" encoding="utf-8"?>
<!-- Generator: Adobe Illustrator 27.2.0, SVG Export Plug-In . SVG Version: 6.00 Build 0)  -->
<svg version="1.1" id="Layer_1" xmlns="http://www.w3.org/2000/svg" xmlns:xlink="http://www.w3.org/1999/xlink" x="0px" y="0px"
	 viewBox="0 0 16 16" style="enable-background:new 0 0 16 16;" xml:space="preserve">
<style type="text/css">
	.st0{fill:#FFFFFF;}
	.st1{fill-rule:evenodd;clip-rule:evenodd;fill:#FFFFFF;}
</style>
<path class="st0" d="M7,13H5v-3h4.879l1-1H4.5C4.224,9,4,9.224,4,9.5V13H3V3h2v2.5C5,5.776,5.224,6,5.5,6h5
	C10.776,6,11,5.776,11,5.5V3h0.293L13,4.707v2.428c0.223-0.084,0.46-0.133,0.705-0.133c0.1,0,0.198,0.014,0.295,0.029V4.5
	c0-0.133-0.053-0.26-0.146-0.354l-2-2C11.76,2.053,11.633,2,11.5,2h-9C2.224,2,2,2.224,2,2.5v11C2,13.776,2.224,14,2.5,14H7V13z
	 M6,3h4v2H6V3z"/>
<path class="st1" d="M14.412,8.295c-0.391-0.391-1.024-0.391-1.414,0l-1.351,1.351L8,13.293V16h2.707l4.998-4.998
	c0.391-0.391,0.391-1.024,0-1.414L14.412,8.295z M14,11.293l0.998-0.998l-1.293-1.293L12.707,10L14,11.293z M12,10.707L13.293,12
	l-3,3H9v-1.293L12,10.707z"/>
</svg>
