<?xml version="1.0" encoding="utf-8"?>
<!-- Generator: Adobe Illustrator 27.2.0, SVG Export Plug-In . SVG Version: 6.00 Build 0)  -->
<svg version="1.1" id="Layer_1" xmlns="http://www.w3.org/2000/svg" xmlns:xlink="http://www.w3.org/1999/xlink" x="0px" y="0px"
	 viewBox="0 0 16 16" style="enable-background:new 0 0 16 16;" xml:space="preserve">
<style type="text/css">
	.st0{fill:#FFFFFF;}
	.st1{fill:none;stroke:#FFFFFF;stroke-linejoin:round;}
</style>
<path class="st0" d="M8,10.858C7.678,10.942,7.347,11,7,11c-2.206,0-4-1.794-4-4c0-2.206,1.794-4,4-4c2.206,0,4,1.794,4,4
	c0,0.347-0.058,0.678-0.142,1h1.028C11.954,7.677,12,7.345,12,7c0-2.757-2.243-5-5-5S2,4.243,2,7s2.243,5,5,5
	c0.345,0,0.677-0.046,1-0.114V10.858z"/>
<path class="st1" d="M11.545,9.773v1.364h1.909V9.773 M11,15.227v-1.909h3v1.909 M9.5,15.5v-6h4.909l1.091,1.091V15.5H9.5z"/>
</svg>
