<?xml version="1.0" encoding="utf-8"?>
<!-- Generator: Adobe Illustrator 27.2.0, SVG Export Plug-In . SVG Version: 6.00 Build 0)  -->
<svg version="1.1" id="Layer_1" xmlns="http://www.w3.org/2000/svg" xmlns:xlink="http://www.w3.org/1999/xlink" x="0px" y="0px"
	 viewBox="0 0 16 16" style="enable-background:new 0 0 16 16;" xml:space="preserve">
<style type="text/css">
	.st0{fill-rule:evenodd;clip-rule:evenodd;fill:#6C707E;}
</style>
<path class="st0" d="M8,0.457l6,2.545v5.775c0,1.766-0.892,3.057-2.032,4.079c-0.838,0.751-1.859,1.396-2.796,1.987
	c-0.311,0.196-0.613,0.387-0.896,0.574L8,15.599l-0.275-0.182c-0.283-0.187-0.585-0.377-0.896-0.574
	c-0.937-0.591-1.958-1.236-2.796-1.987C2.892,11.835,2,10.544,2,8.778V3.002L8,0.457z M3,3.664v5.113c0,1.377,0.679,2.419,1.7,3.334
	c0.77,0.69,1.685,1.268,2.603,1.847C7.535,14.106,7.769,14.254,8,14.403c0.231-0.149,0.465-0.297,0.698-0.444
	c0.918-0.579,1.832-1.157,2.602-1.847c1.021-0.915,1.7-1.957,1.7-3.334V3.664L8,1.543L3,3.664z"/>
</svg>
