<?xml version="1.0" encoding="UTF-8" standalone="no"?>
<svg
   width="16"
   height="16"
   viewBox="0 0 16 16"
   fill="none"
   version="1.1"
   id="svg2"
   sodipodi:docname="swap_dark.svg"
   inkscape:version="1.3 (0e150ed6c4, 2023-07-21)"
   xmlns:inkscape="http://www.inkscape.org/namespaces/inkscape"
   xmlns:sodipodi="http://sodipodi.sourceforge.net/DTD/sodipodi-0.dtd"
   xmlns="http://www.w3.org/2000/svg"
   xmlns:svg="http://www.w3.org/2000/svg">
  <defs
     id="defs2" />
  <sodipodi:namedview
     id="namedview2"
     pagecolor="#505050"
     bordercolor="#ffffff"
     borderopacity="1"
     inkscape:showpageshadow="0"
     inkscape:pageopacity="0"
     inkscape:pagecheckerboard="1"
     inkscape:deskcolor="#505050"
     inkscape:zoom="73.5625"
     inkscape:cx="8"
     inkscape:cy="8"
     inkscape:window-width="2560"
     inkscape:window-height="1369"
     inkscape:window-x="-8"
     inkscape:window-y="-8"
     inkscape:window-maximized="1"
     inkscape:current-layer="svg2" />
  <path
     d="m 12.853549,11.853599 c 0.19527,-0.1953 0.19527,-0.5119 0,-0.7072 l -3,-2.9999505 c -0.19526,-0.19527 -0.51184,-0.19527 -0.7071,0 -0.19527,0.19526 -0.19527,0.51184 0,0.7071 l 2.14644,2.1464505 h -7.79289 c -0.2761,0 -0.5,0.2239 -0.5,0.5 0,0.2761 0.2239,0.5 0.5,0.5 h 7.79289 l -2.14644,2.1464 c -0.19527,0.1953 -0.19527,0.5119 0,0.7072 0.19526,0.1952 0.51184,0.1952 0.7071,0 z"
     fill="#ced0d6"
     id="path1" />
  <path
     d="m 12.499999,4.9999985 c 0.27614,0 0.5,-0.22386 0.5,-0.5 0,-0.27614 -0.22386,-0.5 -0.5,-0.5 h -7.7929 l 2.14645,-2.14645 c 0.19527,-0.19526 0.19527,-0.51184 0,-0.7071 -0.19526,-0.195266 -0.51184,-0.195266 -0.7071,0 l -3.00005,3 c -0.1952,0.19526 -0.1952,0.51184 0,0.7071 l 3.00005,3 c 0.19526,0.19527 0.51184,0.19527 0.7071,0 0.19527,-0.19526 0.19527,-0.51184 0,-0.7071 l -2.14645,-2.14645 z"
     fill="#ced0d6"
     id="path2" />
</svg>
