<?xml version="1.0" encoding="utf-8"?>
<!-- Generator: Adobe Illustrator 27.2.0, SVG Export Plug-In . SVG Version: 6.00 Build 0)  -->
<svg version="1.1" id="Layer_1" xmlns="http://www.w3.org/2000/svg" xmlns:xlink="http://www.w3.org/1999/xlink" x="0px" y="0px"
	 viewBox="0 0 16 16" style="enable-background:new 0 0 16 16;" xml:space="preserve">
<style type="text/css">
	.st0{fill-rule:evenodd;clip-rule:evenodd;fill:#FFFFFF;}
</style>
<path class="st0" d="M11,4c0,1.657-1.343,3-3,3C6.343,7,5,5.657,5,4s1.343-3,3-3C9.656,1,11,2.343,11,4z M10,4c0,1.105-0.895,2-2,2
	S6,5.105,6,4s0.895-2,2-2S10,2.895,10,4z"/>
<path class="st0" d="M8,8c-4.452,0-5.601,3.303-5.897,5.008C2.008,13.552,2.447,14,3,14h10c0.552,0,0.992-0.448,0.897-0.992
	C13.6,11.303,12.452,8,8,8z M11.744,10.511c0.664,0.784,0.984,1.744,1.134,2.489H3.122c0.15-0.745,0.47-1.705,1.134-2.489
	C4.94,9.704,6.058,9,8,9S11.059,9.704,11.744,10.511z"/>
</svg>
