<?xml version="1.0" encoding="UTF-8" standalone="no"?>
<svg
   width="16"
   height="16"
   viewBox="0 0 16 16"
   fill="none"
   version="1.1"
   id="svg1"
   xmlns="http://www.w3.org/2000/svg"
   xmlns:svg="http://www.w3.org/2000/svg">
  <defs
     id="defs1" />
  <g
     id="rect1">
    <path
       id="path4"
       style="color:#000000;fill:#45322b;-inkscape-stroke:none"
       d="M 4 2.5 C 3.1690024 2.5 2.5 3.1690024 2.5 4 L 2.5 12 C 2.5 12.830997 3.1690024 13.5 4 13.5 L 12 13.5 L 12 13 L 11.5 13 C 10.683277 13 10 12.316723 10 11.5 C 10 10.683277 10.683277 10 11.5 10 L 12 10 L 12 9.5 L 12 6.5 L 12 6 L 11.5 6 C 10.683375 6 10 5.3166838 10 4.5 C 10 3.6833162 10.683375 3 11.5 3 L 12 3 L 12 2.5 L 4 2.5 z " />
    <path
       id="path5"
       style="color:#000000;fill:#c77d55;-inkscape-stroke:none"
       d="M 4 2 C 2.900653 2 2 2.900653 2 4 L 2 12 C 2 13.099347 2.900653 14 4 14 L 12 14 L 12 13.5 L 12 13 L 11.5 13 L 4 13 C 3.4373537 13 3 12.562645 3 12 L 3 4 C 3 3.4373537 3.4373537 3 4 3 L 11.5 3 L 12 3 L 12 2.5 L 12 2 L 4 2 z " />
  </g>
  <path
     d="M5.25464 4.5H6.26464V7.45H9.73464V4.5H10.7496V11.5H9.73464V8.395H6.26464V11.5H5.25464V4.5Z"
     fill="#F28C35"
     id="path1"
     style="fill:#c77d55" />
  <g
     id="g5"
     style="display:inline">
    <path
       d="M 14,2.5 C 14,2.22386 13.7761,2 13.5,2 13.2239,2 13,2.22386 13,2.5 V 4 H 11.5 C 11.2239,4 11,4.22386 11,4.5 11,4.77614 11.2239,5 11.5,5 H 13 V 6.5 C 13,6.77614 13.2239,7 13.5,7 13.7761,7 14,6.77614 14,6.5 V 5 h 1.5 C 15.7761,5 16,4.77614 16,4.5 16,4.22386 15.7761,4 15.5,4 H 14 Z"
       fill="#955ae0"
       id="path2"
       style="fill:#c77d55" />
    <path
       d="M 14,9.5 C 14,9.22386 13.7761,9 13.5,9 13.2239,9 13,9.22386 13,9.5 V 11 h -1.5 c -0.2761,0 -0.5,0.2239 -0.5,0.5 0,0.2761 0.2239,0.5 0.5,0.5 H 13 v 1.5 c 0,0.2761 0.2239,0.5 0.5,0.5 0.2761,0 0.5,-0.2239 0.5,-0.5 V 12 h 1.5 C 15.7761,12 16,11.7761 16,11.5 16,11.2239 15.7761,11 15.5,11 H 14 Z"
       fill="#955ae0"
       id="path3"
       style="fill:#c77d55" />
  </g>
</svg>
