<?xml version="1.0" encoding="utf-8"?>
<!-- Generator: Adobe Illustrator 27.2.0, SVG Export Plug-In . SVG Version: 6.00 Build 0)  -->
<svg version="1.1" id="Layer_1" xmlns="http://www.w3.org/2000/svg" xmlns:xlink="http://www.w3.org/1999/xlink" x="0px" y="0px"
	 viewBox="0 0 16 16" style="enable-background:new 0 0 16 16;" xml:space="preserve">
<style type="text/css">
	.st0{fill-rule:evenodd;clip-rule:evenodd;fill:#CED0D6;}
	.st1{fill:#CED0D6;}
</style>
<path class="st0" d="M4.401,12C2.398,12,1,10.364,1,8.023C1,5.682,2.44,4,4.424,4c1.971,0,3.401,1.672,3.401,3.977
	C7.825,10.318,6.385,12,4.401,12z M4.409,5.263c-1.13,0-1.919,1.116-1.919,2.713c0,1.635,0.798,2.76,1.942,2.76
	c1.13,0,1.92-1.116,1.92-2.714C6.352,6.414,5.535,5.263,4.409,5.263z"/>
<path class="st1" d="M10.253,11.75v-0.492c0-0.138,0.112-0.25,0.25-0.25h1.319c0.138,0,0.25-0.112,0.25-0.25V5.651
	c0-0.167-0.16-0.287-0.32-0.24l-1.414,0.414c-0.134,0.039-0.273-0.038-0.311-0.172L9.872,5.099C9.836,4.97,9.908,4.835,10.036,4.794
	l2.436-0.781C12.497,4.005,12.524,4,12.55,4.001l0.732,0.005c0.137,0.001,0.248,0.113,0.248,0.25v6.502
	c0,0.138,0.112,0.25,0.25,0.25h1.053c0.138,0,0.25,0.112,0.25,0.25v0.492c0,0.138-0.112,0.25-0.25,0.25h-4.331
	C10.365,12,10.253,11.888,10.253,11.75z"/>
</svg>
