<?xml version="1.0" encoding="utf-8"?>
<!-- Generator: Adobe Illustrator 27.2.0, SVG Export Plug-In . SVG Version: 6.00 Build 0)  -->
<svg version="1.1" id="Layer_1" xmlns="http://www.w3.org/2000/svg" xmlns:xlink="http://www.w3.org/1999/xlink" x="0px" y="0px"
	 viewBox="0 0 16 16" style="enable-background:new 0 0 16 16;" xml:space="preserve">
<style type="text/css">
	.st0{fill:#CED0D6;}
</style>
<path class="st0" d="M2.443,6.727H0.981v-0.86h0.815c0.186,0,0.347-0.038,0.483-0.115c0.139-0.077,0.244-0.186,0.315-0.328
	c0.074-0.142,0.111-0.309,0.111-0.501h0.004H3.48v6.204H2.443V6.727z M5.154,10.307l2.517-2.278c0.227-0.21,0.393-0.412,0.496-0.607
	c0.106-0.198,0.16-0.406,0.16-0.625c0-0.21-0.047-0.393-0.142-0.55c-0.092-0.16-0.222-0.284-0.39-0.372
	C7.627,5.787,7.434,5.743,7.215,5.743c-0.233,0-0.442,0.05-0.625,0.151C6.41,5.991,6.268,6.13,6.165,6.31
	c-0.1,0.18-0.151,0.386-0.151,0.616H4.977c0-0.402,0.096-0.762,0.288-1.081C5.46,5.523,5.729,5.272,6.072,5.091
	c0.346-0.183,0.733-0.275,1.161-0.275c0.408,0,0.776,0.083,1.103,0.248C8.664,5.227,8.92,5.453,9.103,5.743
	c0.186,0.29,0.279,0.616,0.279,0.979c0,0.343-0.09,0.672-0.27,0.988c-0.18,0.313-0.459,0.637-0.838,0.971l-1.662,1.52h2.938v0.926
	H5.154V10.307z M12.668,11.233c-0.425,0-0.81-0.081-1.152-0.244c-0.343-0.162-0.615-0.388-0.815-0.678
	c-0.201-0.292-0.306-0.623-0.315-0.993h1.046c0.012,0.195,0.072,0.371,0.182,0.527c0.112,0.154,0.261,0.275,0.448,0.363
	c0.186,0.086,0.391,0.129,0.616,0.129c0.242,0,0.458-0.049,0.647-0.146c0.189-0.097,0.337-0.232,0.443-0.403
	c0.106-0.174,0.16-0.371,0.16-0.589c0-0.225-0.055-0.424-0.164-0.598c-0.106-0.174-0.257-0.31-0.452-0.408
	c-0.192-0.1-0.409-0.151-0.651-0.151h-0.771V7.28l1.604-1.476h-2.774V4.923h4.042v0.78l-2.092,1.901V7.249
	c0.446-0.009,0.843,0.069,1.192,0.235c0.352,0.165,0.626,0.4,0.824,0.705c0.198,0.301,0.297,0.648,0.297,1.041
	c0,0.387-0.099,0.733-0.297,1.037c-0.198,0.304-0.473,0.542-0.824,0.714C13.511,11.149,13.114,11.233,12.668,11.233z"/>
</svg>
