<?xml version="1.0" encoding="utf-8"?>
<!-- Generator: Adobe Illustrator 27.2.0, SVG Export Plug-In . SVG Version: 6.00 Build 0)  -->
<svg version="1.1" id="Layer_1" xmlns="http://www.w3.org/2000/svg" xmlns:xlink="http://www.w3.org/1999/xlink" x="0px" y="0px"
	 viewBox="0 0 16 16" style="enable-background:new 0 0 16 16;" xml:space="preserve">
<style type="text/css">
	.st0{fill-rule:evenodd;clip-rule:evenodd;fill:#FFFFFF;}
	.st1{fill:#FFFFFF;}
</style>
<path class="st0" d="M12.5,9C12.776,9,13,9.224,13,9.5V12h2.5c0.276,0,0.5,0.224,0.5,0.5S15.776,13,15.5,13H13v2.5
	c0,0.276-0.224,0.5-0.5,0.5S12,15.776,12,15.5V13H9.5C9.224,13,9,12.776,9,12.5S9.224,12,9.5,12H12V9.5C12,9.224,12.224,9,12.5,9z"
	/>
<path class="st1" d="M6.122,3H2.633C2.405,3,2,3.258,2,3.867v8.267C2,12.742,2.405,13,2.633,13H8v1H2.633
	C1.731,14,1,13.164,1,12.133V3.867C1,2.836,1.731,2,2.633,2h3.488c0.272,0,0.533,0.111,0.722,0.308L8.467,4H13c1.105,0,2,0.895,2,2
	v2h-1V6c0-0.552-0.448-1-1-1H8.04L6.122,3z"/>
</svg>
