<?xml version="1.0" encoding="utf-8"?>
<!-- Generator: Adobe Illustrator 27.2.0, SVG Export Plug-In . SVG Version: 6.00 Build 0)  -->
<svg version="1.1" id="Layer_1" xmlns="http://www.w3.org/2000/svg" xmlns:xlink="http://www.w3.org/1999/xlink" x="0px" y="0px"
	 viewBox="0 0 16 16" style="enable-background:new 0 0 16 16;" xml:space="preserve">
<style type="text/css">
	.st0{fill:#EBECF0;}
	.st1{fill:#6C707E;}
	.st2{fill-rule:evenodd;clip-rule:evenodd;fill:#F34E29;}
</style>
<g>
	<path class="st0" d="M7.46,13.111C7.164,12.815,7,12.421,7,12s0.164-0.815,0.461-1.112l3.428-3.427
		c0.591-0.592,1.628-0.595,2.223-0.001L14.5,8.849V6c0-0.828-0.672-1.5-1.5-1.5H8.253L8.106,4.346L6.483,2.654
		C6.388,2.556,6.258,2.5,6.122,2.5H2.633C2.068,2.5,1.5,3.047,1.5,3.867v8.267c0,0.82,0.568,1.367,1.133,1.367h5.216L7.46,13.111z"
		/>
	<path class="st1" d="M7.46,13.111C7.426,13.077,7.4,13.037,7.369,13H2.633C2.368,13,2,12.698,2,12.133V3.867
		C2,3.301,2.368,3,2.633,3h3.488L8.04,5H13c0.552,0,1,0.449,1,1v2.349l1,1V6c0-1.103-0.897-2-2-2H8.467L6.843,2.308
		C6.655,2.112,6.393,2,6.122,2H2.633C1.848,2,1,2.714,1,3.867v8.266C1,13.286,1.848,14,2.633,14h5.716L7.46,13.111z"/>
</g>
<path class="st2" d="M12.405,8.168c-0.224-0.224-0.586-0.224-0.81,0L11.073,8.69l0.546,0.546c0.287-0.17,0.664-0.132,0.911,0.115
	c0.247,0.247,0.285,0.623,0.115,0.911l1.093,1.093c0.287-0.17,0.664-0.131,0.91,0.115c0.292,0.292,0.292,0.767,0,1.059
	c-0.292,0.292-0.767,0.292-1.059,0c-0.247-0.247-0.285-0.622-0.116-0.909l-1.093-1.093c-0.061,0.036-0.126,0.062-0.193,0.08v2.787
	c0.125,0.032,0.244,0.097,0.342,0.196c0.292,0.292,0.292,0.767,0,1.059c-0.292,0.292-0.767,0.292-1.059,0
	c-0.292-0.292-0.292-0.767,0-1.059c0.098-0.098,0.217-0.163,0.342-0.196v-2.787c-0.125-0.032-0.244-0.097-0.342-0.196
	c-0.247-0.247-0.285-0.622-0.116-0.909l-0.547-0.547l-2.641,2.641c-0.224,0.224-0.224,0.586,0,0.81l3.428,3.428
	c0.224,0.224,0.586,0.224,0.81,0l3.428-3.428c0.224-0.224,0.224-0.586,0-0.81L12.405,8.168z"/>
</svg>
