<?xml version="1.0" encoding="utf-8"?>
<!-- Generator: Adobe Illustrator 27.2.0, SVG Export Plug-In . SVG Version: 6.00 Build 0)  -->
<svg version="1.1" id="Layer_1" xmlns="http://www.w3.org/2000/svg" xmlns:xlink="http://www.w3.org/1999/xlink" x="0px" y="0px"
	 viewBox="0 0 16 16" style="enable-background:new 0 0 16 16;" xml:space="preserve">
<style type="text/css">
	.st0{fill-rule:evenodd;clip-rule:evenodd;fill:#62B543;fill-opacity:0.7;}
	.st1{fill-rule:evenodd;clip-rule:evenodd;fill:#9AA7B0;fill-opacity:0.8;}
	.st2{fill-rule:evenodd;clip-rule:evenodd;fill:#231F20;fill-opacity:0.7;}
	.st3{opacity:0.7;fill:#231F20;}
</style>
<g>
	<polygon class="st0" points="1,16 16,16 16,9 1,9 	"/>
	<polygon class="st1" points="7,1 3,5 7,5 	"/>
	<polygon class="st1" points="8,1 8,6 3,6 3,8 13,8 13,1 	"/>
	<path class="st2" d="M3,12.501C3,11,3.931,10,5.256,10c0.946,0,1.294,0.311,1.713,0.753l-0.542,0.674C6.077,11.068,5.75,11,5.25,11
		C4.418,11,4,11.738,4,12.487C4,13.236,4.412,14,5.25,14c0.537,0,0.802-0.107,1.177-0.494L7,14.144C6.544,14.669,6.197,15,5.225,15
		C3.949,15,3,14.002,3,12.501z"/>
	<path class="st3" d="M12.45,11.85V11.1h-0.637L12,10h-0.75l-0.187,1.1h-1.2L10.05,10H9.3l-0.187,1.1H8.25v0.75h0.736L8.773,13.1H8
		v0.75h0.646L8.45,15H9.2l0.195-1.15h1.2L10.4,15h0.75l0.195-1.15H12.2V13.1h-0.727l0.212-1.25H12.45z M10.723,13.1h-1.2l0.213-1.25
		h1.2L10.723,13.1z"/>
</g>
</svg>
