<?xml version="1.0" encoding="utf-8"?>
<!-- Generator: Adobe Illustrator 27.2.0, SVG Export Plug-In . SVG Version: 6.00 Build 0)  -->
<svg version="1.1" id="Layer_1" xmlns="http://www.w3.org/2000/svg" xmlns:xlink="http://www.w3.org/1999/xlink" x="0px" y="0px"
	 viewBox="0 0 16 16" style="enable-background:new 0 0 16 16;" xml:space="preserve">
<style type="text/css">
	.st0{fill-rule:evenodd;clip-rule:evenodd;fill:#9AA7B0;fill-opacity:0.8;}
	.st1{fill-rule:evenodd;clip-rule:evenodd;fill:#62B543;fill-opacity:0.7;}
	.st2{fill-rule:evenodd;clip-rule:evenodd;fill:#231F20;fill-opacity:0.7;}
	.st3{opacity:0.7;fill:#231F20;}
</style>
<g id="csharp_script">
	<path class="st0" d="M4,8h9c0.5-1.25,1-2.5,1-3.5c0-2-1-3.5-1-3.5H3c0,0,1,1.5,1,3.5c0,1-0.5,2.25-1,3.5s-1,2.5-1,3.5
		c0,2,1,3.5,1,3.5h1V8z"/>
	<path class="st1" d="M5,16h11V9H5V16z"/>
	<path class="st2" d="M6,12.501C6,11,6.931,10,8.256,10c0.946,0,1.294,0.311,1.713,0.753l-0.542,0.674C9.077,11.068,8.75,11,8.25,11
		C7.418,11,7,11.738,7,12.487C7,13.236,7.412,14,8.25,14c0.537,0,0.802-0.107,1.177-0.494L10,14.144C9.544,14.669,9.197,15,8.225,15
		C6.949,15,6,14.002,6,12.501z"/>
	<path class="st3" d="M15,11.85V11.1h-0.637L14.55,10H13.8l-0.187,1.1h-1.2L12.6,10h-0.75l-0.187,1.1H10.8v0.75h0.736l-0.213,1.25
		H10.55v0.75h0.646L11,15h0.75l0.195-1.15h1.2L12.95,15h0.75l0.195-1.15h0.854V13.1h-0.727l0.212-1.25H15z M13.273,13.1h-1.2
		l0.213-1.25h1.2L13.273,13.1z"/>
</g>
</svg>
