<?xml version="1.0" encoding="utf-8"?>
<!-- Generator: Adobe Illustrator 27.2.0, SVG Export Plug-In . SVG Version: 6.00 Build 0)  -->
<svg version="1.1" id="Layer_1" xmlns="http://www.w3.org/2000/svg" xmlns:xlink="http://www.w3.org/1999/xlink" x="0px" y="0px"
	 viewBox="0 0 16 16" style="enable-background:new 0 0 16 16;" xml:space="preserve">
<style type="text/css">
	.st0{fill:#EBECF0;}
	.st1{fill:#6C707E;}
	.st2{fill:#3574F0;}
	.st3{fill-rule:evenodd;clip-rule:evenodd;fill:#3574F0;}
	.st4{fill-rule:evenodd;clip-rule:evenodd;fill:#EDF3FF;}
</style>
<path class="st0" d="M7,12c0-2.761,2.239-5,5-5c0.915,0,1.762,0.264,2.5,0.694V6c0-0.828-0.672-1.5-1.5-1.5H8.467H8.253L8.106,4.346
	L6.483,2.654C6.388,2.556,6.258,2.5,6.122,2.5H2.633C2.068,2.5,1.5,3.047,1.5,3.867v8.267c0,0.82,0.568,1.367,1.133,1.367h4.621
	C7.104,13.024,7,12.526,7,12z"/>
<path class="st1" d="M7.101,13H2.633C2.368,13,2,12.698,2,12.133V3.867C2,3.301,2.368,3,2.633,3h3.488L8.04,5H13
	c0.552,0,1,0.449,1,1v1.422c0.361,0.158,0.69,0.366,1,0.601V6c0-1.103-0.897-2-2-2H8.467L6.843,2.308C6.655,2.112,6.393,2,6.122,2
	H2.633C1.848,2,1,2.714,1,3.867v8.266C1,13.286,1.848,14,2.633,14h4.789C7.283,13.682,7.172,13.349,7.101,13z"/>
<path class="st2" d="M11.998,13c0.552,0,1-0.448,1-1s-0.448-1-1-1c-0.552,0-1,0.448-1,1S11.445,13,11.998,13z"/>
<path class="st3" d="M13.119,15.676C13.046,15.871,12.859,16,12.651,16h-1.307c-0.208,0-0.395-0.129-0.468-0.324l-0.25-0.665
	c-0.084-0.224-0.314-0.357-0.55-0.318l-0.701,0.117c-0.206,0.034-0.411-0.063-0.515-0.243l-0.653-1.132
	c-0.104-0.181-0.086-0.407,0.047-0.568l0.451-0.549c0.152-0.185,0.152-0.451,0-0.635l-0.451-0.549
	c-0.132-0.161-0.151-0.387-0.047-0.568L8.86,9.434C8.964,9.254,9.17,9.157,9.375,9.191l0.701,0.117
	c0.236,0.039,0.466-0.094,0.55-0.318l0.25-0.665C10.949,8.129,11.136,8,11.344,8h1.307c0.208,0,0.395,0.129,0.468,0.324l0.25,0.665
	c0.084,0.224,0.314,0.357,0.55,0.318l0.701-0.117c0.206-0.034,0.411,0.063,0.515,0.243l0.653,1.132
	c0.104,0.181,0.086,0.407-0.047,0.568l-0.451,0.549c-0.152,0.185-0.152,0.451,0,0.635l0.451,0.549
	c0.132,0.161,0.151,0.387,0.047,0.568l-0.653,1.132c-0.104,0.181-0.309,0.278-0.515,0.243l-0.701-0.117
	c-0.236-0.039-0.466,0.094-0.55,0.318L13.119,15.676z M11.691,15h0.614l0.128-0.341c0.252-0.671,0.943-1.071,1.651-0.953l0.359,0.06
	l0.307-0.532l-0.231-0.281c-0.456-0.554-0.456-1.352,0-1.906l0.231-0.281l-0.307-0.532l-0.359,0.06
	c-0.707,0.118-1.399-0.282-1.651-0.953L12.304,9h-0.614l-0.128,0.341c-0.252,0.671-0.943,1.071-1.651,0.953l-0.359-0.06
	l-0.307,0.532l0.231,0.281c0.456,0.554,0.456,1.352,0,1.906l-0.231,0.281l0.307,0.532l0.359-0.06
	c0.707-0.118,1.399,0.282,1.651,0.953L11.691,15z"/>
<path class="st4" d="M12.309,15h-0.614l-0.128-0.341c-0.252-0.671-0.943-1.071-1.651-0.953l-0.359,0.06L9.25,13.234l0.231-0.281
	c0.455-0.554,0.455-1.352,0-1.906L9.25,10.766l0.307-0.532l0.359,0.06c0.707,0.118,1.399-0.282,1.651-0.953L11.695,9h0.614
	l0.128,0.341c0.252,0.671,0.943,1.071,1.651,0.953l0.359-0.06l0.307,0.532l-0.231,0.281c-0.456,0.554-0.456,1.352,0,1.906
	l0.231,0.281l-0.307,0.532l-0.359-0.06c-0.707-0.118-1.399,0.282-1.651,0.953L12.309,15z M13.002,12c0,0.552-0.448,1-1,1
	c-0.552,0-1-0.448-1-1s0.448-1,1-1C12.554,11,13.002,11.448,13.002,12z"/>
</svg>
