<?xml version="1.0" encoding="utf-8"?>
<!-- Generator: Adobe Illustrator 27.2.0, SVG Export Plug-In . SVG Version: 6.00 Build 0)  -->
<svg version="1.1" id="Layer_1" xmlns="http://www.w3.org/2000/svg" xmlns:xlink="http://www.w3.org/1999/xlink" x="0px" y="0px"
	 viewBox="0 0 16 16" style="enable-background:new 0 0 16 16;" xml:space="preserve">
<style type="text/css">
	.st0{fill:#FFFFFF;}
</style>
<path class="st0" d="M7.101,13H2.633C2.368,13,2,12.698,2,12.133V3.867C2,3.301,2.368,3,2.633,3h3.488L8.04,5H13
	c0.552,0,1,0.449,1,1v1.422c0.361,0.158,0.69,0.366,1,0.601V6c0-1.103-0.897-2-2-2H8.467L6.843,2.308C6.655,2.112,6.393,2,6.122,2
	H2.633C1.848,2,1,2.714,1,3.867v8.266C1,13.286,1.848,14,2.633,14h4.789C7.283,13.682,7.172,13.349,7.101,13z"/>
<path class="st0" d="M12,8c-2.209,0-4,1.791-4,4s1.791,4,4,4s4-1.791,4-4S14.209,8,12,8z M14.535,10.899l-2.909,2.908
	c-0.098,0.098-0.226,0.146-0.354,0.146s-0.256-0.049-0.354-0.146l-1.454-1.454c-0.195-0.195-0.195-0.512,0-0.707
	s0.512-0.195,0.707,0l1.101,1.101l2.556-2.555c0.195-0.195,0.512-0.195,0.707,0S14.73,10.704,14.535,10.899z"/>
</svg>
