<?xml version="1.0" encoding="utf-8"?>
<!-- Generator: Adobe Illustrator 27.2.0, SVG Export Plug-In . SVG Version: 6.00 Build 0)  -->
<svg version="1.1" id="Layer_1" xmlns="http://www.w3.org/2000/svg" xmlns:xlink="http://www.w3.org/1999/xlink" x="0px" y="0px"
	 viewBox="0 0 16 16" style="enable-background:new 0 0 16 16;" xml:space="preserve">
<style type="text/css">
	.st0{fill:#43454A;}
	.st1{fill-rule:evenodd;clip-rule:evenodd;fill:#CED0D6;}
	.st2{fill:#CED0D6;}
</style>
<path class="st0" d="M8,11c0-1.65,1.35-3,3-3H1v4.133C1,13.164,1.731,14,2.633,14H8V11z"/>
<path class="st1" d="M2.633,13C2.405,13,2,12.742,2,12.133V9h6.783C9.333,8.391,10.12,8,11,8H2V3.867C2,3.258,2.405,3,2.633,3h3.488
	L8.04,5H13c0.552,0,1,0.448,1,1v2c0.352,0,0.685,0.073,1,0.185V6c0-1.105-0.895-2-2-2H8.467L6.843,2.308
	C6.655,2.111,6.394,2,6.122,2H2.633C1.731,2,1,2.836,1,3.867v8.267C1,13.164,1.731,14,2.633,14H8v-1H2.633z"/>
<path class="st2" d="M13.5,12.5c0,0.552-0.448,1-1,1s-1-0.448-1-1s0.448-1,1-1S13.5,11.948,13.5,12.5z"/>
<path class="st2" d="M12.5,9L12.5,9C12.776,9,13,9.224,13,9.5v1c0,0.276-0.224,0.5-0.5,0.5l0,0c-0.276,0-0.5-0.224-0.5-0.5v-1
	C12,9.224,12.224,9,12.5,9z"/>
<path class="st2" d="M12.5,14L12.5,14c0.276,0,0.5,0.224,0.5,0.5v1c0,0.276-0.224,0.5-0.5,0.5l0,0c-0.276,0-0.5-0.224-0.5-0.5v-1
	C12,14.224,12.224,14,12.5,14z"/>
<path class="st2" d="M9.469,10.75L9.469,10.75c0.138-0.239,0.444-0.321,0.683-0.183l0.866,0.5c0.239,0.138,0.321,0.444,0.183,0.683
	l0,0c-0.138,0.239-0.444,0.321-0.683,0.183l-0.866-0.5C9.413,11.295,9.331,10.989,9.469,10.75z"/>
<path class="st2" d="M9.469,14.25L9.469,14.25c-0.138-0.239-0.056-0.545,0.183-0.683l0.866-0.5c0.239-0.138,0.545-0.056,0.683,0.183
	l0,0c0.138,0.239,0.056,0.545-0.183,0.683l-0.866,0.5C9.913,14.571,9.607,14.489,9.469,14.25z"/>
<path class="st2" d="M13.799,13.25L13.799,13.25c0.138-0.239,0.444-0.321,0.683-0.183l0.866,0.5
	c0.239,0.138,0.321,0.444,0.183,0.683l0,0c-0.138,0.239-0.444,0.321-0.683,0.183l-0.866-0.5
	C13.743,13.795,13.661,13.489,13.799,13.25z"/>
<path class="st2" d="M13.799,11.75L13.799,11.75c-0.138-0.239-0.056-0.545,0.183-0.683l0.866-0.5
	c0.239-0.138,0.545-0.056,0.683,0.183l0,0c0.138,0.239,0.056,0.545-0.183,0.683l-0.866,0.5
	C14.243,12.071,13.937,11.989,13.799,11.75z"/>
</svg>
