<?xml version="1.0" encoding="utf-8"?>
<!-- Generator: Adobe Illustrator 27.2.0, SVG Export Plug-In . SVG Version: 6.00 Build 0)  -->
<svg version="1.1" id="Layer_1" xmlns="http://www.w3.org/2000/svg" xmlns:xlink="http://www.w3.org/1999/xlink" x="0px" y="0px"
	 viewBox="0 0 16 16" style="enable-background:new 0 0 16 16;" xml:space="preserve">
<style type="text/css">
	.st0{fill:none;stroke:#FFFFFF;stroke-linecap:round;stroke-linejoin:round;}
</style>
<path class="st0" d="M8.332,2.632l5,4.443C13.439,7.17,13.5,7.306,13.5,7.449V13c0,0.276-0.224,0.5-0.5,0.5h-3
	c-0.276,0-0.5-0.224-0.5-0.5v-2c0-0.828-0.672-1.5-1.5-1.5S6.5,10.172,6.5,11v2c0,0.276-0.224,0.5-0.5,0.5H3
	c-0.276,0-0.5-0.224-0.5-0.5V7.449c0-0.143,0.061-0.279,0.168-0.374l5-4.443C7.857,2.464,8.143,2.464,8.332,2.632z"/>
</svg>
