<?xml version="1.0" encoding="utf-8"?>
<!-- Generator: Adobe Illustrator 27.2.0, SVG Export Plug-In . SVG Version: 6.00 Build 0)  -->
<svg version="1.1" id="Layer_1" xmlns="http://www.w3.org/2000/svg" xmlns:xlink="http://www.w3.org/1999/xlink" x="0px" y="0px"
	 viewBox="0 0 16 16" style="enable-background:new 0 0 16 16;" xml:space="preserve">
<style type="text/css">
	.st0{fill:#FFFFFF;}
	.st1{fill-rule:evenodd;clip-rule:evenodd;fill:#FFFFFF;}
</style>
<path class="st0" d="M13,5H8.094L6.038,3H2.75C2.396,3,2,3.326,2,3.867v8.267C2,12.674,2.396,13,2.75,13H7v1H2.75
	C1.783,14,1,13.164,1,12.133V3.867C1,2.836,1.783,2,2.75,2h3.288c0.26,0,0.511,0.102,0.697,0.283L8.5,4H13c1.105,0,2,0.895,2,2
	v3.268C14.706,9.097,14.364,9,14,9V6C14,5.448,13.552,5,13,5z"/>
<path class="st1" d="M10,9c0-0.552,0.448-1,1-1h1c0.552,0,1,0.448,1,1v1h1c0.552,0,1,0.448,1,1v3c0,0.552-0.448,1-1,1H9
	c-0.552,0-1-0.448-1-1v-4c0-0.552,0.448-1,1-1H10z M11,9h1v5h-1V9z M10,10H9v4h1V10z M13,14h1v-3h-1V14z"/>
</svg>
