<?xml version="1.0" encoding="utf-8"?>
<!-- Generator: Adobe Illustrator 27.2.0, SVG Export Plug-In . SVG Version: 6.00 Build 0)  -->
<svg version="1.1" id="Layer_1" xmlns="http://www.w3.org/2000/svg" xmlns:xlink="http://www.w3.org/1999/xlink" x="0px" y="0px"
	 viewBox="0 0 16 16" style="enable-background:new 0 0 16 16;" xml:space="preserve">
<style type="text/css">
	.st0{fill-rule:evenodd;clip-rule:evenodd;fill:#FFFFFF;}
</style>
<path class="st0" d="M11,6h3c0.552,0,1,0.448,1,1v6c0,0.552-0.448,1-1,1H3c-0.552,0-1-0.448-1-1V5c0-0.552,0.448-1,1-1h3V3
	c0-0.552,0.448-1,1-1h3c0.552,0,1,0.448,1,1V6z M10,3H7v10h3V3z M11,7v6h3V7H11z M6,5v8H3V5H6z"/>
</svg>
