<?xml version="1.0" encoding="UTF-8"?>
<svg id="Layer_1" data-name="Layer 1" xmlns="http://www.w3.org/2000/svg" viewBox="0 0 16 16">
  <path d="m9,8H1v4.133c0,1.031.731,1.867,1.633,1.867h4.367v-4c0-1.103.897-2,2-2Z" style="fill: #43454a;"/>
  <path d="m2,3.867c0-.608.405-.867.633-.867h3.488l1.919,2h4.96c.552,0,1,.448,1,1v3h1v-3c0-1.105-.895-2-2-2h-4.533l-1.623-1.692c-.189-.197-.449-.308-.722-.308h-3.488c-.902,0-1.633.836-1.633,1.867v8.267c0,1.031.731,1.867,1.633,1.867h4.367v-1H2.633c-.229,0-.633-.258-.633-.867v-3.133h5.278c.347-.595.985-1,1.722-1H2V3.867Z" style="fill: #ced0d6; fill-rule: evenodd;"/>
  <g>
    <path d="m10,9c0-.552.448-1,1-1h1c.552,0,1,.448,1,1v1h1c.552,0,1,.448,1,1v3c0,.552-.448,1-1,1h-5c-.552,0-1-.448-1-1v-4c0-.552.448-1,1-1h1Zm1,0h1v5h-1v-5Zm-1,1h-1v4h1v-4Zm3,4h1v-3h-1v3Z" style="fill: #3574f0; fill-rule: evenodd;"/>
    <path d="m11,9h1v5h-1v-5Z" style="fill: #25324d;"/>
    <path d="m9,10h1v4h-1v-4Z" style="fill: #25324d;"/>
    <path d="m14,11h-1v3h1v-3Z" style="fill: #25324d;"/>
  </g>
</svg>