<?xml version="1.0" encoding="utf-8"?>
<!-- Generator: Adobe Illustrator 27.2.0, SVG Export Plug-In . SVG Version: 6.00 Build 0)  -->
<svg version="1.1" id="Layer_1" xmlns="http://www.w3.org/2000/svg" xmlns:xlink="http://www.w3.org/1999/xlink" x="0px" y="0px"
	 viewBox="0 0 16 16" style="enable-background:new 0 0 16 16;" xml:space="preserve">
<style type="text/css">
	.st0{fill:#43454A;}
	.st1{fill-rule:evenodd;clip-rule:evenodd;fill:#CED0D6;}
	.st2{fill:#25324D;}
	.st3{fill-rule:evenodd;clip-rule:evenodd;fill:#548AF7;}
</style>
<path class="st0" d="M9,8H1v4.133C1,13.164,1.731,14,2.633,14H7v-4C7,8.897,7.897,8,9,8z"/>
<path class="st1" d="M13,4H8.467L6.843,2.308C6.655,2.111,6.394,2,6.122,2H2.633C1.731,2,1,2.836,1,3.867v8.267
	C1,13.164,1.731,14,2.633,14H7v-1H2.633C2.405,13,2,12.742,2,12.133V9h5.278C7.625,8.405,8.263,8,9,8H2V3.867
	C2,3.258,2.405,3,2.633,3h3.488L8.04,5H13c0.552,0,1,0.448,1,1v1v1v1c0.366,0,0.705,0.106,1,0.278V6C15,4.895,14.105,4,13,4z"/>
<path class="st2" d="M11,9h1v5h-1V9z"/>
<path class="st2" d="M9,10h1v4H9V10z"/>
<path class="st2" d="M14,11h-1v3h1V11z"/>
<path class="st3" d="M10,9c0-0.552,0.448-1,1-1h1c0.552,0,1,0.448,1,1v1h1c0.552,0,1,0.448,1,1v3c0,0.552-0.448,1-1,1H9
	c-0.552,0-1-0.448-1-1v-4c0-0.552,0.448-1,1-1H10z M11,9h1v5h-1V9z M10,10H9v4h1V10z M13,14h1v-3h-1V14z"/>
</svg>
