<?xml version="1.0" encoding="utf-8"?>
<!-- Generator: Adobe Illustrator 27.2.0, SVG Export Plug-In . SVG Version: 6.00 Build 0)  -->
<svg version="1.1" id="Layer_1" xmlns="http://www.w3.org/2000/svg" xmlns:xlink="http://www.w3.org/1999/xlink" x="0px" y="0px"
	 viewBox="0 0 16 16" style="enable-background:new 0 0 16 16;" xml:space="preserve">
<style type="text/css">
	.st0{fill:none;stroke:#FFFFFF;}
	.st1{fill-rule:evenodd;clip-rule:evenodd;fill:#FFFFFF;}
</style>
<path class="st0" d="M11,9.5h3c0.828,0,1.5,0.672,1.5,1.5v3c0,0.828-0.672,1.5-1.5,1.5h-3c-0.828,0-1.5-0.672-1.5-1.5v-3
	C9.5,10.172,10.172,9.5,11,9.5z"/>
<path class="st1" d="M7.803,4.717L8.094,5H8.5H13c0.552,0,1,0.448,1,1v2c0.351,0,0.687,0.06,1,0.171V6c0-1.105-0.895-2-2-2H8.5
	L6.736,2.283C6.549,2.102,6.299,2,6.038,2H2.75C1.783,2,1,2.836,1,3.867v8.267C1,13.164,1.783,14,2.75,14H8v-1H2.75
	C2.396,13,2,12.674,2,12.133V3.867C2,3.326,2.396,3,2.75,3h3.288L7.803,4.717z"/>
</svg>
