<?xml version="1.0" encoding="utf-8"?>
<!-- Generator: Adobe Illustrator 27.2.0, SVG Export Plug-In . SVG Version: 6.00 Build 0)  -->
<svg version="1.1" id="Layer_1" xmlns="http://www.w3.org/2000/svg" xmlns:xlink="http://www.w3.org/1999/xlink" x="0px" y="0px"
	 viewBox="0 0 16 16" style="enable-background:new 0 0 16 16;" xml:space="preserve">
<style type="text/css">
	.st0{fill:#EBECF0;}
	.st1{fill-rule:evenodd;clip-rule:evenodd;fill:#6C707E;}
	.st2{fill-rule:evenodd;clip-rule:evenodd;fill:#3574F0;}
</style>
<path class="st0" d="M7,13.5v-1c0-0.771,0.584-1.407,1.333-1.491C8.9,9.809,10.126,9,11.5,9h2c0.652,0,1.208,0.418,1.414,1H15V8H1
	v4.133C1,13.164,1.731,14,2.633,14h4.461C7.038,13.843,7,13.676,7,13.5z"/>
<path class="st1" d="M7,13.5V13H2.633C2.405,13,2,12.742,2,12.133V9h9.5h2H14v0.091c0.424,0.151,0.764,0.484,0.914,0.909H15V6
	c0-1.105-0.895-2-2-2H8.467L6.843,2.308C6.655,2.111,6.394,2,6.122,2H2.633C1.731,2,1,2.836,1,3.867v8.267
	C1,13.164,1.731,14,2.633,14h4.461C7.038,13.843,7,13.676,7,13.5z M2,3.867C2,3.258,2.405,3,2.633,3h3.488L8.04,5H13
	c0.552,0,1,0.448,1,1v2H2V3.867z"/>
<path class="st2" d="M9.05,12c0.232-1.141,1.24-2,2.45-2h2c0.276,0,0.5,0.224,0.5,0.5V11h1.5c0.276,0,0.5,0.224,0.5,0.5
	S15.776,12,15.5,12H14v2h1.5c0.276,0,0.5,0.224,0.5,0.5S15.776,15,15.5,15H14v0.5c0,0.276-0.224,0.5-0.5,0.5h-2
	c-1.21,0-2.218-0.859-2.45-2H8.5C8.224,14,8,13.776,8,13.5v-1C8,12.224,8.224,12,8.5,12H9.05z M10,13.5v-1
	c0-0.828,0.672-1.5,1.5-1.5H13v4h-1.5C10.672,15,10,14.328,10,13.5z"/>
</svg>
