<?xml version="1.0" encoding="utf-8"?>
<!-- Generator: Adobe Illustrator 27.2.0, SVG Export Plug-In . SVG Version: 6.00 Build 0)  -->
<svg version="1.1" id="Layer_1" xmlns="http://www.w3.org/2000/svg" xmlns:xlink="http://www.w3.org/1999/xlink" x="0px" y="0px"
	 viewBox="0 0 16 16" style="enable-background:new 0 0 16 16;" xml:space="preserve">
<style type="text/css">
	.st0{fill:#EBECF0;}
	.st1{fill:#6C707E;}
	.st2{fill-rule:evenodd;clip-rule:evenodd;fill:#3574F0;}
</style>
<g>
	<path class="st0" d="M8.333,11.009C8.9,9.809,10.126,9,11.5,9h2c0.068,0,0.133,0.006,0.198,0.016
		c0.026,0.003,0.051,0.007,0.076,0.012c0.018,0.004,0.036,0.009,0.054,0.013c0.255,0.057,0.484,0.178,0.672,0.347V6
		c0-0.828-0.672-1.5-1.5-1.5H8.467H8.253L8.106,4.346L6.483,2.654C6.388,2.556,6.258,2.5,6.122,2.5H2.633
		C2.068,2.5,1.5,3.047,1.5,3.867v8.267c0,0.82,0.568,1.367,1.133,1.367H7v-1C7,11.729,7.584,11.093,8.333,11.009z"/>
	<path class="st1" d="M7,13.5V13H2.633C2.368,13,2,12.698,2,12.133V3.867C2,3.301,2.368,3,2.633,3h3.488L8.04,5H13
		c0.552,0,1,0.449,1,1v3.091c0.424,0.151,0.764,0.484,0.914,0.909H15V6c0-1.103-0.897-2-2-2H8.467L6.844,2.309
		C6.657,2.112,6.394,2,6.122,2H2.633C1.848,2,1,2.714,1,3.867v8.266C1,13.286,1.848,14,2.633,14h4.461C7.038,13.843,7,13.676,7,13.5
		z"/>
</g>
<path class="st2" d="M9.05,12c0.232-1.141,1.24-2,2.45-2h2c0.276,0,0.5,0.224,0.5,0.5V11h1.5c0.276,0,0.5,0.224,0.5,0.5
	S15.776,12,15.5,12H14v2h1.5c0.276,0,0.5,0.224,0.5,0.5S15.776,15,15.5,15H14v0.5c0,0.276-0.224,0.5-0.5,0.5h-2
	c-1.21,0-2.218-0.859-2.45-2H8.5C8.224,14,8,13.776,8,13.5v-1C8,12.224,8.224,12,8.5,12H9.05z M10,13.5v-1
	c0-0.828,0.672-1.5,1.5-1.5H13v4h-1.5C10.672,15,10,14.328,10,13.5z"/>
</svg>
