<?xml version="1.0" encoding="utf-8"?>
<!-- Generator: Adobe Illustrator 27.2.0, SVG Export Plug-In . SVG Version: 6.00 Build 0)  -->
<svg version="1.1" id="Layer_1" xmlns="http://www.w3.org/2000/svg" xmlns:xlink="http://www.w3.org/1999/xlink" x="0px" y="0px"
	 viewBox="0 0 16 16" style="enable-background:new 0 0 16 16;" xml:space="preserve">
<style type="text/css">
	.st0{fill:#EBECF0;}
	.st1{fill-rule:evenodd;clip-rule:evenodd;fill:#6C707E;}
	.st2{fill:#E66D17;}
</style>
<path class="st0" d="M8,10c0-0.55,0.45-1,1-1h6V8H1v4.133C1,13.164,1.731,14,2.633,14H8V10z"/>
<path class="st1" d="M8,13H2.633C2.405,13,2,12.742,2,12.133V9h7h5h1V6c0-1.105-0.895-2-2-2H8.467L6.843,2.308
	C6.655,2.111,6.394,2,6.122,2H2.633C1.731,2,1,2.836,1,3.867v8.267C1,13.164,1.731,14,2.633,14H8V13z M2,3.867
	C2,3.258,2.405,3,2.633,3h3.488L8.04,5H13c0.552,0,1,0.448,1,1v2H2V3.867z"/>
<path class="st2" d="M9.5,10h6c0.276,0,0.5,0.224,0.5,0.5l0,0c0,0.276-0.224,0.5-0.5,0.5h-6C9.224,11,9,10.776,9,10.5l0,0
	C9,10.224,9.224,10,9.5,10z"/>
<path class="st2" d="M9.5,12h6c0.276,0,0.5,0.224,0.5,0.5l0,0c0,0.276-0.224,0.5-0.5,0.5h-6C9.224,13,9,12.776,9,12.5l0,0
	C9,12.224,9.224,12,9.5,12z"/>
<path class="st2" d="M9.5,14h6c0.276,0,0.5,0.224,0.5,0.5l0,0c0,0.276-0.224,0.5-0.5,0.5h-6C9.224,15,9,14.776,9,14.5l0,0
	C9,14.224,9.224,14,9.5,14z"/>
</svg>
