<?xml version="1.0" encoding="utf-8"?>
<!-- Generator: Adobe Illustrator 27.2.0, SVG Export Plug-In . SVG Version: 6.00 Build 0)  -->
<svg version="1.1" id="Layer_1" xmlns="http://www.w3.org/2000/svg" xmlns:xlink="http://www.w3.org/1999/xlink" x="0px" y="0px"
	 viewBox="0 0 16 16" style="enable-background:new 0 0 16 16;" xml:space="preserve">
<style type="text/css">
	.st0{fill:#25324D;stroke:#548AF7;}
	.st1{fill:#548AF7;}
</style>
<circle class="st0" cx="8" cy="8" r="6.5"/>
<path class="st1" d="M7.975,11.5c-0.505,0-0.962-0.08-1.371-0.242c-0.405-0.161-0.729-0.385-0.973-0.673
	C5.391,10.294,5.263,9.965,5.246,9.6H6.31c0.017,0.2,0.1,0.381,0.248,0.542c0.148,0.157,0.344,0.281,0.588,0.372
	s0.516,0.137,0.816,0.137c0.305,0,0.572-0.05,0.803-0.15c0.235-0.1,0.416-0.239,0.542-0.418c0.131-0.178,0.196-0.381,0.196-0.607
	c0-0.244-0.07-0.448-0.209-0.614c-0.135-0.17-0.324-0.276-0.568-0.32L7.113,8.248c-0.514-0.096-0.914-0.303-1.201-0.62
	C5.624,7.306,5.481,6.899,5.481,6.407c0-0.353,0.1-0.673,0.3-0.96c0.205-0.292,0.49-0.522,0.855-0.692
	C7.002,4.585,7.42,4.5,7.89,4.5c0.466,0,0.886,0.076,1.26,0.229c0.374,0.152,0.673,0.363,0.895,0.633
	c0.222,0.27,0.342,0.57,0.359,0.901H9.34c-0.013-0.174-0.085-0.331-0.215-0.47C8.998,5.654,8.828,5.545,8.615,5.466
	C8.402,5.388,8.162,5.349,7.897,5.349c-0.27,0-0.509,0.046-0.718,0.137c-0.209,0.091-0.372,0.218-0.49,0.379
	C6.576,6.021,6.519,6.2,6.519,6.4c0,0.226,0.063,0.414,0.189,0.562C6.835,7.11,7.02,7.206,7.263,7.249l1.652,0.294
	c0.34,0.061,0.631,0.181,0.875,0.359c0.248,0.178,0.435,0.401,0.562,0.666c0.131,0.266,0.196,0.555,0.196,0.868
	c0,0.392-0.113,0.744-0.34,1.058c-0.222,0.313-0.529,0.559-0.921,0.738C8.896,11.411,8.458,11.5,7.975,11.5z"/>
</svg>
