<?xml version="1.0" encoding="utf-8"?>
<!-- Generator: Adobe Illustrator 27.2.0, SVG Export Plug-In . SVG Version: 6.00 Build 0)  -->
<svg version="1.1" id="Layer_1" xmlns="http://www.w3.org/2000/svg" xmlns:xlink="http://www.w3.org/1999/xlink" x="0px" y="0px"
	 viewBox="0 0 16 16" style="enable-background:new 0 0 16 16;" xml:space="preserve">
<style type="text/css">
	.st0{fill:#FFFFFF;}
	.st1{fill:none;stroke:#FFFFFF;stroke-linecap:round;stroke-linejoin:round;}
</style>
<path class="st0" d="M9,13.25c0-0.086,0.021-0.165,0.025-0.25H2.633C2.368,13,2,12.698,2,12.133V3.867C2,3.301,2.368,3,2.633,3
	h3.488L8.04,5H13c0.552,0,1,0.449,1,1v2.025C14.085,8.021,14.164,8,14.25,8c0.257,0,0.503,0.04,0.75,0.076V6c0-1.103-0.897-2-2-2
	H8.467L6.843,2.308C6.655,2.112,6.393,2,6.122,2H2.633C1.848,2,1,2.714,1,3.867v8.266C1,13.286,1.848,14,2.633,14h6.442
	C9.04,13.753,9,13.507,9,13.25z"/>
<path class="st0" d="M10.646,14.646c-0.195,0.195-0.195,0.512,0,0.707c0.195,0.195,0.512,0.195,0.707,0L10.646,14.646z
	 M11.354,15.354l4.5-4.5l-0.707-0.707l-4.5,4.5L11.354,15.354z"/>
<path class="st1" d="M12.5,10.5h3v3"/>
</svg>
