<?xml version="1.0" encoding="utf-8"?>
<!-- Generator: Adobe Illustrator 27.2.0, SVG Export Plug-In . SVG Version: 6.00 Build 0)  -->
<svg version="1.1" id="Layer_1" xmlns="http://www.w3.org/2000/svg" xmlns:xlink="http://www.w3.org/1999/xlink" x="0px" y="0px"
	 viewBox="0 0 16 16" style="enable-background:new 0 0 16 16;" xml:space="preserve">
<style type="text/css">
	.st0{fill:#F2FCF3;}
	.st1{fill-rule:evenodd;clip-rule:evenodd;fill:#208A3C;}
</style>
<path class="st0" d="M1,12.133C1,13.164,1.731,14,2.633,14h10.733C14.269,14,15,13.164,15,12.133V8H1V12.133z"/>
<path class="st1" d="M1,3.867C1,2.836,1.731,2,2.633,2h3.488c0.272,0,0.533,0.111,0.722,0.308L8.467,4H13c1.105,0,2,0.895,2,2v6.133
	C15,13.164,14.269,14,13.367,14H2.633C1.731,14,1,13.164,1,12.133V3.867z M2.633,3h3.488L8.04,5H13c0.552,0,1,0.448,1,1v2H2V3.867
	C2,3.258,2.405,3,2.633,3z M14,9v3.133C14,12.742,13.595,13,13.367,13H2.633C2.405,13,2,12.742,2,12.133V9H14z"/>
</svg>
