<?xml version="1.0" encoding="utf-8"?>
<!-- Generator: Adobe Illustrator 24.1.0, SVG Export Plug-In . SVG Version: 6.00 Build 0)  -->
<svg version="1.1" id="Layer_1" xmlns="http://www.w3.org/2000/svg" xmlns:xlink="http://www.w3.org/1999/xlink" x="0px" y="0px"
	 width="16px" height="16px" viewBox="0 0 16 16" style="enable-background:new 0 0 16 16;" xml:space="preserve">
<style type="text/css">
	.st0{fill:none;}
	.st1{fill-rule:evenodd;clip-rule:evenodd;fill:#9AA7B0;fill-opacity:0.8;}
	.st2{fill-rule:evenodd;clip-rule:evenodd;fill:#62B543;}
	.st3{fill-rule:evenodd;clip-rule:evenodd;fill:#40B6E0;}
</style>
<rect id="frame" class="st0" width="16" height="16"/>
<g>
	<path class="st1" d="M7.98,4L6.7,2.71C6.3,2.32,5.53,2,4.98,2H1.05C1.02,2,1,2.02,1,2.05V13h7.05C7.86,12.05,8.23,11.08,9,10.5
		c1.1-0.83,2.67-0.6,3.5,0.5c0.58-0.77,1.55-1.14,2.5-0.95V4H7.98z M14,8H2V3h3c0.28,0,0.78,0.21,0.97,0.4l1.3,1.3L7.57,5H14V8z"/>
	<path class="st2" d="M12,12.5c0,0.83-0.67,1.5-1.5,1.5C9.67,14,9,13.33,9,12.5S9.67,11,10.5,11C11.33,11,12,11.67,12,12.5L12,12.5"
		/>
	<path class="st3" d="M16,12.5c0,0.83-0.67,1.5-1.5,1.5c-0.83,0-1.5-0.67-1.5-1.5s0.67-1.5,1.5-1.5C15.33,11,16,11.67,16,12.5
		L16,12.5"/>
</g>
</svg>
