<?xml version="1.0" encoding="utf-8"?>
<!-- Generator: Adobe Illustrator 24.1.0, SVG Export Plug-In . SVG Version: 6.00 Build 0)  -->
<svg version="1.1" id="Layer_1" xmlns="http://www.w3.org/2000/svg" xmlns:xlink="http://www.w3.org/1999/xlink" x="0px" y="0px"
	 width="16px" height="16px" viewBox="0 0 16 16" style="enable-background:new 0 0 16 16;" xml:space="preserve">
<style type="text/css">
	.st0{fill-rule:evenodd;clip-rule:evenodd;fill:#9AA7B0;fill-opacity:0.8;}
	.st1{fill:#453A62;}
	.st2{fill:#5E5086;}
	.st3{fill:#8F4E8B;}
</style>
<g id="go_file">
	<path id="Fill_1" class="st0" d="M7,1L3,5h4V1z"/>
	<polygon class="st0" points="7.20978,12.50006 5.24518,9.55493 4.20789,8 6.07703,8 6.54272,8 7.82819,8 8.36316,8 8.41187,8 
		10.16296,8 10.698,8 10.99487,8.44507 12.05994,10.04175 12.10864,10.04175 13,10.04175 13,1 8,1 8,6 3,6 3,15 5.54205,15 	"/>
	<g>
		<path class="st1" d="M6,16l2.35294-3.52713L6,8.94565h1.76471l2.35294,3.52723L7.76471,16H6z"/>
		<path class="st2" d="M8.35294,16l2.35294-3.52713L8.35294,8.94565h1.76471L14.82334,16h-1.76452l-1.47049-2.20441L10.11755,16
			H8.35294z"/>
		<path class="st3" d="M14.03922,13.94251L13.2549,12.7667H16v1.1759h-1.96078L14.03922,13.94251z M12.86275,12.17904
			l-0.78431-1.17581H16v1.17581H12.86275z"/>
	</g>
</g>
</svg>
