<?xml version="1.0" encoding="utf-8"?>
<!-- Generator: Adobe Illustrator 27.2.0, SVG Export Plug-In . SVG Version: 6.00 Build 0)  -->
<svg version="1.1" id="Layer_1" xmlns="http://www.w3.org/2000/svg" xmlns:xlink="http://www.w3.org/1999/xlink" x="0px" y="0px"
	 viewBox="0 0 16 16" style="enable-background:new 0 0 16 16;" xml:space="preserve">
<style type="text/css">
	.st0{fill-rule:evenodd;clip-rule:evenodd;fill:#548AF7;}
	.st1{fill:#CED0D6;}
</style>
<path class="st0" d="M12.141,10.203c-0.129-0.198-0.403-0.501-0.875-0.624c0.341,0,1.859-0.325,1.859-1.825c0-1.742-1.551-2-1.875-2
	H7v7.5h1.562v-3.234h1.064c0.259,0,0.402,0.097,0.575,0.233c0.209,0.165,0.466,0.58,0.546,0.716L12,13.254h2L12.141,10.203z
	 M10.512,8.947L8.583,8.947l0.002-2.161l1.946,0c0.535,0,1.076,0.33,1.076,1.068C11.607,8.653,10.953,8.946,10.512,8.947z"/>
<path class="st1" d="M8,1.746c-3.866,0-7,2.34-7,5.226c0,2.087,1.639,3.888,4.008,4.726c0.094,0.033,0.188,0.049,0.28,0.049
	c0.449,0,0.845-0.369,0.845-0.865c0-0.314-0.163-0.607-0.432-0.755c-1.191-0.655-1.95-1.65-1.95-2.764
	c0-1.973,2.382-3.573,5.321-3.573s5.107,1.094,5.107,3.573c0,0.008,0,0.015,0,0.023c0.001,0.266,0.203,0.406,0.403,0.406
	c0.182,0,0.363-0.115,0.391-0.355C14.991,7.283,15,7.128,15,6.972C15,4.086,11.866,1.746,8,1.746z"/>
</svg>
