<?xml version="1.0" encoding="utf-8"?>
<!-- Generator: Adobe Illustrator 27.2.0, SVG Export Plug-In . SVG Version: 6.00 Build 0)  -->
<svg version="1.1" id="Layer_1" xmlns="http://www.w3.org/2000/svg" xmlns:xlink="http://www.w3.org/1999/xlink" x="0px" y="0px"
	 viewBox="0 0 16 16" style="enable-background:new 0 0 16 16;" xml:space="preserve">
<style type="text/css">
	.st0{fill-rule:evenodd;clip-rule:evenodd;fill:#548AF7;}
	.st1{fill:#548AF7;}
	.st2{fill:#CED0D6;}
</style>
<g>
	<path class="st0" d="M15.836,9.598l0.089-0.089L15.076,8.66L14.88,8.856C15.239,9.07,15.556,9.32,15.836,9.598z"/>
	<path class="st0" d="M13.793,8.342V4.7h-1.2v3.381C13.01,8.135,13.415,8.215,13.793,8.342z"/>
</g>
<path class="st1" d="M7.141,7.597v2.633c0.435-0.645,1.065-1.189,1.843-1.576V4.7H6.513L4.856,9.145L4.763,9.602L4.654,9.145
	L2.946,4.7H0.5v7.269h1.843V7.597L2.312,7.172l1.771,4.798h1.262l1.828-4.844L7.141,7.597z"/>
<g>
	<path class="st1" d="M14.371,13.957l-0.002-0.003c-0.046-0.07-0.126-0.172-0.249-0.263c0.38-0.13,0.866-0.45,0.866-1.155
		c0-1.094-0.936-1.34-1.263-1.34h-2.706V16h1.198v-1.964h0.521c0.114,0,0.173,0.037,0.271,0.115c0.091,0.07,0.219,0.259,0.3,0.396
		L14.104,16h1.511L14.371,13.957z M13.815,12.597c0,0.426-0.354,0.538-0.54,0.538l-1.047,0.001l0.002-1.062h1.056
		C13.53,12.073,13.815,12.21,13.815,12.597z"/>
	<path class="st2" d="M11.75,9.013c-2.347,0-4.25,1.42-4.25,3.173c0,1.267,0.995,2.361,2.433,2.869c0.057,0.02,0.114,0.03,0.17,0.03
		c0.273,0,0.513-0.224,0.513-0.525c0-0.19-0.099-0.369-0.262-0.458c-0.723-0.398-1.184-1.002-1.184-1.678
		c0-1.198,1.446-2.169,3.23-2.169c1.784,0,3.101,0.664,3.101,2.169v0.014c0,0.162,0.123,0.246,0.245,0.246
		c0.111,0,0.22-0.07,0.238-0.216C15.994,12.375,16,12.281,16,12.186C16,10.434,14.097,9.013,11.75,9.013z"/>
</g>
</svg>
