<?xml version="1.0" encoding="utf-8"?>
<!-- Generator: Adobe Illustrator 24.1.0, SVG Export Plug-In . SVG Version: 6.00 Build 0)  -->
<svg version="1.1" id="Layer_1" xmlns="http://www.w3.org/2000/svg" xmlns:xlink="http://www.w3.org/1999/xlink" x="0px" y="0px"
	 width="16px" height="16px" viewBox="0 0 16 16" style="enable-background:new 0 0 16 16;" xml:space="preserve">
<style type="text/css">
	.st0{fill:none;}
	.st1{fill-rule:evenodd;clip-rule:evenodd;fill:#9AA7B0;fill-opacity:0.8;}
	.st2{fill-rule:evenodd;clip-rule:evenodd;fill:#40B6E0;}
</style>
<rect id="frame" class="st0" width="16" height="16"/>
<g>
	<path class="st1" d="M15,4H8.02L6.73,2.71C6.33,2.32,5.56,2,5,2H1.05C1.02,2,1,2.02,1,2.05V13h7v-1.6C8,10.08,8.8,9,9.78,9H15h0
		L15,4z M14,8H2V3h3c0.28,0,0.78,0.21,0.97,0.4l1.3,1.3L7.57,5H14V8z"/>
	<path class="st2" d="M13,10v6h-2.57C9.64,16,9,15.19,9,14.2V11.8c0-0.99,0.64-1.8,1.43-1.8H13z"/>
	<path class="st2" d="M14,12h2v-1h-2V12z"/>
	<path class="st2" d="M14,15h2v-1h-2V15z"/>
</g>
</svg>
