<?xml version="1.0" encoding="utf-8"?>
<!-- Generator: Adobe Illustrator 24.1.0, SVG Export Plug-In . SVG Version: 6.00 Build 0)  -->
<svg version="1.1" id="Layer_6" xmlns="http://www.w3.org/2000/svg" xmlns:xlink="http://www.w3.org/1999/xlink" x="0px" y="0px"
	 width="16px" height="16px" viewBox="0 0 16 16" style="enable-background:new 0 0 16 16;" xml:space="preserve">
<style type="text/css">
	.st0{fill:none;}
	.st1{fill:#F05133;}
</style>
<rect id="frame" class="st0" width="16" height="16"/>
<g id="Layer_7">
	<path class="st1" d="M15,8c0-0.3-0.2-0.5-0.2-0.5L8.5,1.2C8.5,1.2,8.3,1,8,1C7.7,1,7.4,1.3,7.4,1.3L6.0117,2.6883l0.9956,0.9956
		C7.5214,3.455,8.1439,3.5477,8.5657,3.9695s0.5145,1.0443,0.2856,1.5584l1.6208,1.6208c0.5141-0.2289,1.1367-0.1361,1.5584,0.2856
		c0.5467,0.5467,0.5467,1.4332,0,1.9799c-0.5467,0.5467-1.4331,0.5467-1.9798,0C9.6289,8.9925,9.5361,8.37,9.765,7.8558
		L8.1442,6.235c-0.0293,0.013-0.0587,0.0249-0.0886,0.0358V9.775c0.1728,0.0683,0.335,0.1712,0.4748,0.311
		c0.5467,0.5467,0.5467,1.4332,0,1.9799c-0.5467,0.5467-1.4332,0.5467-1.9799,0c-0.5467-0.5467-0.5467-1.4332,0-1.9799
		c0.1477-0.1477,0.3211-0.2521,0.5051-0.32v-3.507C6.8846,6.1906,6.7242,6.0878,6.5858,5.9494
		C6.164,5.5276,6.0713,4.9052,6.3002,4.391L5.3046,3.3954L1.2,7.5C1.2,7.5,1,7.7,1,8c0,0.3,0.2,0.5,0.2,0.5l6.3,6.3
		c0,0,0.2,0.2,0.5,0.2c0.3,0,0.5-0.2,0.5-0.2l6.3-6.3C14.8,8.5,15,8.3,15,8z"/>
</g>
</svg>
