<?xml version="1.0" encoding="utf-8"?>
<!-- Generator: Adobe Illustrator 24.1.0, SVG Export Plug-In . SVG Version: 6.00 Build 0)  -->
<svg version="1.1" id="Layer_1" xmlns="http://www.w3.org/2000/svg" xmlns:xlink="http://www.w3.org/1999/xlink" x="0px" y="0px"
	 width="16px" height="16px" viewBox="0 0 16 16" style="enable-background:new 0 0 16 16;" xml:space="preserve">
<style type="text/css">
	.st0{fill:none;}
	.st1{fill-rule:evenodd;clip-rule:evenodd;fill:#9AA7B0;fill-opacity:0.8;}
	.st2{fill:#F05133;}
</style>
<rect id="frame" class="st0" width="16" height="16"/>
<path class="st1" d="M7.99,4L6.7,2.71C6.22,2.29,5.62,2.03,4.98,2H1v11h7.2911l-2.1416-2.1416
	c-0.1953-0.1953-0.1953-0.5118,0-0.7071L8.3008,8H2V3h3c0.28,0,0.78,0.21,0.97,0.4l1.3,1.3L7.57,5H14v2.2911l1,1V4H7.99z"/>
<path class="st2" d="M16,10.5c0-0.1929-0.1286-0.3214-0.1286-0.3214l-4.05-4.05c0,0-0.1286-0.1286-0.3214-0.1286
	c-0.1929,0-0.3857,0.1929-0.3857,0.1929l-0.8925,0.8925l0.64,0.64c0.3305-0.1471,0.7307-0.0875,1.0018,0.1836
	c0.2711,0.2711,0.3307,0.6713,0.1836,1.0019l1.0419,1.0419c0.3305-0.1471,0.7307-0.0875,1.0019,0.1836
	c0.3515,0.3515,0.3514,0.9213,0,1.2728c-0.3515,0.3515-0.9213,0.3515-1.2728,0c-0.2711-0.2711-0.3308-0.6713-0.1836-1.0018
	l-1.0419-1.0419c-0.0189,0.0084-0.0377,0.016-0.057,0.023v2.2526c0.1111,0.0439,0.2154,0.1101,0.3052,0.1999
	c0.3515,0.3515,0.3515,0.9213,0,1.2728s-0.9213,0.3515-1.2728,0s-0.3514-0.9213,0-1.2728c0.095-0.095,0.2064-0.1621,0.3247-0.2057
	V9.3807c-0.1099-0.0439-0.213-0.11-0.302-0.199c-0.2711-0.2711-0.3307-0.6713-0.1836-1.0018l-0.64-0.64l-2.6386,2.6386
	c0,0-0.1286,0.1286-0.1286,0.3214c0,0.1929,0.1286,0.3214,0.1286,0.3214l4.05,4.05c0,0,0.1286,0.1286,0.3214,0.1286
	c0.1929,0,0.3214-0.1286,0.3214-0.1286l4.05-4.05C15.8714,10.8214,16,10.6929,16,10.5z"/>
</svg>
